<svg width="38" height="38" viewBox="0 0 38 38" fill="none" xmlns="http://www.w3.org/2000/svg">
<path d="M10 0.5H28C33.2467 0.5 37.5 4.75329 37.5 10V28C37.5 33.2467 33.2467 37.5 28 37.5H10C4.75329 37.5 0.5 33.2467 0.5 28V10C0.5 4.75329 4.75329 0.5 10 0.5Z" fill="white" stroke="#E0E0E0"/>
<path d="M24.9529 19.0249C24.9544 19.1015 24.9407 19.1777 24.9126 19.249C24.8846 19.3204 24.8428 19.3855 24.7895 19.4406C24.7363 19.4958 24.6727 19.54 24.6024 19.5705C24.5321 19.6011 24.4565 19.6175 24.3798 19.6188L15.2879 19.7733L18.4283 22.8079C18.4834 22.8611 18.5275 22.9247 18.558 22.9949C18.5885 23.0652 18.6049 23.1408 18.6062 23.2174C18.6075 23.2941 18.5937 23.3702 18.5656 23.4415C18.5375 23.5127 18.4956 23.5777 18.4424 23.6328C18.3891 23.6879 18.3255 23.732 18.2553 23.7625C18.185 23.793 18.1093 23.8094 18.0327 23.8107C17.9561 23.812 17.8801 23.7982 17.8088 23.7701C17.7375 23.742 17.6725 23.7001 17.6174 23.6469L13.4649 19.6333C13.4097 19.5801 13.3655 19.5166 13.3348 19.4463C13.3042 19.376 13.2878 19.3004 13.2865 19.2237C13.2852 19.147 13.299 19.0708 13.3272 18.9995C13.3555 18.9283 13.3975 18.8633 13.4509 18.8083L17.4645 14.6559C17.5178 14.6008 17.5814 14.5567 17.6516 14.5262C17.7219 14.4957 17.7975 14.4793 17.8741 14.478C17.9507 14.4767 18.0268 14.4905 18.0981 14.5186C18.1694 14.5467 18.2344 14.5886 18.2895 14.6419C18.3446 14.6951 18.3887 14.7586 18.4192 14.8289C18.4497 14.8992 18.4661 14.9748 18.4674 15.0514C18.4687 15.128 18.4549 15.2042 18.4268 15.2755C18.3987 15.3467 18.3568 15.4117 18.3036 15.4668L15.268 18.6073L24.36 18.4528C24.5145 18.4501 24.6637 18.5089 24.7748 18.6162C24.886 18.7234 24.95 18.8704 24.9529 19.0249Z" fill="#0A0A0A"/>
</svg>
