<svg xmlns="http://www.w3.org/2000/svg" width="20.046" height="20.046" viewBox="0 0 20.046 20.046"><g transform="translate(-684 -252)"><g transform="translate(684 252)"><path d="M7.1,7.434V1.754C7.1.5,6.565,0,5.237,0H1.863C.535,0,0,.5,0,1.754v5.68C0,8.687.535,9.188,1.863,9.188H5.237C6.565,9.188,7.1,8.687,7.1,7.434Z" transform="translate(10.858 1.67)" fill="#212a37"/><path d="M7.1,1.754v5.68c0,1.253-.535,1.754-1.863,1.754H1.863C.535,9.188,0,8.687,0,7.434V1.754C0,.5.535,0,1.863,0H5.237C6.565,0,7.1.5,7.1,1.754Z" transform="translate(2.088 9.188)" fill="#212a37"/><path d="M0,0H20.046V20.046H0Z" transform="translate(20.046 20.046) rotate(180)" fill="none" opacity="0"/><path d="M7.1,4.093V1.754C7.1.5,6.565,0,5.237,0H1.863C.535,0,0,.5,0,1.754V4.093C0,5.346.535,5.847,1.863,5.847H5.237C6.565,5.847,7.1,5.346,7.1,4.093Z" transform="translate(10.858 12.529)" fill="#212a37"/><path d="M7.1,4.093V1.754C7.1.5,6.565,0,5.237,0H1.863C.535,0,0,.5,0,1.754V4.093C0,5.346.535,5.847,1.863,5.847H5.237C6.565,5.847,7.1,5.346,7.1,4.093Z" transform="translate(2.088 1.67)" fill="#212a37"/></g></g></svg>