<?xml version="1.0" encoding="iso-8859-1"?>
<!-- Uploaded to: SVG Repo, www.svgrepo.com, Generator: SVG Repo Mixer Tools -->
<!DOCTYPE svg PUBLIC "-//W3C//DTD SVG 1.1//EN" "http://www.w3.org/Graphics/SVG/1.1/DTD/svg11.dtd">
<svg fill="#000000" height="800px" width="800px" version="1.1" id="Capa_1" xmlns="http://www.w3.org/2000/svg" xmlns:xlink="http://www.w3.org/1999/xlink" 
	 viewBox="0 0 297 297" xml:space="preserve">
<path d="M137.5,103.5c0,8.822-7.178,16-16,16H65c-4.143,0-7.833-3.357-7.833-7.5V54c0-8.547,6.953-15.5,15.5-15.5
	s15.5,6.953,15.5,15.5v28.167c0,2.94,2.726,5.333,5.667,5.333H121.5C130.322,87.5,137.5,94.678,137.5,103.5z M297,218.75
	c0,35.979-29.271,65.25-65.25,65.25s-65.25-29.271-65.25-65.25c0-27.284,16.84-50.697,40.667-60.427l-0.628-2.823H73.472
	l-5.804,34.821C85.18,197.723,97.5,215.074,97.5,235.25c0,26.881-21.869,48.75-48.75,48.75S0,262.131,0,235.25
	c0-26.638,21.479-48.341,48.025-48.732l7.11-42.662c0.804-4.822,4.976-8.356,9.864-8.356h137.095l-12.416-55.873
	c-0.122-0.548-0.182-1.107-0.179-1.669c0.003-0.516,0.123-12.777,4.643-25.688c4.67-13.34,12.311-22.657,22.401-27.554
	C218.332,17.983,224.462,13,231.75,13c8.685,0,15.75,7.065,15.75,15.75s-7.065,15.75-15.75,15.75c-4.395,0-8.371-1.814-11.231-4.727
	c-14.176,9.518-15.815,32.961-15.997,37.504l17.113,77.011c3.297-0.515,6.674-0.787,10.114-0.787
	C267.729,153.5,297,182.771,297,218.75z M48.5,211.5c-13.233,0-24,10.767-24,24s10.767,24,24,24s24-10.767,24-24
	S61.733,211.5,48.5,211.5z M282,218.75c0-27.708-22.542-50.25-50.25-50.25c-2.324,0-4.608,0.172-6.849,0.479l3.899,17.545
	c0.317-0.009,0.632-0.024,0.951-0.024c17.782,0,32.25,14.468,32.25,32.25S247.532,251,229.75,251s-32.25-14.468-32.25-32.25
	c0-12.19,6.8-22.821,16.805-28.303l-3.824-17.21c-17.103,8.025-28.981,25.404-28.981,45.512c0,27.708,22.542,50.25,50.25,50.25
	S282,246.458,282,218.75z M48.5,226.5c-4.963,0-9,4.037-9,9s4.037,9,9,9s9-4.037,9-9S53.463,226.5,48.5,226.5z"/>
</svg>