<svg xmlns="http://www.w3.org/2000/svg" width="14.579" height="14.602" viewBox="0 0 14.579 14.602"><g transform="translate(-1.494 -1.494)"><path d="M6.761,9.674,5.379,11.056a.751.751,0,0,1-1.053.007c-.082-.082-.164-.157-.247-.239A21.226,21.226,0,0,1,1.995,8.382,13.318,13.318,0,0,1,.53,5.834,6.414,6.414,0,0,1,0,3.392,3.865,3.865,0,0,1,.269,1.95,3.438,3.438,0,0,1,1.128.7,2.189,2.189,0,0,1,2.682,0a1.4,1.4,0,0,1,.605.134,1.218,1.218,0,0,1,.5.418L5.521,3a2.557,2.557,0,0,1,.3.523,1.181,1.181,0,0,1,.1.456,1.014,1.014,0,0,1-.157.53,2.541,2.541,0,0,1-.418.53l-.568.59a.4.4,0,0,0-.12.3.678.678,0,0,0,.022.172c.022.06.045.1.06.149a6.2,6.2,0,0,0,.695.956c.336.388.695.784,1.083,1.18.075.075.157.149.232.224A.749.749,0,0,1,6.761,9.674Z" transform="translate(1.494 1.494)" fill="#ff6302"/><path d="M9.241,3.2a1.9,1.9,0,0,1-.112.635,1.825,1.825,0,0,1-.075.179,3.082,3.082,0,0,1-.508.762,3.368,3.368,0,0,1-1.225.882c-.007,0-.015.007-.022.007a3.774,3.774,0,0,1-1.434.276A6.226,6.226,0,0,1,3.429,5.4,13.121,13.121,0,0,1,.859,3.922C.568,3.705.276,3.489,0,3.257L2.443.814A4.2,4.2,0,0,0,3,1.173c.037.015.082.037.134.06a.516.516,0,0,0,.187.03.411.411,0,0,0,.306-.127l.568-.56A2.292,2.292,0,0,1,4.729.157,1,1,0,0,1,5.259,0a1.192,1.192,0,0,1,.456.1,2.889,2.889,0,0,1,.523.291L8.711,2.144a1.133,1.133,0,0,1,.411.478A1.533,1.533,0,0,1,9.241,3.2Z" transform="translate(6.832 10.149)" fill="#ff6302"/></g></svg>