<svg xmlns="http://www.w3.org/2000/svg" width="24.814" height="20.426" viewBox="0 0 24.814 20.426"><path d="M-147.132-497.174h-20.374a2.207,2.207,0,0,1-2.194-2.194V-512.48a2.207,2.207,0,0,1,2.194-2.194h4.388a.718.718,0,0,0,.418-.261l.784-1.62a2.117,2.117,0,0,1,1.724-1.045h5.8a2.117,2.117,0,0,1,1.724,1.045l.784,1.62a.588.588,0,0,0,.418.261h4.388a2.207,2.207,0,0,1,2.194,2.194v13.112a2.289,2.289,0,0,1-2.246,2.194Zm-20.374-15.986a.714.714,0,0,0-.731.731v13.112a.714.714,0,0,0,.731.731h20.374a.714.714,0,0,0,.731-.731v-13.112a.714.714,0,0,0-.731-.731h-4.388a2.117,2.117,0,0,1-1.724-1.045l-.784-1.619a.588.588,0,0,0-.418-.261h-5.8a.718.718,0,0,0-.418.261l-.784,1.619a2.117,2.117,0,0,1-1.724,1.045Z" transform="translate(169.7 517.6)" fill="#212a37"/><path d="M-151.97-496.04a6.533,6.533,0,0,1-6.53-6.53,6.532,6.532,0,0,1,6.53-6.53,6.532,6.532,0,0,1,6.53,6.53,6.533,6.533,0,0,1-6.53,6.53Zm0-11.65a5.128,5.128,0,0,0-5.12,5.12,5.128,5.128,0,0,0,5.12,5.12,5.128,5.128,0,0,0,5.12-5.12,5.128,5.128,0,0,0-5.12-5.12Z" transform="translate(164.351 513.54)" fill="#212a37"/><path d="M-132.037-507.069a.714.714,0,0,1-.731.731.714.714,0,0,1-.731-.731.714.714,0,0,1,.731-.731.747.747,0,0,1,.731.731" transform="translate(152.411 512.92)" fill="#212a37"/><path d="M-164.1-514.7h2.925v.731H-164.1Z" transform="translate(167.025 516.215)" fill="#212a37"/><path d="M-149.343-502.869v-.731A3.668,3.668,0,0,0-153-499.943h.731a2.921,2.921,0,0,1,2.925-2.925" transform="translate(161.724 510.914)" fill="#212a37"/></svg>