<svg xmlns="http://www.w3.org/2000/svg" width="35.181" height="35.181" viewBox="0 0 35.181 35.181">
  <g id="Group_24556" data-name="Group 24556" transform="translate(-2525 -2015)">
    <path id="Path_19913" data-name="Path 19913" d="M0,0H35.181V35.181H0Z" transform="translate(2525 2015)" fill="none"/>
    <g id="Group_24556-2" data-name="Group 24556" transform="translate(2526.942 2023.237)">
      <g id="Group_24556-3" data-name="Group 24556" transform="translate(0 0.795)">
        <path id="Path_19913-2" data-name="Path 19913" d="M111.486,388.34a2.184,2.184,0,1,0,2.185,2.184A2.184,2.184,0,0,0,111.486,388.34Zm0,3.323a1.14,1.14,0,1,1,1.14-1.14A1.14,1.14,0,0,1,111.486,391.663Z" transform="translate(-105.366 -376.013)" fill="#0a0a0a"/>
        <path id="Path_19914" data-name="Path 19914" d="M500.373,388.34a2.184,2.184,0,1,0,2.185,2.184A2.184,2.184,0,0,0,500.373,388.34Zm0,3.323a1.14,1.14,0,1,1,1.14-1.14A1.14,1.14,0,0,1,500.373,391.663Z" transform="translate(-475.495 -376.013)" fill="#0a0a0a"/>
        <path id="Path_19915" data-name="Path 19915" d="M58.33,240.042C57.955,238.4,52,237.111,52,237.111c-6.988-3.378-10.833-3.329-10.833-3.329-4.83-.5-12.568,2.633-12.568,2.633l-.563,3.775a2.066,2.066,0,0,0,1.454,3.18h1.724c0-.016,0-.031,0-.047a2.673,2.673,0,1,1,5.346,0c0,.016,0,.031,0,.047H49.969a2.673,2.673,0,0,1,5.346,0h2.546c1.594-.149.469-3.328.469-3.328Zm-18.413-2.956h-5.7l1.124-1.985a18.3,18.3,0,0,1,4.58-.436Zm.915,0v-2.427a28.234,28.234,0,0,1,9.007,2.427Z" transform="translate(-27.717 -228.859)" fill="#0a0a0a"/>
        <path id="Path_19916" data-name="Path 19916" d="M554.719,139.169H558.9a.221.221,0,0,0,.219-.2h0v-6.049a.024.024,0,0,0,0-.007.044.044,0,0,0,0-.009.114.114,0,0,0-.1-.112l-.006,0h-1.225l-.007,0-.013,0a.115.115,0,0,0-.115.115.106.106,0,0,0,0,.022v.184c0,.091-.131.141-.131.141l-2.818,1.279a.258.258,0,0,0-.055.033.221.221,0,0,0-.158.21.178.178,0,0,0,0,.021l0,.014V138.9a.2.2,0,0,0,0,.027.122.122,0,0,0,0,.02.225.225,0,0,0,.224.224Zm2.089-3.591a1.193,1.193,0,1,1-1.193,1.193A1.193,1.193,0,0,1,556.809,135.578Z" transform="translate(-529.085 -132.785)" fill="#0a0a0a"/>
        <path id="Path_19917" data-name="Path 19917" d="M593.611,202.459a.446.446,0,0,0,.446-.429,1.846,1.846,0,0,0-.439-.965,1.447,1.447,0,0,0-.452.977.447.447,0,0,0,.445.416Zm-.215-.839a.568.568,0,0,0,.1.523s.036.065-.024.1c0,0-.1.046-.167-.091,0,0-.122-.149.089-.529Z" transform="translate(-565.888 -197.772)" fill="#0a0a0a"/>
      </g>
      <path id="Path_19918" data-name="Path 19918" d="M620.239,116.928h1.176a.152.152,0,0,0,.143-.156h0v-.31h0a.151.151,0,0,0-.143-.156h-1.176a.152.152,0,0,0-.146.157v.31A.152.152,0,0,0,620.239,116.928Z" transform="translate(-591.518 -116.304)" fill="#0a0a0a"/>
    </g>
  </g>
</svg>
