<svg id="tick" xmlns="http://www.w3.org/2000/svg" width="18.087" height="18.087" viewBox="0 0 18.087 18.087">
  <g id="tick-circle">
    <path id="Vector" d="M7.351,15.453A8.092,8.092,0,0,1,1.629,1.629,8.092,8.092,0,1,1,13.073,13.073,8.044,8.044,0,0,1,7.351,15.453ZM7.351.38a6.971,6.971,0,1,0,6.971,6.971A6.979,6.979,0,0,0,7.351.38Z" transform="translate(1.692 1.692)" fill="#292d32"/>
    <path id="Vector-2" data-name="Vector" d="M1.948,4.646a.563.563,0,0,1-.4-.166L-.584,2.348a.565.565,0,0,1,0-.8.565.565,0,0,1,.8,0L1.948,3.282,5.822-.585a.565.565,0,0,1,.8,0,.565.565,0,0,1,0,.8L2.347,4.481A.563.563,0,0,1,1.948,4.646Z" transform="translate(6.025 7.095)" fill="#292d32"/>
    <path id="Vector-3" data-name="Vector" d="M0,0H18.087V18.087H0Z" fill="none" opacity="0"/>
  </g>
</svg>
