<svg xmlns="http://www.w3.org/2000/svg" width="44" height="44" viewBox="0 0 44 44"><path d="M15.945,14a1.383,1.383,0,0,1,0,1.943,1.372,1.372,0,0,1-1.943,0L9.785,11.728,5.568,15.945a1.372,1.372,0,0,1-1.943,0,1.383,1.383,0,0,1,0-1.943L7.842,9.785,3.625,5.568A1.374,1.374,0,0,1,5.568,3.625L9.785,7.842,14,3.625a1.374,1.374,0,0,1,1.943,1.943L11.728,9.785Z" transform="translate(12.215 12.215)" fill="#212a37"/><path d="M0,0H44V44H0Z" transform="translate(44 44) rotate(180)" fill="none" opacity="0"/></svg>