<svg xmlns="http://www.w3.org/2000/svg" xmlns:xlink="http://www.w3.org/1999/xlink" width="322" height="213" viewBox="0 0 322 213"><defs><clipPath id="a"><path d="M205.223,175.1c-6.228,8.2-8.43,20.808-4.838,32.538,4.158,13.59,19.109,20.659,29.514,30.008,17.457,15.686,15.512,27.588,38.47,34.759,49.362,15.416,89.41-26.235,88.3-46.72-2.873-52.83-53.443-23.541-81.3-52.6-11.9-12.408-23.865-17.215-34.77-17.214-14.633,0-27.346,8.66-35.372,19.228" transform="translate(-198.658 -155.877)" fill="none"/></clipPath><linearGradient id="b" x1="-0.306" y1="1.067" x2="-0.304" y2="1.067" gradientUnits="objectBoundingBox"><stop offset="0" stop-color="#fff"/><stop offset="1" stop-color="#eee"/></linearGradient><clipPath id="c"><path d="M377.8,98.789c-2.9,5.961,3.02,11.962,7.264,17.219a54.22,54.22,0,0,0,16.061,13.543c9.685,5.28,18.516,6.006,28.2,6.944,12.877,1.245,20.914.345,24.584-6.2,3.59-6.4-2.014-22.915-26.631-35.308a54.609,54.609,0,0,0-24.5-5.911c-12.557,0-22.483,4.607-24.973,9.718" transform="translate(-377.025 -89.071)" fill="none"/></clipPath><linearGradient id="d" x1="-1.407" y1="2.918" x2="-1.403" y2="2.918" xlink:href="#b"/><clipPath id="e"><path d="M660.542,226.69c-7.373,1.741-11.532,10.818-11.532,10.818s7.795,6.25,15.164,4.5S675.7,231.189,675.7,231.189s-6-4.807-12.446-4.807a11.754,11.754,0,0,0-2.716.308" transform="translate(-649.01 -226.382)" fill="none"/></clipPath><linearGradient id="f" x1="-7.273" y1="5.105" x2="-7.262" y2="5.105" xlink:href="#b"/><clipPath id="g"><path d="M750.69,387.42s.412,6.967,4.772,9.969,11.019.9,11.019.9-.412-6.967-4.775-9.967a10.565,10.565,0,0,0-6.008-1.618,18.574,18.574,0,0,0-5.009.712" transform="translate(-750.69 -386.708)" fill="none"/></clipPath><linearGradient id="h" x1="-12.732" y1="3.837" x2="-12.715" y2="3.837" xlink:href="#b"/><clipPath id="i"><path d="M255.082,451.8s-.832,6.273,2.531,9.7,9.654,2.7,9.654,2.7.832-6.273-2.534-9.694c-2.368-2.41-6.184-2.767-8.236-2.767a13.791,13.791,0,0,0-1.414.063" transform="translate(-254.991 -451.734)" fill="none"/></clipPath><linearGradient id="j" x1="-4.686" y1="3" x2="-4.667" y2="3" xlink:href="#b"/><clipPath id="k"><rect width="322" height="213" transform="translate(-0.44 -0.099)" fill="none"/></clipPath></defs><g transform="translate(5673.808 -10390.901)"><g transform="translate(-5602.557 10483.347)"><g clip-path="url(#a)"><rect width="185.725" height="163.659" transform="translate(-29.742 6.178) rotate(-12.497)" fill="url(#b)"/></g></g><g transform="translate(-5538.806 10459.469)"><g clip-path="url(#c)"><rect width="91.202" height="65.45" transform="translate(-12.452 2.296) rotate(-12.546)" fill="url(#d)"/></g></g><g transform="translate(-5441.594 10508.546)"><g clip-path="url(#e)"><rect width="31.558" height="27.114" transform="translate(-6.711 3.17) rotate(-25.287)" fill="url(#f)"/></g></g><g transform="translate(-5405.252 10565.848)"><g clip-path="url(#g)"><rect width="20.874" height="20.795" transform="translate(-6.832 6.479) rotate(-43.481)" fill="url(#h)"/></g></g><g transform="translate(-5582.423 10589.09)"><g clip-path="url(#i)"><rect width="18.766" height="18.562" transform="translate(-6.718 3.813) rotate(-32.535)" fill="url(#j)"/></g></g><g transform="translate(-5673.368 10391)" clip-path="url(#k)"><path d="M701.857,345.594a5.154,5.154,0,1,1,5.383-5.149,5.27,5.27,0,0,1-5.383,5.149" transform="translate(-431.414 -251.991)" fill="#ff6302"/><path d="M409.42,485.912a7.025,7.025,0,1,1,7.256-7.021,7.141,7.141,0,0,1-7.256,7.021" transform="translate(-258.617 -303.787)" fill="#ff6302"/><path d="M182.983,191.672a5.284,5.284,0,1,0,5.284,5.284,5.284,5.284,0,0,0-5.284-5.284" transform="translate(-114.379 -123.736)" fill="#ff6302"/><path d="M506.763,141.188a4.915,4.915,0,1,0,4.915,4.915,4.915,4.915,0,0,0-4.915-4.915" transform="translate(-322.672 -91.296)" fill="#ff6302"/><path d="M673.41,467.216a4.421,4.421,0,1,0,4.421,4.42,4.42,4.42,0,0,0-4.421-4.42" transform="translate(-430.075 -300.797)" fill="#ff6302"/><path d="M129.874,415.018a2.856,2.856,0,1,0,2.856,2.856,2.856,2.856,0,0,0-2.856-2.856" transform="translate(-81.812 -267.255)" fill="#fff"/><path d="M346.114,496.551a2.291,2.291,0,1,0,2.291,2.291,2.291,2.291,0,0,0-2.291-2.291" transform="translate(-221.128 -319.647)" fill="#ff6302"/><path d="M610.161,149.3a3.5,3.5,0,1,0,3.5,3.5,3.5,3.5,0,0,0-3.5-3.5" transform="translate(-390.026 -96.506)" fill="#ff6302"/><path d="M186.024,316.872a2.287,2.287,0,1,0,1.617-2.8,2.287,2.287,0,0,0-1.617,2.8" transform="translate(-119.678 -202.337)" fill="#fff"/><path d="M321.063,163.339a3.043,3.043,0,1,0,3.043,3.043,3.043,3.043,0,0,0-3.043-3.043" transform="translate(-204.547 -105.53)" fill="#e1e4e5"/><path d="M603.086,331.628a1.919,1.919,0,1,0,2.34,1.873,2.146,2.146,0,0,0-2.34-1.873" transform="translate(-386.223 -213.67)" fill="#fff"/><path d="M701.453,416.225c-1.891.923-2.833,2.88-2.1,4.373s2.851,1.955,4.742,1.033,2.833-2.88,2.1-4.373-2.852-1.955-4.742-1.033" transform="translate(-449.425 -267.726)" fill="#fff"/><path d="M462.317,88.675a4.429,4.429,0,1,0,3.132-5.425,4.429,4.429,0,0,0-3.132,5.425" transform="translate(-297.173 -53.969)" fill="#ff6302"/><path d="M432.873,159.212h.061c.362,5.137,4.183,5.216,4.183,5.216s-4.213.082-4.213,6.018c0-5.936-4.213-6.018-4.213-6.018s3.819-.079,4.181-5.216M257.906,94.9h.105c.624,8.99,7.2,9.128,7.2,9.128s-7.255.144-7.255,10.532c0-10.388-7.255-10.532-7.255-10.532S257.281,103.892,257.906,94.9Z" transform="translate(-161.291 -61.553)" fill="#ff6302"/></g></g></svg>