<svg xmlns="http://www.w3.org/2000/svg" xmlns:xlink="http://www.w3.org/1999/xlink" width="140.771" height="142.205" viewBox="0 0 140.771 142.205"><defs><clipPath id="a"><rect width="140.771" height="142.205" fill="none"/></clipPath><clipPath id="b"><path d="M35.373,45.434v8.815c0,11.141,18.121,20.173,40.475,20.173s40.475-9.032,40.475-20.173l0-8.815Z" transform="translate(-35.373 -45.434)" fill="none"/></clipPath><linearGradient id="c" x1="-0.664" y1="2.523" x2="-0.646" y2="2.523" gradientUnits="objectBoundingBox"><stop offset="0" stop-color="#b38746"/><stop offset="0.389" stop-color="#d9973b"/><stop offset="0.75" stop-color="#ad6c10"/><stop offset="0.858" stop-color="#d3953d"/><stop offset="1" stop-color="#b07f35"/></linearGradient><clipPath id="d"><rect width="140.772" height="142.205" fill="none"/></clipPath><clipPath id="e"><rect width="31.839" height="11.796" fill="none"/></clipPath><clipPath id="f"><path d="M63.978,59.573c1.727.113,3.489.17,5.277.17a79,79,0,0,0,10.626-.705v8.8a60.348,60.348,0,0,1-10.626.7,84.53,84.53,0,0,1-21.213-2.989V56.742a69.848,69.848,0,0,0,15.936,2.831" transform="translate(-48.042 -56.742)" fill="none" clip-rule="evenodd"/></clipPath><linearGradient id="g" x1="-2.294" y1="4.742" x2="-2.246" y2="4.742" gradientUnits="objectBoundingBox"><stop offset="0" stop-color="#ffee76"/><stop offset="1" stop-color="#1d1d1b"/></linearGradient><clipPath id="h"><rect width="12.893" height="23.465" fill="none"/></clipPath><clipPath id="i"><path d="M80.136,60.158c7.856-3.659,12.8-8.865,12.893-14.649l0,8.7c0,5.829-4.961,11.082-12.894,14.764Z" transform="translate(-80.136 -45.509)" fill="none" clip-rule="evenodd"/></clipPath><linearGradient id="j" x1="-9.449" y1="3.112" x2="-9.331" y2="3.112" gradientUnits="objectBoundingBox"><stop offset="0" stop-color="#fff"/><stop offset="1" stop-color="#663d1f"/></linearGradient><clipPath id="k"><rect width="8.311" height="21.064" fill="none"/></clipPath><clipPath id="l"><path d="M43.683,57.672V66.5c-5.213-3.395-8.31-7.641-8.31-12.248V45.433c.024,4.6,3.118,8.844,8.31,12.239" transform="translate(-35.373 -45.433)" fill="none" clip-rule="evenodd"/></clipPath><linearGradient id="m" x1="-6.471" y1="3.472" x2="-6.289" y2="3.472" gradientUnits="objectBoundingBox"><stop offset="0" stop-color="#663d1f"/><stop offset="1" stop-color="#fff"/></linearGradient><clipPath id="n"><rect width="17.13" height="10.693" fill="none"/></clipPath><clipPath id="o"><path d="M62.581,59.2c1.727.113,3.489.17,5.277.17v8.8a75.894,75.894,0,0,1-17.13-1.891v-8.8A73.108,73.108,0,0,0,62.581,59.2" transform="translate(-50.728 -57.468)" fill="none" clip-rule="evenodd"/></clipPath><linearGradient id="p" x1="-4.502" y1="5.128" x2="-4.414" y2="5.128" xlink:href="#g"/><clipPath id="q"><rect width="78.278" height="20.897" fill="none"/></clipPath><clipPath id="r"><path d="M35.373,52.328c0,11.182,18.121,20.249,40.475,20.249s40.475-9.067,40.475-20.249S98.2,32.077,75.848,32.077,35.373,41.143,35.373,52.328" transform="translate(-35.373 -32.077)" fill="none"/></clipPath><linearGradient id="s" x1="-0.664" y1="2.307" x2="-0.646" y2="2.307" gradientUnits="objectBoundingBox"><stop offset="0" stop-color="#ffe878"/><stop offset="1" stop-color="#e6a729"/></linearGradient><clipPath id="u"><path d="M38.055,51.63c0,10.057,16.3,18.209,36.4,18.209s36.4-8.152,36.4-18.209-16.3-18.211-36.4-18.211-36.4,8.152-36.4,18.211" transform="translate(-38.055 -33.419)" fill="none"/></clipPath><linearGradient id="v" x1="-0.795" y1="2.51" x2="-0.774" y2="2.51" gradientUnits="objectBoundingBox"><stop offset="0" stop-color="#f0cc62"/><stop offset="1" stop-color="#ed9e1f"/></linearGradient><clipPath id="x"><rect width="71.972" height="36.01" fill="none"/></clipPath><clipPath id="y"><path d="M37.776,51.9c0,9.943,16.111,18,35.985,18s35.987-8.061,35.987-18S93.636,33.89,73.761,33.89,37.776,41.951,37.776,51.9" transform="translate(-37.776 -33.89)" fill="none" clip-rule="evenodd"/></clipPath><linearGradient id="z" x1="-0.798" y1="2.518" x2="-0.777" y2="2.518" gradientUnits="objectBoundingBox"><stop offset="0" stop-color="#e0c0a8"/><stop offset="1" stop-color="#663d1f"/></linearGradient><clipPath id="aa"><path d="M38.055,51.63a9.211,9.211,0,0,0,.068,1.124c1.16-9.534,16.982-17.087,36.329-17.087s35.167,7.553,36.329,17.087a9.21,9.21,0,0,0,.068-1.124c0-10.057-16.3-18.211-36.4-18.211s-36.4,8.154-36.4,18.211" transform="translate(-38.055 -33.419)" fill="none"/></clipPath><linearGradient id="ab" x1="-0.795" y1="4.727" x2="-0.774" y2="4.727" xlink:href="#c"/><clipPath id="ac"><path d="M39.348,39.151v8.815c0,11.143,18.121,20.175,40.475,20.175S120.3,59.109,120.3,47.966l0-8.815Z" transform="translate(-39.348 -39.151)" fill="none"/></clipPath><linearGradient id="ad" x1="-0.739" y1="2.852" x2="-0.72" y2="2.852" xlink:href="#c"/><clipPath id="ag"><path d="M67.953,53.291c1.727.113,3.489.17,5.277.17a79.249,79.249,0,0,0,10.626-.705v8.8a60.348,60.348,0,0,1-10.626.7,84.53,84.53,0,0,1-21.213-2.989V50.46a69.849,69.849,0,0,0,15.936,2.831" transform="translate(-52.017 -50.46)" fill="none" clip-rule="evenodd"/></clipPath><linearGradient id="ah" x1="-2.484" y1="5.552" x2="-2.436" y2="5.552" xlink:href="#g"/><clipPath id="ai"><rect width="12.893" height="23.466" fill="none"/></clipPath><clipPath id="aj"><path d="M84.111,53.876C91.967,50.215,96.908,45.01,97,39.227l0,8.7c0,5.829-4.961,11.082-12.894,14.764Z" transform="translate(-84.111 -39.227)" fill="none" clip-rule="evenodd"/></clipPath><linearGradient id="ak" x1="-9.918" y1="3.519" x2="-9.8" y2="3.519" xlink:href="#j"/><clipPath id="am"><path d="M47.658,51.39v8.826c-5.213-3.4-8.31-7.641-8.31-12.248V39.151c.024,4.6,3.118,8.844,8.31,12.239" transform="translate(-39.348 -39.151)" fill="none" clip-rule="evenodd"/></clipPath><linearGradient id="an" x1="-7.199" y1="3.925" x2="-7.016" y2="3.925" xlink:href="#m"/><clipPath id="ap"><path d="M66.556,52.913c1.727.113,3.489.17,5.277.17v8.8A75.894,75.894,0,0,1,54.7,59.987v-8.8a73.278,73.278,0,0,0,11.853,1.727" transform="translate(-54.703 -51.186)" fill="none" clip-rule="evenodd"/></clipPath><linearGradient id="aq" x1="-4.855" y1="6.021" x2="-4.766" y2="6.021" xlink:href="#g"/><clipPath id="as"><path d="M39.348,46.046c0,11.182,18.121,20.249,40.475,20.249S120.3,57.228,120.3,46.046,102.175,25.795,79.823,25.795,39.348,34.861,39.348,46.046" transform="translate(-39.348 -25.795)" fill="none"/></clipPath><linearGradient id="at" x1="-0.739" y1="2.543" x2="-0.72" y2="2.543" xlink:href="#s"/><clipPath id="av"><path d="M42.03,45.348c0,10.057,16.3,18.209,36.4,18.209s36.4-8.152,36.4-18.209-16.3-18.211-36.4-18.211-36.4,8.152-36.4,18.211" transform="translate(-42.03 -27.137)" fill="none"/></clipPath><linearGradient id="aw" x1="-0.878" y1="2.772" x2="-0.857" y2="2.772" gradientUnits="objectBoundingBox"><stop offset="0" stop-color="#ffe878"/><stop offset="1" stop-color="#ed9e1f"/></linearGradient><clipPath id="ax"><path d="M42.03,45.348a9.245,9.245,0,0,0,.067,1.124c1.162-9.534,16.982-17.087,36.33-17.087s35.169,7.553,36.329,17.087a9.248,9.248,0,0,0,.068-1.124c0-10.059-16.3-18.211-36.4-18.211s-36.4,8.152-36.4,18.211" transform="translate(-42.03 -27.137)" fill="none"/></clipPath><linearGradient id="ay" x1="-0.878" y1="5.221" x2="-0.857" y2="5.221" xlink:href="#c"/><clipPath id="bb"><path d="M40.82,45.971c0,9.943,16.111,18,35.987,18s35.987-8.061,35.987-18S96.68,27.966,76.807,27.966,40.82,36.027,40.82,45.971" transform="translate(-40.82 -27.966)" fill="none" clip-rule="evenodd"/></clipPath><linearGradient id="bc" x1="-0.862" y1="2.768" x2="-0.841" y2="2.768" gradientUnits="objectBoundingBox"><stop offset="0" stop-color="#663d1f"/><stop offset="1" stop-color="#e0c0a8"/></linearGradient><clipPath id="bd"><path d="M33.385,32.869v8.815c0,11.143,18.121,20.175,40.476,20.175s40.475-9.032,40.475-20.175l0-8.815Z" transform="translate(-33.385 -32.869)" fill="none"/></clipPath><linearGradient id="be" x1="-0.627" y1="3.182" x2="-0.608" y2="3.182" xlink:href="#c"/><clipPath id="bh"><path d="M61.991,47.009q2.591.166,5.276.17a79.231,79.231,0,0,0,10.626-.705v8.8a60.335,60.335,0,0,1-10.626.7,84.528,84.528,0,0,1-21.212-2.989V44.178a69.834,69.834,0,0,0,15.936,2.831" transform="translate(-46.055 -44.178)" fill="none" clip-rule="evenodd"/></clipPath><linearGradient id="bi" x1="-2.199" y1="6.361" x2="-2.152" y2="6.361" xlink:href="#g"/><clipPath id="bk"><path d="M78.149,47.594C86,43.933,90.944,38.727,91.04,32.945l0,8.7c0,5.829-4.961,11.08-12.893,14.764Z" transform="translate(-78.149 -32.945)" fill="none" clip-rule="evenodd"/></clipPath><linearGradient id="bl" x1="-9.216" y1="3.926" x2="-9.098" y2="3.926" xlink:href="#j"/><clipPath id="bn"><path d="M41.7,45.108v8.826c-5.213-3.4-8.31-7.643-8.31-12.248V32.869c.024,4.6,3.118,8.844,8.31,12.239" transform="translate(-33.386 -32.869)" fill="none" clip-rule="evenodd"/></clipPath><linearGradient id="bo" x1="-6.108" y1="4.379" x2="-5.925" y2="4.379" xlink:href="#m"/><clipPath id="bq"><path d="M60.594,46.632q2.591.166,5.276.17v8.8a75.913,75.913,0,0,1-17.13-1.891V44.9a73.15,73.15,0,0,0,11.854,1.729" transform="translate(-48.74 -44.903)" fill="none" clip-rule="evenodd"/></clipPath><linearGradient id="br" x1="-4.326" y1="6.914" x2="-4.237" y2="6.914" xlink:href="#g"/><clipPath id="bt"><path d="M33.385,39.762c0,11.184,18.121,20.251,40.476,20.251s40.475-9.067,40.475-20.251S96.213,19.513,73.861,19.513,33.385,28.579,33.385,39.762" transform="translate(-33.385 -19.513)" fill="none"/></clipPath><linearGradient id="bu" x1="-0.627" y1="2.779" x2="-0.608" y2="2.779" xlink:href="#s"/><clipPath id="bw"><path d="M36.068,39.064c0,10.059,16.3,18.211,36.4,18.211s36.4-8.152,36.4-18.211-16.3-18.209-36.4-18.209-36.4,8.152-36.4,18.209" transform="translate(-36.068 -20.855)" fill="none"/></clipPath><linearGradient id="bx" x1="-0.753" y1="3.034" x2="-0.732" y2="3.034" xlink:href="#v"/><clipPath id="by"><path d="M36.068,39.064a9.253,9.253,0,0,0,.067,1.125C37.3,30.655,53.116,23.1,72.465,23.1s35.167,7.553,36.327,17.087a9.254,9.254,0,0,0,.068-1.125c0-10.057-16.3-18.209-36.4-18.209s-36.4,8.152-36.4,18.209" transform="translate(-36.068 -20.855)" fill="none"/></clipPath><linearGradient id="bz" x1="-0.753" y1="5.715" x2="-0.732" y2="5.715" xlink:href="#c"/><clipPath id="cc"><path d="M36.295,39.47c0,9.945,16.111,18.005,35.985,18.005s35.987-8.061,35.987-18.005-16.111-18-35.987-18-35.985,8.061-35.985,18" transform="translate(-36.295 -21.466)" fill="none" clip-rule="evenodd"/></clipPath><linearGradient id="cd" x1="-0.767" y1="3.043" x2="-0.746" y2="3.043" xlink:href="#z"/><clipPath id="ce"><path d="M37.361,26.587V35.4c0,11.143,18.119,20.175,40.473,20.175s40.475-9.032,40.475-20.175l0-8.815Z" transform="translate(-37.361 -26.587)" fill="none"/></clipPath><linearGradient id="cf" x1="-0.702" y1="3.511" x2="-0.683" y2="3.511" xlink:href="#c"/><clipPath id="ci"><path d="M65.966,40.725q2.591.169,5.276.172a79.231,79.231,0,0,0,10.626-.705v8.8a60.336,60.336,0,0,1-10.626.7A84.6,84.6,0,0,1,50.03,46.7V37.9a69.753,69.753,0,0,0,15.936,2.829" transform="translate(-50.03 -37.896)" fill="none" clip-rule="evenodd"/></clipPath><linearGradient id="cj" x1="-2.389" y1="7.171" x2="-2.341" y2="7.171" xlink:href="#g"/><clipPath id="cl"><path d="M82.124,41.312c7.854-3.661,12.8-8.867,12.891-14.65l0,8.7c0,5.831-4.961,11.082-12.893,14.766Z" transform="translate(-82.124 -26.662)" fill="none" clip-rule="evenodd"/></clipPath><linearGradient id="cm" x1="-9.684" y1="4.333" x2="-9.567" y2="4.333" xlink:href="#j"/><clipPath id="co"><path d="M45.671,38.826v8.826c-5.213-3.4-8.31-7.643-8.31-12.249V26.587c.024,4.6,3.118,8.842,8.31,12.239" transform="translate(-37.361 -26.587)" fill="none" clip-rule="evenodd"/></clipPath><linearGradient id="cp" x1="-6.835" y1="4.832" x2="-6.652" y2="4.832" xlink:href="#m"/><clipPath id="cr"><path d="M64.569,40.348q2.591.169,5.276.172v8.8a75.914,75.914,0,0,1-17.13-1.891v-8.8a72.985,72.985,0,0,0,11.854,1.727" transform="translate(-52.715 -38.621)" fill="none" clip-rule="evenodd"/></clipPath><linearGradient id="cs" x1="-4.679" y1="7.807" x2="-4.59" y2="7.807" xlink:href="#g"/><clipPath id="cu"><path d="M37.361,33.48c0,11.184,18.119,20.251,40.473,20.251s40.475-9.067,40.475-20.251S100.188,13.231,77.834,13.231,37.361,22.3,37.361,33.48" transform="translate(-37.361 -13.231)" fill="none"/></clipPath><linearGradient id="cv" x1="-0.702" y1="3.015" x2="-0.683" y2="3.015" xlink:href="#s"/><clipPath id="cx"><path d="M40.042,32.783c0,10.057,16.3,18.211,36.4,18.211s36.4-8.154,36.4-18.211-16.3-18.211-36.4-18.211-36.4,8.154-36.4,18.211" transform="translate(-40.042 -14.572)" fill="none"/></clipPath><linearGradient id="cy" x1="-0.836" y1="3.296" x2="-0.815" y2="3.296" xlink:href="#aw"/><clipPath id="db"><path d="M38.845,33.135c0,9.943,16.113,18,35.987,18s35.987-8.061,35.987-18S94.707,15.13,74.832,15.13,38.845,23.191,38.845,33.135" transform="translate(-38.845 -15.13)" fill="none" clip-rule="evenodd"/></clipPath><linearGradient id="dc" x1="-0.821" y1="3.31" x2="-0.799" y2="3.31" xlink:href="#bc"/><clipPath id="dd"><path d="M40.042,32.783a9.253,9.253,0,0,0,.068,1.125c1.16-9.536,16.982-17.087,36.329-17.087s35.17,7.552,36.33,17.087a9.254,9.254,0,0,0,.068-1.125c0-10.057-16.3-18.211-36.4-18.211s-36.4,8.154-36.4,18.211" transform="translate(-40.042 -14.572)" fill="none"/></clipPath><linearGradient id="de" x1="-0.836" y1="6.209" x2="-0.815" y2="6.209" xlink:href="#c"/><clipPath id="df"><path d="M32.392,20.305V29.12c0,11.143,18.121,20.175,40.475,20.175S113.34,40.263,113.34,29.12l0-8.815Z" transform="translate(-32.392 -20.305)" fill="none"/></clipPath><linearGradient id="dg" x1="-0.608" y1="3.84" x2="-0.59" y2="3.84" xlink:href="#c"/><clipPath id="dj"><path d="M61,34.443q2.591.169,5.277.17a79.27,79.27,0,0,0,10.626-.7v8.8a60.359,60.359,0,0,1-10.626.7A84.533,84.533,0,0,1,45.061,40.42V31.614A69.918,69.918,0,0,0,61,34.443" transform="translate(-45.061 -31.614)" fill="none" clip-rule="evenodd"/></clipPath><linearGradient id="dk" x1="-2.152" y1="7.981" x2="-2.104" y2="7.981" xlink:href="#g"/><clipPath id="dm"><path d="M77.155,35.03c7.856-3.661,12.8-8.867,12.891-14.65l0,8.7c0,5.831-4.961,11.082-12.893,14.766Z" transform="translate(-77.155 -20.38)" fill="none" clip-rule="evenodd"/></clipPath><linearGradient id="dn" x1="-9.098" y1="4.74" x2="-8.981" y2="4.74" xlink:href="#j"/><clipPath id="dp"><path d="M40.7,32.544v8.826c-5.213-3.4-8.31-7.643-8.31-12.249V20.305c.024,4.6,3.118,8.842,8.31,12.239" transform="translate(-32.392 -20.305)" fill="none" clip-rule="evenodd"/></clipPath><linearGradient id="dq" x1="-5.926" y1="5.285" x2="-5.743" y2="5.285" xlink:href="#m"/><clipPath id="ds"><path d="M59.6,34.066q2.591.169,5.277.17v8.8a75.891,75.891,0,0,1-17.13-1.893v-8.8A72.942,72.942,0,0,0,59.6,34.066" transform="translate(-47.747 -32.339)" fill="none" clip-rule="evenodd"/></clipPath><linearGradient id="dt" x1="-4.238" y1="8.7" x2="-4.149" y2="8.7" xlink:href="#g"/><clipPath id="dv"><path d="M32.392,27.2c0,11.184,18.121,20.249,40.475,20.249S113.34,38.383,113.34,27.2,95.219,6.948,72.867,6.948,32.392,16.014,32.392,27.2" transform="translate(-32.392 -6.948)" fill="none"/></clipPath><linearGradient id="dw" x1="-0.608" y1="3.25" x2="-0.59" y2="3.25" xlink:href="#s"/><clipPath id="dy"><path d="M35.073,26.5c0,10.057,16.3,18.211,36.4,18.211s36.4-8.154,36.4-18.211S91.574,8.29,71.472,8.29s-36.4,8.154-36.4,18.211" transform="translate(-35.073 -8.29)" fill="none"/></clipPath><linearGradient id="dz" x1="-0.733" y1="3.558" x2="-0.712" y2="3.558" xlink:href="#v"/><clipPath id="ea"><path d="M35.073,26.5a9.254,9.254,0,0,0,.068,1.125C36.3,18.09,52.124,10.537,71.472,10.537S106.64,18.09,107.8,27.626a9.254,9.254,0,0,0,.068-1.125c0-10.057-16.3-18.211-36.4-18.211s-36.4,8.154-36.4,18.211" transform="translate(-35.073 -8.29)" fill="none"/></clipPath><linearGradient id="eb" x1="-0.733" y1="6.703" x2="-0.712" y2="6.703" xlink:href="#c"/><clipPath id="ee"><path d="M35.225,26.223c0,9.943,16.111,18,35.987,18s35.985-8.061,35.985-18S91.085,8.218,71.212,8.218,35.225,16.279,35.225,26.223" transform="translate(-35.225 -8.218)" fill="none" clip-rule="evenodd"/></clipPath><linearGradient id="ef" x1="-0.744" y1="3.602" x2="-0.723" y2="3.602" xlink:href="#z"/><clipPath id="eg"><path d="M36.367,13.357v8.815c0,11.143,18.121,20.175,40.473,20.175s40.475-9.032,40.475-20.175l0-8.815Z" transform="translate(-36.367 -13.357)" fill="none"/></clipPath><linearGradient id="eh" x1="-0.683" y1="4.205" x2="-0.664" y2="4.205" xlink:href="#c"/><clipPath id="ek"><path d="M64.972,27.5q2.591.169,5.277.17a79.27,79.27,0,0,0,10.626-.7v8.8a60.36,60.36,0,0,1-10.626.7,84.533,84.533,0,0,1-21.213-2.991V24.666A69.836,69.836,0,0,0,64.972,27.5" transform="translate(-49.036 -24.666)" fill="none" clip-rule="evenodd"/></clipPath><linearGradient id="el" x1="-2.342" y1="8.876" x2="-2.294" y2="8.876" xlink:href="#g"/><clipPath id="en"><path d="M81.13,28.082c7.856-3.661,12.8-8.867,12.891-14.65l0,8.7c0,5.831-4.961,11.082-12.893,14.766Z" transform="translate(-81.13 -13.432)" fill="none" clip-rule="evenodd"/></clipPath><linearGradient id="eo" x1="-9.567" y1="5.19" x2="-9.449" y2="5.19" xlink:href="#j"/><clipPath id="eq"><path d="M44.677,25.6v8.826c-5.213-3.4-8.31-7.643-8.31-12.249V13.357c.024,4.6,3.118,8.842,8.31,12.239" transform="translate(-36.367 -13.357)" fill="none" clip-rule="evenodd"/></clipPath><linearGradient id="er" x1="-6.653" y1="5.787" x2="-6.47" y2="5.787" xlink:href="#m"/><clipPath id="et"><path d="M63.575,27.118q2.591.169,5.277.17v8.8a75.8,75.8,0,0,1-17.13-1.893v-8.8a72.942,72.942,0,0,0,11.853,1.727" transform="translate(-51.722 -25.391)" fill="none" clip-rule="evenodd"/></clipPath><linearGradient id="eu" x1="-4.591" y1="9.688" x2="-4.502" y2="9.688" xlink:href="#g"/><clipPath id="ew"><path d="M76.84,0C54.488,0,36.367,9.067,36.367,20.25S54.488,40.5,76.84,40.5s40.475-9.067,40.475-20.251S99.2,0,76.84,0Z" transform="translate(-36.367 -0.001)" fill="none"/></clipPath><linearGradient id="ex" x1="-0.683" y1="3.511" x2="-0.664" y2="3.511" xlink:href="#s"/><clipPath id="ez"><path d="M39.048,19.553c0,10.057,16.3,18.211,36.4,18.211s36.4-8.154,36.4-18.211-16.3-18.211-36.4-18.211-36.4,8.154-36.4,18.211" transform="translate(-39.048 -1.342)" fill="none"/></clipPath><linearGradient id="fa" x1="-0.816" y1="3.848" x2="-0.795" y2="3.848" xlink:href="#v"/><clipPath id="fb"><path d="M39.048,19.553a9.571,9.571,0,0,0,.068,1.125C40.278,11.142,56.1,3.591,75.445,3.591s35.169,7.552,36.33,17.087a9.257,9.257,0,0,0,.067-1.125c0-10.057-16.3-18.211-36.4-18.211s-36.4,8.154-36.4,18.211" transform="translate(-39.048 -1.342)" fill="none"/></clipPath><linearGradient id="fc" x1="-0.816" y1="7.249" x2="-0.795" y2="7.249" xlink:href="#c"/><clipPath id="fe"><rect width="71.004" height="22.634" fill="none"/></clipPath><clipPath id="ff"><path d="M75.423,2.821c-18.62,0-33.972,7-36.137,16.018a9.463,9.463,0,0,0-.193,1.067,9.769,9.769,0,0,0,.345,1.631,12.005,12.005,0,0,0,2.107,3.916l.321-.046,45.148-6.569L110.1,15.481c-4.692-7.343-18.443-12.66-34.674-12.66" transform="translate(-39.093 -2.821)" fill="none" clip-rule="evenodd"/></clipPath><linearGradient id="fg" x1="-0.837" y1="6.094" x2="-0.816" y2="6.094" xlink:href="#g"/><clipPath id="fh"><rect width="80.621" height="28.839" fill="none"/></clipPath><clipPath id="fi"><path d="M40.188,19.292c.233-8.886,13.431-15.935,30.606-17q2.951-.249,6.048-.251c18.229,0,33.329,6.7,35.982,15.456q.144.365.257.734l3.907-.569C114.447,7.7,97.442,0,76.842,0,54.488,0,36.367,9.067,36.367,20.251v.056a12.6,12.6,0,0,0,3.81,8.532l3.968-.578a16.523,16.523,0,0,1-1.181-1.339,12.005,12.005,0,0,1-2.107-3.916,9.718,9.718,0,0,1-.639-2.7,9.043,9.043,0,0,1-.03-1.016" transform="translate(-36.367)" fill="none" clip-rule="evenodd"/></clipPath><linearGradient id="fj" x1="-0.686" y1="4.931" x2="-0.667" y2="4.931" xlink:href="#g"/><clipPath id="fk"><path d="M36.354,74.467v8.815c0,11.143,18.121,20.175,40.475,20.175S117.3,94.425,117.3,83.282l0-8.815Z" transform="translate(-36.354 -74.467)" fill="none"/></clipPath><linearGradient id="fl" x1="-0.683" y1="1" x2="-0.664" y2="1" xlink:href="#c"/><clipPath id="fo"><path d="M64.959,88.607c1.727.113,3.489.17,5.277.17a79.251,79.251,0,0,0,10.626-.705v8.8a60.348,60.348,0,0,1-10.626.7,84.529,84.529,0,0,1-21.213-2.989V85.776a69.849,69.849,0,0,0,15.936,2.831" transform="translate(-49.023 -85.776)" fill="none" clip-rule="evenodd"/></clipPath><linearGradient id="fp" x1="-2.341" y1="1" x2="-2.293" y2="1" xlink:href="#g"/><clipPath id="fr"><path d="M81.117,89.192c7.856-3.661,12.8-8.867,12.891-14.649l0,8.7c0,5.829-4.961,11.082-12.894,14.764Z" transform="translate(-81.117 -74.543)" fill="none" clip-rule="evenodd"/></clipPath><linearGradient id="fs" x1="-9.565" y1="1.231" x2="-9.447" y2="1.231" xlink:href="#j"/><clipPath id="fu"><path d="M44.664,86.706v8.826c-5.213-3.4-8.31-7.643-8.31-12.248V74.467c.024,4.6,3.118,8.844,8.31,12.239" transform="translate(-36.354 -74.467)" fill="none" clip-rule="evenodd"/></clipPath><linearGradient id="fv" x1="-6.651" y1="1.376" x2="-6.468" y2="1.376" xlink:href="#m"/><clipPath id="fx"><path d="M63.562,88.229c1.727.113,3.489.17,5.277.17v8.8A75.894,75.894,0,0,1,51.709,95.3V86.5a73.275,73.275,0,0,0,11.853,1.727" transform="translate(-51.709 -86.502)" fill="none" clip-rule="evenodd"/></clipPath><linearGradient id="fy" x1="-4.589" y1="1" x2="-4.501" y2="1" xlink:href="#g"/><clipPath id="ga"><path d="M36.354,81.36c0,11.184,18.121,20.251,40.475,20.251S117.3,92.544,117.3,81.36,99.182,61.111,76.829,61.111,36.354,70.177,36.354,81.36" transform="translate(-36.354 -61.111)" fill="none"/></clipPath><linearGradient id="gb" x1="-0.683" y1="1.217" x2="-0.664" y2="1.217" xlink:href="#s"/><clipPath id="gd"><path d="M39.036,80.662c0,10.059,16.3,18.211,36.4,18.211s36.4-8.152,36.4-18.211-16.3-18.209-36.4-18.209-36.4,8.152-36.4,18.209" transform="translate(-39.036 -62.453)" fill="none"/></clipPath><linearGradient id="ge" x1="-0.815" y1="1.298" x2="-0.794" y2="1.298" xlink:href="#aw"/><clipPath id="gf"><path d="M39.036,80.662a9.253,9.253,0,0,0,.068,1.125C40.264,72.253,56.087,64.7,75.433,64.7s35.167,7.553,36.329,17.087a9.254,9.254,0,0,0,.068-1.125c0-10.057-16.3-18.209-36.4-18.209s-36.4,8.152-36.4,18.209" transform="translate(-39.036 -62.453)" fill="none"/></clipPath><linearGradient id="gg" x1="-0.815" y1="2.444" x2="-0.794" y2="2.444" xlink:href="#c"/><clipPath id="gj"><path d="M75.41,63.931c-18.618,0-33.972,7-36.137,16.018a9.775,9.775,0,0,0-.193,1.069,9.755,9.755,0,0,0,.347,1.63,11.994,11.994,0,0,0,2.106,3.918l.322-.047L87,79.949l23.083-3.358c-4.692-7.343-18.442-12.66-34.674-12.66" transform="translate(-39.08 -63.931)" fill="none" clip-rule="evenodd"/></clipPath><linearGradient id="gk" x1="-0.837" y1="1.988" x2="-0.815" y2="1.988" gradientUnits="objectBoundingBox"><stop offset="0" stop-color="#1d1d1b"/><stop offset="1" stop-color="#ffee76"/></linearGradient><clipPath id="gm"><path d="M40.175,80.4c.233-8.886,13.431-15.935,30.606-17,1.967-.164,3.988-.251,6.048-.251,18.229,0,33.329,6.706,35.983,15.456.094.243.181.488.255.736l3.907-.569c-2.541-9.961-19.546-17.662-40.146-17.662-22.354,0-40.475,9.066-40.475,20.249v.056a12.6,12.6,0,0,0,3.81,8.532l3.97-.578a16.494,16.494,0,0,1-1.183-1.338,11.994,11.994,0,0,1-2.106-3.918,9.667,9.667,0,0,1-.64-2.7,9.044,9.044,0,0,1-.03-1.016" transform="translate(-36.354 -61.111)" fill="none" clip-rule="evenodd"/></clipPath><linearGradient id="gn" x1="-0.686" y1="1.709" x2="-0.667" y2="1.709" xlink:href="#gk"/><clipPath id="go"><path d="M4.2,97.979l4.344,4.344c10.927,10.927,32.465,7.1,48.11-8.541s19.466-37.183,8.54-48.11l-4.344-4.342Z" transform="translate(-4.199 -41.329)" fill="none"/></clipPath><linearGradient id="gp" x1="0.084" y1="0.928" x2="0.099" y2="0.928" xlink:href="#c"/><clipPath id="gq"><path d="M14.655,51.783C-.99,67.427-4.692,89.088,6.384,100.163s32.736,7.374,48.38-8.271,19.346-37.3,8.269-48.379C58.722,39.2,52.808,37.128,46.267,37.13c-10.261,0-22.06,5.1-31.612,14.653" transform="translate(0 -37.13)" fill="none"/></clipPath><linearGradient id="gr" x1="0.179" y1="0.951" x2="0.193" y2="0.951" gradientUnits="objectBoundingBox"><stop offset="0" stop-color="#e6a729"/><stop offset="1" stop-color="#ffe878"/></linearGradient><clipPath id="gt"><rect width="62.064" height="48.913" fill="none"/></clipPath><clipPath id="gu"><path d="M60.518,43.513c-11.077-11.076-32.738-7.374-48.38,8.271a55.573,55.573,0,0,0-7.3,8.981q1.352.6,2.7,1.195A49.9,49.9,0,0,1,14.157,53.8c14.068-14.068,33.548-17.4,43.508-7.438.257.258.506.521.746.792C66.35,56.1,64.6,71.727,54.759,84.685q1.3.675,2.591,1.358c11.216-14.829,12.917-32.78,3.168-42.53" transform="translate(-4.837 -37.129)" fill="none" clip-rule="evenodd"/></clipPath><linearGradient id="gv" x1="0.024" y1="1.257" x2="0.042" y2="1.257" xlink:href="#gk"/><clipPath id="gw"><path d="M15.477,52.607C1.409,66.675-1.92,86.154,8.041,96.113s29.438,6.632,43.506-7.436,17.4-33.548,7.438-43.508c-3.878-3.877-9.2-5.741-15.079-5.741-9.227,0-19.837,4.587-28.429,13.178" transform="translate(-2.3 -39.429)" fill="none"/></clipPath><linearGradient id="gx" x1="0.143" y1="1.004" x2="0.159" y2="1.004" gradientUnits="objectBoundingBox"><stop offset="0" stop-color="#ed9e1f"/><stop offset="1" stop-color="#ffe878"/></linearGradient><clipPath id="gy"><path d="M15.477,52.607C1.409,66.675-1.92,86.154,8.041,96.113q.385.388.792.746C-.2,86.687,3.311,67.85,17.017,54.146s32.541-17.218,42.714-8.184c-.24-.271-.488-.535-.746-.792-3.877-3.877-9.2-5.741-15.079-5.741-9.227,0-19.837,4.587-28.429,13.178" transform="translate(-2.3 -39.429)" fill="none"/></clipPath><linearGradient id="gz" x1="0.15" y1="1.136" x2="0.168" y2="1.136" gradientUnits="objectBoundingBox"><stop offset="0" stop-color="#bf8f2e"/><stop offset="1" stop-color="#fccd67"/></linearGradient><clipPath id="hb"><rect width="51.584" height="40.191" fill="none"/></clipPath><clipPath id="hc"><path d="M34.545,41.881A44.893,44.893,0,0,0,14.09,53.892a49.778,49.778,0,0,0-5.152,6.042q10.636,4.757,21.21,9.835,11.4,5.476,22.711,11.357a42.069,42.069,0,0,0,6.715-14.215c1.536-6.194,1.425-13.122-1.986-18.7a17.716,17.716,0,0,0-1.841-2.5q-.376-.331-.771-.642l-.071-.055a17.419,17.419,0,0,0-1.656-1.145c-5.583-3.41-12.511-3.521-18.7-1.986" transform="translate(-8.938 -40.934)" fill="none" clip-rule="evenodd"/></clipPath><linearGradient id="hd" x1="-0.104" y1="1.417" x2="-0.08" y2="1.417" xlink:href="#gk"/><clipPath id="he"><rect width="24.121" height="28.638" fill="none"/></clipPath><clipPath id="hf"><path d="M38.805,79.248a55.7,55.7,0,0,1-8.135,6.738l4.082,4.082a56.428,56.428,0,0,0,8.126-6.747A53.339,53.339,0,0,0,54.792,65.545l-4.113-4.114A52.711,52.711,0,0,1,38.805,79.248" transform="translate(-30.67 -61.431)" fill="none" clip-rule="evenodd"/></clipPath><linearGradient id="hg" x1="-1.073" y1="1.425" x2="-1.032" y2="1.425" xlink:href="#gk"/><clipPath id="hh"><rect width="27.677" height="10.405" fill="none"/></clipPath><clipPath id="hi"><path d="M27.842,84.188C18.718,86.058,10.1,84.362,4.31,78.7l4.175,4.176c5.716,5.716,14.338,7.4,23.5,5.457Z" transform="translate(-4.31 -78.7)" fill="none" clip-rule="evenodd"/></clipPath><linearGradient id="hj" x1="-0.235" y1="1.101" x2="-0.18" y2="1.101" xlink:href="#m"/><clipPath id="hk"><rect width="10.572" height="22.171" fill="none"/></clipPath><clipPath id="hl"><path d="M52,63.5c.318-6.98-1.678-13.312-6.2-17.829l-4.342-4.344c4.579,4.579,6.632,10.968,6.36,17.993Z" transform="translate(-41.461 -41.328)" fill="none" clip-rule="evenodd"/></clipPath><linearGradient id="hm" x1="-2.431" y1="3.423" x2="-2.366" y2="3.423" xlink:href="#j"/><clipPath id="hn"><rect width="14.207" height="17.94" fill="none"/></clipPath><clipPath id="ho"><path d="M46.13,64.029a52.137,52.137,0,0,1-5.006,8.017,56.455,56.455,0,0,1-5.1,5.85l4.073,4.073A54.731,54.731,0,0,0,50.227,68.128Z" transform="translate(-36.021 -64.029)" fill="none" clip-rule="evenodd"/></clipPath><linearGradient id="hp" x1="-2.222" y1="2.079" x2="-2.155" y2="2.079" xlink:href="#gk"/><clipPath id="hq"><rect width="59.988" height="59.988" fill="none"/></clipPath></defs><g clip-path="url(#a)"><g transform="translate(53.779 69.075)"><g clip-path="url(#b)"><rect width="80.949" height="28.988" transform="translate(0 -0.001)" fill="url(#c)"/></g></g><g transform="translate(0 -0.001)"><g clip-path="url(#d)"><g transform="translate(73.041 86.268)" opacity="0.5" style="mix-blend-mode:screen;isolation:isolate"><g clip-path="url(#e)"><g transform="translate(0 0)"><g clip-path="url(#f)"><rect width="31.839" height="11.796" transform="translate(0 -0.001)" fill="url(#g)"/></g></g></g></g><g transform="translate(121.835 69.189)" opacity="0.5" style="mix-blend-mode:multiply;isolation:isolate"><g clip-path="url(#h)"><g transform="translate(-0.001 0.001)"><g clip-path="url(#i)"><rect width="12.894" height="23.465" transform="translate(0 -0.001)" fill="url(#j)"/></g></g></g></g><g transform="translate(53.779 69.074)" opacity="0.5" style="mix-blend-mode:multiply;isolation:isolate"><g clip-path="url(#k)"><g transform="translate(0 0)"><g clip-path="url(#l)"><rect width="8.31" height="21.064" transform="translate(0 -0.001)" fill="url(#m)"/></g></g></g></g><g transform="translate(77.124 87.371)" style="mix-blend-mode:screen;isolation:isolate"><g clip-path="url(#n)"><g transform="translate(0 0.001)"><g clip-path="url(#o)"><rect width="17.13" height="10.693" transform="translate(0 -0.001)" fill="url(#p)"/></g></g></g></g><g transform="translate(55.114 76.185)" opacity="0.65"><g clip-path="url(#q)"><path d="M81.2,67.634a18.251,18.251,0,0,1-.236,3.022.2.2,0,0,1-.2.167.2.2,0,0,1-.2-.167,19.387,19.387,0,0,1,0-6.046.2.2,0,0,1,.2-.167.2.2,0,0,1,.2.167,18.256,18.256,0,0,1,.236,3.024m5.329-.54a19.006,19.006,0,0,1-.227,3.024.193.193,0,0,1-.383,0,20.3,20.3,0,0,1,0-6.048.193.193,0,0,1,.383,0,19.006,19.006,0,0,1,.227,3.024M91.8,66.17a20.01,20.01,0,0,1-.216,3.022.19.19,0,0,1-.184.167.188.188,0,0,1-.182-.167,21.129,21.129,0,0,1,0-6.046.188.188,0,0,1,.182-.167.19.19,0,0,1,.184.167A20.032,20.032,0,0,1,91.8,66.17m5.181-1.352a20.947,20.947,0,0,1-.205,3.022.185.185,0,0,1-.175.167.183.183,0,0,1-.175-.167,22.2,22.2,0,0,1,0-6.046.183.183,0,0,1,.175-.167.185.185,0,0,1,.175.167,20.954,20.954,0,0,1,.205,3.024m5.029-1.841a21.955,21.955,0,0,1-.2,3.024.166.166,0,1,1-.331,0,23.4,23.4,0,0,1,0-6.046.166.166,0,1,1,.331,0,21.949,21.949,0,0,1,.2,3.022m4.778-2.416a23.345,23.345,0,0,1-.185,3.024.175.175,0,0,1-.158.167.173.173,0,0,1-.157-.167,24.532,24.532,0,0,1,0-6.046.173.173,0,0,1,.157-.169.175.175,0,0,1,.158.169,23.3,23.3,0,0,1,.185,3.022m4.321-3.156a24.576,24.576,0,0,1-.175,3.022.15.15,0,1,1-.3,0,26,26,0,0,1,0-6.046.15.15,0,1,1,.3,0,24.62,24.62,0,0,1,.175,3.024M69.581,67.634a18.241,18.241,0,0,0,.237,3.022.2.2,0,0,0,.4,0,19.387,19.387,0,0,0,0-6.046.2.2,0,0,0-.4,0,18.247,18.247,0,0,0-.237,3.024m-5.327-.54a19.006,19.006,0,0,0,.227,3.024.193.193,0,0,0,.383,0,20.3,20.3,0,0,0,0-6.048.193.193,0,0,0-.383,0,19.006,19.006,0,0,0-.227,3.024m-5.276-.924a20.01,20.01,0,0,0,.216,3.022.184.184,0,0,0,.366,0,21.276,21.276,0,0,0,0-6.046.184.184,0,0,0-.366,0,20.031,20.031,0,0,0-.216,3.024M53.8,64.818A20.949,20.949,0,0,0,54,67.841a.175.175,0,0,0,.35,0,22.368,22.368,0,0,0,0-6.046.175.175,0,0,0-.35,0,20.955,20.955,0,0,0-.205,3.024m-5.029-1.841A22.213,22.213,0,0,0,48.963,66a.166.166,0,1,0,.333,0,23.4,23.4,0,0,0,0-6.046.166.166,0,1,0-.333,0,22.206,22.206,0,0,0-.195,3.022M43.99,60.561a23.346,23.346,0,0,0,.185,3.024.158.158,0,1,0,.315,0,24.731,24.731,0,0,0,0-6.046.158.158,0,1,0-.315,0,23.3,23.3,0,0,0-.185,3.022m-4.322-3.156a24.556,24.556,0,0,0,.176,3.022.15.15,0,1,0,.3,0,26.224,26.224,0,0,0,0-6.046.15.15,0,1,0-.3,0,24.6,24.6,0,0,0-.176,3.024M74.935,67.816a17.552,17.552,0,0,0,.246,3.022.214.214,0,0,0,.418,0,18.678,18.678,0,0,0,0-6.046.214.214,0,0,0-.418,0,17.558,17.558,0,0,0-.246,3.024M36.251,53.3a26.023,26.023,0,0,0,.166,3.024c.011.1.07.167.14.167s.129-.07.14-.167a27.673,27.673,0,0,0,0-6.048c-.011-.1-.07-.167-.14-.167s-.129.07-.14.167a26.023,26.023,0,0,0-.166,3.024m78.278,0a26.022,26.022,0,0,1-.166,3.024c-.012.1-.07.167-.14.167s-.129-.07-.141-.167a27.672,27.672,0,0,1,0-6.048c.012-.1.071-.167.141-.167s.128.07.14.167a26.022,26.022,0,0,1,.166,3.024" transform="translate(-36.251 -50.11)" fill="#663d1f" fill-rule="evenodd"/></g></g><path d="M35.593,52.737c0,11.308,17.831,20.474,39.825,20.474s39.824-9.166,39.824-20.474S97.412,32.263,75.418,32.263,35.593,41.429,35.593,52.737" transform="translate(18.521 16.788)" fill="#ffee76" fill-rule="evenodd"/></g></g><g transform="translate(53.779 48.768)"><g clip-path="url(#r)"><rect width="80.949" height="40.5" transform="translate(0 -0.001)" fill="url(#s)"/></g></g><g transform="translate(0 -0.001)"><g clip-path="url(#d)"><path d="M37.887,50.631c-.261,9.983,15.936,18.5,36.18,19.035s36.865-7.133,37.127-17.115-15.936-18.5-36.18-19.035S38.149,40.649,37.887,50.631" transform="translate(19.713 17.427)" fill="#ffee76" fill-rule="evenodd"/></g></g><g transform="translate(57.857 50.808)"><g clip-path="url(#u)"><rect width="72.794" height="36.42" transform="translate(0 -0.001)" fill="url(#v)"/></g></g><g transform="translate(0 -0.001)"><g clip-path="url(#d)"><g transform="translate(57.432 51.525)" style="mix-blend-mode:multiply;isolation:isolate"><g clip-path="url(#x)"><g transform="translate(0 0)"><g clip-path="url(#y)"><rect width="71.972" height="36.009" transform="translate(0 -0.001)" fill="url(#z)"/></g></g></g></g></g></g><g transform="translate(57.857 50.808)"><g clip-path="url(#aa)"><rect width="72.794" height="19.334" transform="translate(0 -0.001)" fill="url(#ab)"/></g></g><g transform="translate(59.822 59.523)"><g clip-path="url(#ac)"><rect width="80.949" height="28.99" transform="translate(0 -0.001)" fill="url(#ad)"/></g></g><g transform="translate(0 -0.001)"><g clip-path="url(#d)"><g transform="translate(79.084 76.717)" opacity="0.5" style="mix-blend-mode:screen;isolation:isolate"><g clip-path="url(#e)"><g transform="translate(0 0)"><g clip-path="url(#ag)"><rect width="31.839" height="11.796" transform="translate(0 -0.001)" fill="url(#ah)"/></g></g></g></g><g transform="translate(127.878 59.638)" opacity="0.5" style="mix-blend-mode:multiply;isolation:isolate"><g clip-path="url(#ai)"><g transform="translate(-0.001 0.001)"><g clip-path="url(#aj)"><rect width="12.894" height="23.465" transform="translate(0 -0.001)" fill="url(#ak)"/></g></g></g></g><g transform="translate(59.823 59.523)" opacity="0.5" style="mix-blend-mode:multiply;isolation:isolate"><g clip-path="url(#k)"><g transform="translate(0 0)"><g clip-path="url(#am)"><rect width="8.31" height="21.064" transform="translate(0 -0.001)" fill="url(#an)"/></g></g></g></g><g transform="translate(83.167 77.82)" style="mix-blend-mode:screen;isolation:isolate"><g clip-path="url(#n)"><g transform="translate(0 0.001)"><g clip-path="url(#ap)"><rect width="17.13" height="10.693" transform="translate(0 -0.001)" fill="url(#aq)"/></g></g></g></g><g transform="translate(61.157 66.634)" opacity="0.65"><g clip-path="url(#q)"><path d="M85.173,61.352a18.242,18.242,0,0,1-.237,3.022.2.2,0,0,1-.4,0,19.386,19.386,0,0,1,0-6.046.2.2,0,0,1,.4,0,18.247,18.247,0,0,1,.237,3.024m5.327-.54a18.986,18.986,0,0,1-.227,3.022.193.193,0,0,1-.383,0,20.287,20.287,0,0,1,0-6.046.193.193,0,0,1,.383,0,19.006,19.006,0,0,1,.227,3.024m5.276-.924a20.026,20.026,0,0,1-.216,3.022.184.184,0,0,1-.366,0,21.275,21.275,0,0,1,0-6.046.184.184,0,0,1,.366,0,20.032,20.032,0,0,1,.216,3.024m5.181-1.352a20.95,20.95,0,0,1-.205,3.022.175.175,0,0,1-.35,0,22.367,22.367,0,0,1,0-6.046.175.175,0,0,1,.35,0,20.956,20.956,0,0,1,.205,3.024m5.029-1.841a21.956,21.956,0,0,1-.2,3.024.166.166,0,1,1-.331,0,23.4,23.4,0,0,1,0-6.046.166.166,0,1,1,.331,0,21.932,21.932,0,0,1,.2,3.022m4.778-2.416a23.342,23.342,0,0,1-.185,3.024.175.175,0,0,1-.158.167.173.173,0,0,1-.157-.167,24.542,24.542,0,0,1,0-6.048.173.173,0,0,1,.157-.167.175.175,0,0,1,.158.167,23.342,23.342,0,0,1,.185,3.024m4.322-3.156a24.592,24.592,0,0,1-.176,3.022.15.15,0,1,1-.3,0,26.224,26.224,0,0,1,0-6.046.15.15,0,1,1,.3,0,24.6,24.6,0,0,1,.176,3.024M73.556,61.352a18.242,18.242,0,0,0,.237,3.022.2.2,0,0,0,.2.167.2.2,0,0,0,.2-.167,19.387,19.387,0,0,0,0-6.046.2.2,0,0,0-.2-.167.2.2,0,0,0-.2.167,18.247,18.247,0,0,0-.237,3.024m-5.327-.54a18.988,18.988,0,0,0,.227,3.022.193.193,0,0,0,.383,0,20.287,20.287,0,0,0,0-6.046.193.193,0,0,0-.383,0,19.008,19.008,0,0,0-.227,3.024m-5.276-.924a20.024,20.024,0,0,0,.216,3.022.184.184,0,0,0,.366,0,21.129,21.129,0,0,0,0-6.046.184.184,0,0,0-.366,0,20.03,20.03,0,0,0-.216,3.024m-5.181-1.352a20.948,20.948,0,0,0,.205,3.022.175.175,0,0,0,.35,0,22.2,22.2,0,0,0,0-6.046.175.175,0,0,0-.35,0,20.955,20.955,0,0,0-.205,3.024M52.743,56.7a21.956,21.956,0,0,0,.2,3.024.166.166,0,1,0,.331,0,23.4,23.4,0,0,0,0-6.046.166.166,0,1,0-.331,0,21.932,21.932,0,0,0-.2,3.022m-4.778-2.416A23.344,23.344,0,0,0,48.15,57.3a.175.175,0,0,0,.158.167.173.173,0,0,0,.157-.167,24.543,24.543,0,0,0,0-6.048.173.173,0,0,0-.157-.167.175.175,0,0,0-.158.167,23.344,23.344,0,0,0-.185,3.024m-4.321-3.156a24.613,24.613,0,0,0,.175,3.022.15.15,0,1,0,.3,0,26,26,0,0,0,0-6.046.15.15,0,1,0-.3,0,24.62,24.62,0,0,0-.175,3.024M78.91,61.534a17.552,17.552,0,0,0,.246,3.022.214.214,0,0,0,.418,0,18.678,18.678,0,0,0,0-6.046.214.214,0,0,0-.418,0,17.557,17.557,0,0,0-.246,3.024M40.226,47.018a26.024,26.024,0,0,0,.166,3.024c.012.1.07.166.14.166s.129-.068.141-.166a27.929,27.929,0,0,0,0-6.048c-.012-.1-.071-.167-.141-.167s-.128.07-.14.167a26.024,26.024,0,0,0-.166,3.024m78.278,0a26.022,26.022,0,0,1-.166,3.024c-.011.1-.07.166-.14.166s-.129-.068-.14-.166a27.672,27.672,0,0,1,0-6.048c.011-.1.07-.167.14-.167s.129.07.14.167a26.022,26.022,0,0,1,.166,3.024" transform="translate(-40.226 -43.828)" fill="#663d1f" fill-rule="evenodd"/></g></g><path d="M39.569,46.455c0,11.308,17.829,20.474,39.824,20.474s39.824-9.166,39.824-20.474S101.386,25.981,79.393,25.981,39.569,35.147,39.569,46.455" transform="translate(20.589 13.52)" fill="#ffee76" fill-rule="evenodd"/></g></g><g transform="translate(59.822 39.217)"><g clip-path="url(#as)"><rect width="80.949" height="40.5" transform="translate(0 -0.001)" fill="url(#at)"/></g></g><g transform="translate(0 -0.001)"><g clip-path="url(#d)"><path d="M41.862,44.349c-.262,9.983,15.936,18.5,36.18,19.035s36.865-7.133,37.127-17.114-15.938-18.5-36.18-19.035S42.124,34.367,41.862,44.349" transform="translate(21.781 14.159)" fill="#ffee76" fill-rule="evenodd"/></g></g><g transform="translate(63.9 41.258)"><g clip-path="url(#av)"><rect width="72.794" height="36.42" transform="translate(0 -0.001)" fill="url(#aw)"/></g></g><g transform="translate(63.9 41.258)"><g clip-path="url(#ax)"><rect width="72.794" height="19.334" transform="translate(0 -0.001)" fill="url(#ay)"/></g></g><g transform="translate(0 -0.001)"><g clip-path="url(#d)"><g transform="translate(62.061 42.518)" style="mix-blend-mode:multiply;isolation:isolate"><g clip-path="url(#x)"><g transform="translate(0 0.001)"><g clip-path="url(#bb)"><rect width="71.973" height="36.009" transform="translate(0 -0.001)" fill="url(#bc)"/></g></g></g></g></g></g><g transform="translate(50.757 49.972)"><g clip-path="url(#bd)"><rect width="80.951" height="28.99" transform="translate(0 -0.001)" fill="url(#be)"/></g></g><g transform="translate(0 -0.001)"><g clip-path="url(#d)"><g transform="translate(70.019 67.166)" opacity="0.5" style="mix-blend-mode:screen;isolation:isolate"><g clip-path="url(#e)"><g transform="translate(0 0.001)"><g clip-path="url(#bh)"><rect width="31.837" height="11.796" transform="translate(0 -0.001)" fill="url(#bi)"/></g></g></g></g><g transform="translate(118.813 50.087)" opacity="0.5" style="mix-blend-mode:multiply;isolation:isolate"><g clip-path="url(#h)"><g transform="translate(0 0.001)"><g clip-path="url(#bk)"><rect width="12.893" height="23.465" transform="translate(0 -0.001)" fill="url(#bl)"/></g></g></g></g><g transform="translate(50.758 49.972)" opacity="0.5" style="mix-blend-mode:multiply;isolation:isolate"><g clip-path="url(#k)"><g transform="translate(0.001 0.001)"><g clip-path="url(#bn)"><rect width="8.31" height="21.064" transform="translate(0 -0.001)" fill="url(#bo)"/></g></g></g></g><g transform="translate(74.102 68.269)" style="mix-blend-mode:screen;isolation:isolate"><g clip-path="url(#n)"><g transform="translate(0 0)"><g clip-path="url(#bq)"><rect width="17.13" height="10.694" transform="translate(0 -0.001)" fill="url(#br)"/></g></g></g></g><g transform="translate(52.092 57.083)" opacity="0.65"><g clip-path="url(#q)"><path d="M79.211,55.07a18.241,18.241,0,0,1-.237,3.022.2.2,0,0,1-.2.167.2.2,0,0,1-.2-.167,19.387,19.387,0,0,1,0-6.046.2.2,0,0,1,.2-.167.2.2,0,0,1,.2.167,18.247,18.247,0,0,1,.237,3.024m5.327-.54a19.008,19.008,0,0,1-.227,3.024.194.194,0,0,1-.383,0,20.3,20.3,0,0,1,0-6.048.193.193,0,0,1,.383,0,19.008,19.008,0,0,1,.227,3.024m5.276-.924a20.026,20.026,0,0,1-.216,3.022.184.184,0,0,1-.366,0,21.129,21.129,0,0,1,0-6.046.184.184,0,0,1,.366,0,20.033,20.033,0,0,1,.216,3.024M95,52.254a20.949,20.949,0,0,1-.205,3.022.175.175,0,0,1-.35,0,22.2,22.2,0,0,1,0-6.046.175.175,0,0,1,.35,0A20.956,20.956,0,0,1,95,52.254m5.029-1.841a21.956,21.956,0,0,1-.2,3.024.166.166,0,1,1-.331,0,23.4,23.4,0,0,1,0-6.046.166.166,0,1,1,.331,0,21.949,21.949,0,0,1,.2,3.022M104.8,48a23.345,23.345,0,0,1-.185,3.024.158.158,0,1,1-.315,0,24.544,24.544,0,0,1,0-6.048.158.158,0,1,1,.315,0A23.345,23.345,0,0,1,104.8,48m4.321-3.156a24.613,24.613,0,0,1-.175,3.022.15.15,0,1,1-.3,0,26,26,0,0,1,0-6.046.15.15,0,1,1,.3,0,24.621,24.621,0,0,1,.175,3.024M67.594,55.07a18.242,18.242,0,0,0,.237,3.022.2.2,0,0,0,.4,0,19.387,19.387,0,0,0,0-6.046.2.2,0,0,0-.4,0,18.248,18.248,0,0,0-.237,3.024m-5.327-.54a19.007,19.007,0,0,0,.227,3.024.194.194,0,0,0,.383,0,20.3,20.3,0,0,0,0-6.048.193.193,0,0,0-.383,0,19.007,19.007,0,0,0-.227,3.024m-5.276-.924a20.024,20.024,0,0,0,.216,3.022.184.184,0,0,0,.366,0,21.276,21.276,0,0,0,0-6.046.184.184,0,0,0-.366,0,20.031,20.031,0,0,0-.216,3.024M51.81,52.254a20.949,20.949,0,0,0,.205,3.022.175.175,0,0,0,.35,0,22.368,22.368,0,0,0,0-6.046.175.175,0,0,0-.35,0,20.956,20.956,0,0,0-.205,3.024m-5.029-1.841a21.957,21.957,0,0,0,.2,3.024.166.166,0,1,0,.331,0,23.4,23.4,0,0,0,0-6.046.166.166,0,1,0-.331,0,21.95,21.95,0,0,0-.2,3.022M42,48a23.345,23.345,0,0,0,.185,3.024.175.175,0,0,0,.158.167.173.173,0,0,0,.157-.167,24.544,24.544,0,0,0,0-6.048.173.173,0,0,0-.157-.167.175.175,0,0,0-.158.167A23.345,23.345,0,0,0,42,48M37.68,44.841a24.593,24.593,0,0,0,.176,3.022.15.15,0,1,0,.3,0,26,26,0,0,0,0-6.046.15.15,0,1,0-.3,0,24.6,24.6,0,0,0-.176,3.024M72.948,55.252a17.552,17.552,0,0,0,.246,3.022.214.214,0,0,0,.418,0,18.678,18.678,0,0,0,0-6.046.214.214,0,0,0-.418,0,17.557,17.557,0,0,0-.246,3.024M34.264,40.736a26.023,26.023,0,0,0,.166,3.024c.011.1.07.167.14.167s.129-.07.14-.167a27.673,27.673,0,0,0,0-6.048c-.011-.1-.07-.167-.14-.167s-.129.07-.14.167a26.024,26.024,0,0,0-.166,3.024m78.278,0a26.022,26.022,0,0,1-.166,3.024c-.012.1-.07.167-.14.167s-.129-.07-.141-.167a27.926,27.926,0,0,1,0-6.048c.012-.1.071-.167.141-.167s.128.07.14.167a26.022,26.022,0,0,1,.166,3.024" transform="translate(-34.263 -37.546)" fill="#663d1f" fill-rule="evenodd"/></g></g><path d="M33.606,40.173c0,11.308,17.831,20.474,39.824,20.474s39.825-9.166,39.825-20.474S95.425,19.7,73.43,19.7,33.606,28.865,33.606,40.173" transform="translate(17.487 10.251)" fill="#ffee76" fill-rule="evenodd"/></g></g><g transform="translate(50.757 29.666)"><g clip-path="url(#bt)"><rect width="80.951" height="40.5" transform="translate(0 -0.001)" fill="url(#bu)"/></g></g><g transform="translate(0 -0.001)"><g clip-path="url(#d)"><path d="M35.9,38.066c-.261,9.983,15.938,18.5,36.18,19.035s36.865-7.133,37.127-17.115-15.936-18.5-36.18-19.035S36.162,28.084,35.9,38.066" transform="translate(18.679 10.889)" fill="#ffee76" fill-rule="evenodd"/></g></g><g transform="translate(54.836 31.707)"><g clip-path="url(#bw)"><rect width="72.793" height="36.42" transform="translate(0 -0.001)" fill="url(#bx)"/></g></g><g transform="translate(54.836 31.707)"><g clip-path="url(#by)"><rect width="72.793" height="19.334" transform="translate(0 -0.001)" fill="url(#bz)"/></g></g><g transform="translate(0 -0.001)"><g clip-path="url(#d)"><g transform="translate(55.18 32.635)" style="mix-blend-mode:multiply;isolation:isolate"><g clip-path="url(#x)"><g transform="translate(0.001 0.001)"><g clip-path="url(#cc)"><rect width="71.972" height="36.009" transform="translate(0 -0.001)" fill="url(#cd)"/></g></g></g></g></g></g><g transform="translate(56.802 40.421)"><g clip-path="url(#ce)"><rect width="80.948" height="28.99" transform="translate(0 -0.001)" fill="url(#cf)"/></g></g><g transform="translate(0 -0.001)"><g clip-path="url(#d)"><g transform="translate(76.062 57.615)" opacity="0.5" style="mix-blend-mode:screen;isolation:isolate"><g clip-path="url(#e)"><g transform="translate(0 0.001)"><g clip-path="url(#ci)"><rect width="31.838" height="11.796" transform="translate(0 -0.001)" fill="url(#cj)"/></g></g></g></g><g transform="translate(124.857 40.536)" opacity="0.5" style="mix-blend-mode:multiply;isolation:isolate"><g clip-path="url(#h)"><g transform="translate(0 0)"><g clip-path="url(#cl)"><rect width="12.893" height="23.466" transform="translate(0 -0.001)" fill="url(#cm)"/></g></g></g></g><g transform="translate(56.801 40.421)" opacity="0.5" style="mix-blend-mode:multiply;isolation:isolate"><g clip-path="url(#k)"><g transform="translate(0.001 0.001)"><g clip-path="url(#co)"><rect width="8.31" height="21.064" transform="translate(0 -0.001)" fill="url(#cp)"/></g></g></g></g><g transform="translate(80.145 58.718)" style="mix-blend-mode:screen;isolation:isolate"><g clip-path="url(#n)"><g transform="translate(0 0)"><g clip-path="url(#cr)"><rect width="17.13" height="10.694" transform="translate(0 -0.001)" fill="url(#cs)"/></g></g></g></g><g transform="translate(58.136 47.531)" opacity="0.65"><g clip-path="url(#q)"><path d="M83.186,48.788a18.243,18.243,0,0,1-.237,3.022.2.2,0,0,1-.2.167.2.2,0,0,1-.2-.167,19.387,19.387,0,0,1,0-6.046.2.2,0,0,1,.2-.167.2.2,0,0,1,.2.167,18.248,18.248,0,0,1,.237,3.024m5.327-.54a19.007,19.007,0,0,1-.227,3.024.193.193,0,0,1-.383,0,20.3,20.3,0,0,1,0-6.048.193.193,0,0,1,.383,0,19.007,19.007,0,0,1,.227,3.024m5.276-.924a20.025,20.025,0,0,1-.216,3.022.184.184,0,0,1-.366,0,21.129,21.129,0,0,1,0-6.046.184.184,0,0,1,.366,0,20.032,20.032,0,0,1,.216,3.024m5.181-1.352a20.948,20.948,0,0,1-.205,3.022.175.175,0,0,1-.35,0,22.205,22.205,0,0,1,0-6.046.175.175,0,0,1,.35,0,20.955,20.955,0,0,1,.205,3.024M104,44.131a21.956,21.956,0,0,1-.2,3.024.166.166,0,1,1-.331,0,23.4,23.4,0,0,1,0-6.046.166.166,0,1,1,.331,0,21.949,21.949,0,0,1,.2,3.022m4.778-2.416a23.346,23.346,0,0,1-.185,3.024.158.158,0,1,1-.316,0,24.729,24.729,0,0,1,0-6.046.158.158,0,1,1,.316,0,23.3,23.3,0,0,1,.185,3.022m4.321-3.156a24.594,24.594,0,0,1-.175,3.022.15.15,0,1,1-.3,0,26,26,0,0,1,0-6.046.15.15,0,1,1,.3,0,24.62,24.62,0,0,1,.175,3.024M71.569,48.788a18.242,18.242,0,0,0,.237,3.022.2.2,0,0,0,.4,0,19.387,19.387,0,0,0,0-6.046.2.2,0,0,0-.4,0,18.248,18.248,0,0,0-.237,3.024m-5.327-.54a19.007,19.007,0,0,0,.227,3.024.193.193,0,0,0,.383,0,20.3,20.3,0,0,0,0-6.048.193.193,0,0,0-.383,0,19.007,19.007,0,0,0-.227,3.024m-5.276-.924a20.025,20.025,0,0,0,.216,3.022.184.184,0,0,0,.366,0,21.275,21.275,0,0,0,0-6.046.184.184,0,0,0-.366,0,20.031,20.031,0,0,0-.216,3.024m-5.181-1.352a20.948,20.948,0,0,0,.205,3.022.175.175,0,0,0,.35,0,22.368,22.368,0,0,0,0-6.046.175.175,0,0,0-.35,0,20.954,20.954,0,0,0-.205,3.024m-5.029-1.841a21.955,21.955,0,0,0,.2,3.024.177.177,0,0,0,.166.167.179.179,0,0,0,.166-.167,23.4,23.4,0,0,0,0-6.046.179.179,0,0,0-.166-.167.177.177,0,0,0-.166.167,21.948,21.948,0,0,0-.2,3.022m-4.778-2.416a23.343,23.343,0,0,0,.185,3.024.158.158,0,1,0,.315,0,24.532,24.532,0,0,0,0-6.046.158.158,0,1,0-.315,0,23.3,23.3,0,0,0-.185,3.022m-4.322-3.156a24.573,24.573,0,0,0,.176,3.022.15.15,0,1,0,.3,0,26.226,26.226,0,0,0,0-6.046.15.15,0,1,0-.3,0,24.6,24.6,0,0,0-.176,3.024M76.923,48.97a17.54,17.54,0,0,0,.246,3.022.214.214,0,0,0,.418,0,18.678,18.678,0,0,0,0-6.046.214.214,0,0,0-.418,0,17.558,17.558,0,0,0-.246,3.024M38.239,34.454a26.024,26.024,0,0,0,.166,3.024c.011.1.07.167.14.167s.129-.07.14-.167a27.674,27.674,0,0,0,0-6.048c-.011-.1-.07-.167-.14-.167s-.129.07-.14.167a26.024,26.024,0,0,0-.166,3.024m78.278,0a26.023,26.023,0,0,1-.166,3.024c-.012.1-.07.167-.14.167s-.129-.07-.141-.167a27.672,27.672,0,0,1,0-6.048c.012-.1.071-.167.141-.167s.128.07.14.167a26.023,26.023,0,0,1,.166,3.024" transform="translate(-38.239 -31.263)" fill="#663d1f" fill-rule="evenodd"/></g></g><path d="M37.581,33.89c0,11.308,17.831,20.474,39.825,20.474S117.23,45.2,117.23,33.89,99.4,13.416,77.406,13.416,37.581,22.582,37.581,33.89" transform="translate(19.555 6.982)" fill="#ffee76" fill-rule="evenodd"/></g></g><g transform="translate(56.802 20.116)"><g clip-path="url(#cu)"><rect width="80.948" height="40.5" transform="translate(0 -0.001)" fill="url(#cv)"/></g></g><g transform="translate(0 -0.001)"><g clip-path="url(#d)"><path d="M39.875,31.784c-.262,9.983,15.936,18.5,36.18,19.035S112.92,43.686,113.181,33.7,97.245,15.2,77,14.67,40.137,21.8,39.875,31.784" transform="translate(20.747 7.62)" fill="#ffee76" fill-rule="evenodd"/></g></g><g transform="translate(60.878 22.154)"><g clip-path="url(#cx)"><rect width="72.796" height="36.421" transform="translate(0 -0.001)" fill="url(#cy)"/></g></g><g transform="translate(0 -0.001)"><g clip-path="url(#d)"><g transform="translate(59.058 23.003)" style="mix-blend-mode:multiply;isolation:isolate"><g clip-path="url(#x)"><g transform="translate(0 0.001)"><g clip-path="url(#db)"><rect width="71.973" height="36.009" transform="translate(0 -0.001)" fill="url(#dc)"/></g></g></g></g></g></g><g transform="translate(60.878 22.154)"><g clip-path="url(#dd)"><rect width="72.796" height="19.336" transform="translate(0 -0.001)" fill="url(#de)"/></g></g><g transform="translate(49.247 30.871)"><g clip-path="url(#df)"><rect width="80.948" height="28.99" transform="translate(0 -0.001)" fill="url(#dg)"/></g></g><g transform="translate(0 -0.001)"><g clip-path="url(#d)"><g transform="translate(68.508 48.064)" opacity="0.5" style="mix-blend-mode:screen;isolation:isolate"><g clip-path="url(#e)"><g transform="translate(0 0.001)"><g clip-path="url(#dj)"><rect width="31.839" height="11.796" transform="translate(0 -0.001)" fill="url(#dk)"/></g></g></g></g><g transform="translate(117.302 30.985)" opacity="0.5" style="mix-blend-mode:multiply;isolation:isolate"><g clip-path="url(#h)"><g transform="translate(0 0)"><g clip-path="url(#dm)"><rect width="12.893" height="23.466" transform="translate(0 -0.001)" fill="url(#dn)"/></g></g></g></g><g transform="translate(49.247 30.87)" opacity="0.5" style="mix-blend-mode:multiply;isolation:isolate"><g clip-path="url(#k)"><g transform="translate(0 0.001)"><g clip-path="url(#dp)"><rect width="8.31" height="21.064" transform="translate(0 -0.001)" fill="url(#dq)"/></g></g></g></g><g transform="translate(72.591 49.167)" style="mix-blend-mode:screen;isolation:isolate"><g clip-path="url(#n)"><g transform="translate(0.001 0)"><g clip-path="url(#ds)"><rect width="17.13" height="10.694" transform="translate(0 -0.001)" fill="url(#dt)"/></g></g></g></g><g transform="translate(50.582 37.98)" opacity="0.65"><g clip-path="url(#q)"><path d="M78.217,42.505a18.242,18.242,0,0,1-.237,3.022.2.2,0,0,1-.4,0,19.386,19.386,0,0,1,0-6.046.2.2,0,0,1,.4,0,18.248,18.248,0,0,1,.237,3.024m5.327-.54a19.01,19.01,0,0,1-.227,3.024.193.193,0,0,1-.383,0,20.3,20.3,0,0,1,0-6.048.193.193,0,0,1,.383,0,19.01,19.01,0,0,1,.227,3.024m5.276-.924a20.012,20.012,0,0,1-.216,3.022.184.184,0,0,1-.366,0,21.276,21.276,0,0,1,0-6.046.184.184,0,0,1,.366,0,20.033,20.033,0,0,1,.216,3.024M94,39.69a20.951,20.951,0,0,1-.205,3.022.175.175,0,0,1-.35,0,22.368,22.368,0,0,1,0-6.046.175.175,0,0,1,.35,0A20.957,20.957,0,0,1,94,39.69m5.029-1.841a21.955,21.955,0,0,1-.2,3.024.166.166,0,1,1-.331,0,23.4,23.4,0,0,1,0-6.046.166.166,0,1,1,.331,0,21.949,21.949,0,0,1,.2,3.022m4.778-2.416a23.342,23.342,0,0,1-.185,3.024.158.158,0,1,1-.315,0,24.532,24.532,0,0,1,0-6.046.158.158,0,1,1,.315,0,23.317,23.317,0,0,1,.185,3.022m4.322-3.156a24.571,24.571,0,0,1-.176,3.022.15.15,0,1,1-.3,0,26,26,0,0,1,0-6.046.15.15,0,1,1,.3,0,24.6,24.6,0,0,1,.176,3.024M66.6,42.505a18.242,18.242,0,0,0,.237,3.022.2.2,0,0,0,.4,0,19.386,19.386,0,0,0,0-6.046.2.2,0,0,0-.4,0,18.248,18.248,0,0,0-.237,3.024m-5.327-.54A19.007,19.007,0,0,0,61.5,44.99a.193.193,0,0,0,.383,0,20.3,20.3,0,0,0,0-6.048.193.193,0,0,0-.383,0,19.007,19.007,0,0,0-.227,3.024M56,41.041a20.009,20.009,0,0,0,.216,3.022.184.184,0,0,0,.366,0,21.129,21.129,0,0,0,0-6.046.184.184,0,0,0-.366,0A20.031,20.031,0,0,0,56,41.041M50.816,39.69a20.949,20.949,0,0,0,.205,3.022.175.175,0,0,0,.35,0,22.367,22.367,0,0,0,0-6.046.175.175,0,0,0-.35,0,20.956,20.956,0,0,0-.205,3.024m-5.029-1.841a21.956,21.956,0,0,0,.2,3.024.166.166,0,1,0,.331,0,23.4,23.4,0,0,0,0-6.046.166.166,0,1,0-.331,0,21.949,21.949,0,0,0-.2,3.022m-4.778-2.416a23.345,23.345,0,0,0,.185,3.024.175.175,0,0,0,.158.167.173.173,0,0,0,.157-.167,24.531,24.531,0,0,0,0-6.046.171.171,0,0,0-.157-.167.174.174,0,0,0-.158.167,23.32,23.32,0,0,0-.185,3.022m-4.321-3.156a24.594,24.594,0,0,0,.175,3.022.15.15,0,1,0,.3,0,26,26,0,0,0,0-6.046.15.15,0,1,0-.3,0,24.62,24.62,0,0,0-.175,3.024M71.954,42.688A17.539,17.539,0,0,0,72.2,45.71a.214.214,0,0,0,.418,0,18.678,18.678,0,0,0,0-6.046.214.214,0,0,0-.418,0,17.557,17.557,0,0,0-.246,3.024M33.27,28.172a26.023,26.023,0,0,0,.166,3.024c.011.1.07.167.14.167s.129-.07.141-.167a27.658,27.658,0,0,0,0-6.046c-.012-.1-.071-.167-.141-.167s-.129.068-.14.167a25.976,25.976,0,0,0-.166,3.022m78.278,0a26.023,26.023,0,0,1-.166,3.024c-.011.1-.07.167-.14.167s-.129-.07-.14-.167a27.66,27.66,0,0,1,0-6.046c.011-.1.07-.167.14-.167s.129.068.14.167a25.976,25.976,0,0,1,.166,3.022" transform="translate(-33.27 -24.981)" fill="#663d1f" fill-rule="evenodd"/></g></g><path d="M32.612,27.608c0,11.308,17.831,20.474,39.825,20.474s39.824-9.166,39.824-20.474S94.431,7.134,72.437,7.134,32.612,16.3,32.612,27.608" transform="translate(16.969 3.713)" fill="#ffee76" fill-rule="evenodd"/></g></g><g transform="translate(49.247 10.563)"><g clip-path="url(#dv)"><rect width="80.948" height="40.5" transform="translate(0 -0.001)" fill="url(#dw)"/></g></g><g transform="translate(0 -0.001)"><g clip-path="url(#d)"><path d="M34.906,25.5c-.261,9.983,15.936,18.5,36.18,19.035s36.865-7.133,37.127-17.115S92.276,8.918,72.033,8.388,35.168,15.52,34.906,25.5" transform="translate(18.162 4.352)" fill="#ffee76" fill-rule="evenodd"/></g></g><g transform="translate(53.323 12.604)"><g clip-path="url(#dy)"><rect width="72.796" height="36.421" transform="translate(0 -0.001)" fill="url(#dz)"/></g></g><g transform="translate(53.323 12.604)"><g clip-path="url(#ea)"><rect width="72.796" height="19.336" transform="translate(0 -0.001)" fill="url(#eb)"/></g></g><g transform="translate(0 -0.001)"><g clip-path="url(#d)"><g transform="translate(53.554 12.494)" style="mix-blend-mode:multiply;isolation:isolate"><g clip-path="url(#x)"><g transform="translate(0 0)"><g clip-path="url(#ee)"><rect width="71.972" height="36.009" transform="translate(0 -0.001)" fill="url(#ef)"/></g></g></g></g></g></g><g transform="translate(55.29 20.307)"><g clip-path="url(#eg)"><rect width="80.949" height="28.99" transform="translate(-0.002 -0.001)" fill="url(#eh)"/></g></g><g transform="translate(0 -0.001)"><g clip-path="url(#d)"><g transform="translate(74.552 37.5)" opacity="0.5" style="mix-blend-mode:screen;isolation:isolate"><g clip-path="url(#e)"><g transform="translate(0 0.001)"><g clip-path="url(#ek)"><rect width="31.839" height="11.796" transform="translate(0 -0.001)" fill="url(#el)"/></g></g></g></g><g transform="translate(123.346 20.422)" opacity="0.5" style="mix-blend-mode:multiply;isolation:isolate"><g clip-path="url(#h)"><g transform="translate(0 0)"><g clip-path="url(#en)"><rect width="12.893" height="23.466" transform="translate(0 -0.001)" fill="url(#eo)"/></g></g></g></g><g transform="translate(55.29 20.307)" opacity="0.5" style="mix-blend-mode:multiply;isolation:isolate"><g clip-path="url(#k)"><g transform="translate(0 0.001)"><g clip-path="url(#eq)"><rect width="8.31" height="21.064" transform="translate(0 -0.001)" fill="url(#er)"/></g></g></g></g><g transform="translate(78.635 38.603)" style="mix-blend-mode:screen;isolation:isolate"><g clip-path="url(#n)"><g transform="translate(0 0)"><g clip-path="url(#et)"><rect width="17.13" height="10.694" transform="translate(0 -0.001)" fill="url(#eu)"/></g></g></g></g><g transform="translate(56.625 27.417)" opacity="0.65"><g clip-path="url(#q)"><path d="M82.191,35.558a18.253,18.253,0,0,1-.236,3.022.2.2,0,0,1-.2.167.2.2,0,0,1-.2-.167,19.387,19.387,0,0,1,0-6.046.2.2,0,0,1,.2-.167.2.2,0,0,1,.2.167,18.259,18.259,0,0,1,.236,3.024m5.329-.54a19.006,19.006,0,0,1-.227,3.024.194.194,0,0,1-.383,0,20.3,20.3,0,0,1,0-6.048.193.193,0,0,1,.383,0,19.006,19.006,0,0,1,.227,3.024m5.276-.924a20.023,20.023,0,0,1-.216,3.022.192.192,0,0,1-.184.167.188.188,0,0,1-.182-.167,21.13,21.13,0,0,1,0-6.046A.188.188,0,0,1,92.4,30.9a.192.192,0,0,1,.184.167,20.029,20.029,0,0,1,.216,3.024m5.181-1.352a20.949,20.949,0,0,1-.205,3.022.175.175,0,0,1-.35,0,22.207,22.207,0,0,1,0-6.046.175.175,0,0,1,.35,0,20.956,20.956,0,0,1,.205,3.024m5.029-1.841a21.956,21.956,0,0,1-.2,3.024.166.166,0,1,1-.331,0,23.4,23.4,0,0,1,0-6.046.166.166,0,1,1,.331,0,21.949,21.949,0,0,1,.2,3.022m4.778-2.416a23.342,23.342,0,0,1-.185,3.024.158.158,0,1,1-.316,0,24.743,24.743,0,0,1,0-6.048.158.158,0,1,1,.316,0,23.342,23.342,0,0,1,.185,3.024m4.321-3.156a24.613,24.613,0,0,1-.175,3.022.15.15,0,1,1-.3,0,26,26,0,0,1,0-6.046.15.15,0,1,1,.3,0,24.62,24.62,0,0,1,.175,3.024M70.575,35.558a18.241,18.241,0,0,0,.237,3.022.2.2,0,0,0,.4,0,19.387,19.387,0,0,0,0-6.046.2.2,0,0,0-.4,0,18.247,18.247,0,0,0-.237,3.024m-5.327-.54a19.2,19.2,0,0,0,.225,3.024.194.194,0,0,0,.385,0,20.431,20.431,0,0,0,0-6.048.194.194,0,0,0-.385,0,19.2,19.2,0,0,0-.225,3.024m-5.276-.924a20.025,20.025,0,0,0,.216,3.022.184.184,0,0,0,.366,0,21.275,21.275,0,0,0,0-6.046.184.184,0,0,0-.366,0,20.031,20.031,0,0,0-.216,3.024M54.79,32.742A20.933,20.933,0,0,0,55,35.765a.175.175,0,0,0,.35,0,22.369,22.369,0,0,0,0-6.046.175.175,0,0,0-.35,0,20.939,20.939,0,0,0-.207,3.024M49.762,30.9a22.214,22.214,0,0,0,.195,3.024.166.166,0,1,0,.333,0,23.4,23.4,0,0,0,0-6.046.166.166,0,1,0-.333,0,22.207,22.207,0,0,0-.195,3.022m-4.778-2.416a23.079,23.079,0,0,0,.185,3.024.158.158,0,1,0,.315,0,24.744,24.744,0,0,0,0-6.048.158.158,0,1,0-.315,0,23.079,23.079,0,0,0-.185,3.024m-4.322-3.156a24.592,24.592,0,0,0,.176,3.022.15.15,0,1,0,.3,0,26.226,26.226,0,0,0,0-6.046.15.15,0,1,0-.3,0,24.6,24.6,0,0,0-.176,3.024M75.929,35.74a17.553,17.553,0,0,0,.246,3.022.214.214,0,0,0,.418,0,18.678,18.678,0,0,0,0-6.046.214.214,0,0,0-.418,0,17.558,17.558,0,0,0-.246,3.024M37.245,21.224a26.023,26.023,0,0,0,.166,3.024c.011.1.07.167.14.167s.129-.07.14-.167a27.672,27.672,0,0,0,0-6.048c-.011-.1-.07-.167-.14-.167s-.129.07-.14.167a26.023,26.023,0,0,0-.166,3.024m78.278,0a26.025,26.025,0,0,1-.166,3.024c-.012.1-.07.167-.14.167s-.129-.07-.141-.167a27.929,27.929,0,0,1,0-6.048c.012-.1.071-.167.141-.167s.128.07.14.167a26.025,26.025,0,0,1,.166,3.024" transform="translate(-37.245 -18.033)" fill="#663d1f" fill-rule="evenodd"/></g></g><path d="M36.587,20.66c0,11.308,17.831,20.474,39.825,20.474s39.824-9.166,39.824-20.474S98.406.186,76.412.186,36.587,9.352,36.587,20.66" transform="translate(19.038 0.097)" fill="#ffee76" fill-rule="evenodd"/></g></g><g transform="translate(55.29 0.002)"><g clip-path="url(#ew)"><rect width="80.948" height="40.5" transform="translate(0 -0.001)" fill="url(#ex)"/></g></g><g transform="translate(0 -0.001)"><g clip-path="url(#d)"><path d="M38.881,18.554c-.261,9.983,15.936,18.5,36.18,19.035s36.865-7.133,37.127-17.114S96.251,1.97,76.008,1.44,39.143,8.572,38.881,18.554" transform="translate(20.23 0.736)" fill="#ffee76" fill-rule="evenodd"/></g></g><g transform="translate(59.366 2.04)"><g clip-path="url(#ez)"><rect width="72.794" height="36.421" transform="translate(0 -0.001)" fill="url(#fa)"/></g></g><g transform="translate(59.366 2.04)"><g clip-path="url(#fb)"><rect width="72.794" height="19.336" transform="translate(0 -0.001)" fill="url(#fc)"/></g></g><g transform="translate(0 -0.001)"><g clip-path="url(#d)"><g transform="translate(59.435 4.289)" style="mix-blend-mode:screen;isolation:isolate"><g clip-path="url(#fe)"><g transform="translate(0 0.001)"><g clip-path="url(#ff)"><rect width="71.005" height="22.633" transform="translate(0 -0.001)" fill="url(#fg)"/></g></g></g></g><g transform="translate(55.29 0.001)" style="mix-blend-mode:screen;isolation:isolate"><g transform="translate(0 0)"><g clip-path="url(#fh)"><g transform="translate(0 0)"><g clip-path="url(#fi)"><rect width="80.621" height="28.839" transform="translate(0 -0.001)" fill="url(#fj)"/></g></g></g></g></g></g></g><g transform="translate(55.271 113.215)"><g clip-path="url(#fk)"><rect width="80.949" height="28.99" transform="translate(0 -0.001)" fill="url(#fl)"/></g></g><g transform="translate(0 -0.001)"><g clip-path="url(#d)"><g transform="translate(74.532 130.409)" opacity="0.5" style="mix-blend-mode:screen;isolation:isolate"><g clip-path="url(#e)"><g transform="translate(0 0.001)"><g clip-path="url(#fo)"><rect width="31.839" height="11.796" transform="translate(0 -0.001)" fill="url(#fp)"/></g></g></g></g><g transform="translate(123.326 113.33)" opacity="0.5" style="mix-blend-mode:multiply;isolation:isolate"><g clip-path="url(#h)"><g transform="translate(-0.001 0.001)"><g clip-path="url(#fr)"><rect width="12.894" height="23.465" transform="translate(0 -0.001)" fill="url(#fs)"/></g></g></g></g><g transform="translate(55.271 113.215)" opacity="0.5" style="mix-blend-mode:multiply;isolation:isolate"><g clip-path="url(#k)"><g transform="translate(0 0.001)"><g clip-path="url(#fu)"><rect width="8.31" height="21.064" transform="translate(0 -0.001)" fill="url(#fv)"/></g></g></g></g><g transform="translate(78.615 131.512)" style="mix-blend-mode:screen;isolation:isolate"><g clip-path="url(#n)"><g transform="translate(0 0.001)"><g clip-path="url(#fx)"><rect width="17.13" height="10.693" transform="translate(0 -0.001)" fill="url(#fy)"/></g></g></g></g><g transform="translate(56.606 120.326)" opacity="0.65"><g clip-path="url(#q)"><path d="M82.178,96.668a18.254,18.254,0,0,1-.236,3.022.2.2,0,0,1-.2.167.2.2,0,0,1-.2-.167,19.387,19.387,0,0,1,0-6.046.2.2,0,0,1,.2-.167.2.2,0,0,1,.2.167,18.26,18.26,0,0,1,.236,3.024m5.329-.54a18.986,18.986,0,0,1-.227,3.022.193.193,0,0,1-.383,0,20.287,20.287,0,0,1,0-6.046.193.193,0,0,1,.383,0,19.006,19.006,0,0,1,.227,3.024m5.276-.924a20.024,20.024,0,0,1-.216,3.022.19.19,0,0,1-.184.167.188.188,0,0,1-.182-.167,21.129,21.129,0,0,1,0-6.046.188.188,0,0,1,.182-.167.19.19,0,0,1,.184.167,20.029,20.029,0,0,1,.216,3.024m5.181-1.352a20.951,20.951,0,0,1-.205,3.022.175.175,0,0,1-.35,0,22.206,22.206,0,0,1,0-6.046.175.175,0,0,1,.35,0,20.957,20.957,0,0,1,.205,3.024m5.029-1.841a21.954,21.954,0,0,1-.2,3.024.166.166,0,1,1-.331,0,23.4,23.4,0,0,1,0-6.046.166.166,0,1,1,.331,0,21.931,21.931,0,0,1,.2,3.022m4.778-2.416a23.348,23.348,0,0,1-.185,3.024.158.158,0,1,1-.316,0,24.742,24.742,0,0,1,0-6.048.158.158,0,1,1,.316,0,23.348,23.348,0,0,1,.185,3.024m4.322-3.156a24.594,24.594,0,0,1-.176,3.022.15.15,0,1,1-.3,0,26,26,0,0,1,0-6.046.15.15,0,1,1,.3,0,24.6,24.6,0,0,1,.176,3.024M70.562,96.668A18.243,18.243,0,0,0,70.8,99.69a.2.2,0,0,0,.4,0,19.387,19.387,0,0,0,0-6.046.2.2,0,0,0-.4,0,18.249,18.249,0,0,0-.237,3.024m-5.327-.54a19.179,19.179,0,0,0,.225,3.022.194.194,0,0,0,.385,0,20.286,20.286,0,0,0,0-6.046.194.194,0,0,0-.385,0,19.2,19.2,0,0,0-.225,3.024M59.96,95.2a20.025,20.025,0,0,0,.216,3.022.184.184,0,0,0,.366,0,21.275,21.275,0,0,0,0-6.046.184.184,0,0,0-.366,0A20.031,20.031,0,0,0,59.96,95.2m-5.181-1.352a20.948,20.948,0,0,0,.205,3.022.175.175,0,0,0,.35,0,22.368,22.368,0,0,0,0-6.046.175.175,0,0,0-.35,0,20.954,20.954,0,0,0-.205,3.024m-5.029-1.841a21.955,21.955,0,0,0,.2,3.024.177.177,0,0,0,.166.167.179.179,0,0,0,.166-.167,23.4,23.4,0,0,0,0-6.046.179.179,0,0,0-.166-.167.177.177,0,0,0-.166.167,21.932,21.932,0,0,0-.2,3.022M44.971,89.6a23.344,23.344,0,0,0,.185,3.024.158.158,0,1,0,.315,0,24.544,24.544,0,0,0,0-6.048.158.158,0,1,0-.315,0,23.343,23.343,0,0,0-.185,3.024m-4.322-3.156a24.593,24.593,0,0,0,.176,3.022.15.15,0,1,0,.3,0,26,26,0,0,0,0-6.046.15.15,0,1,0-.3,0,24.6,24.6,0,0,0-.176,3.024M75.916,96.85a17.552,17.552,0,0,0,.246,3.022.214.214,0,0,0,.418,0,18.677,18.677,0,0,0,0-6.046.214.214,0,0,0-.418,0,17.558,17.558,0,0,0-.246,3.024M37.232,82.334a25.976,25.976,0,0,0,.166,3.022c.011.1.07.167.14.167s.129-.068.14-.167a27.66,27.66,0,0,0,0-6.046c-.011-.1-.07-.167-.14-.167s-.129.07-.14.167a26.024,26.024,0,0,0-.166,3.024m78.278,0a25.98,25.98,0,0,1-.166,3.022c-.012.1-.07.167-.14.167s-.129-.068-.141-.167a27.66,27.66,0,0,1,0-6.046c.012-.1.071-.167.141-.167s.128.07.14.167a26.027,26.027,0,0,1,.166,3.024" transform="translate(-37.232 -79.144)" fill="#663d1f" fill-rule="evenodd"/></g></g><path d="M36.575,81.771c0,11.308,17.829,20.474,39.824,20.474s39.825-9.166,39.825-20.474S98.392,61.3,76.4,61.3,36.575,70.463,36.575,81.771" transform="translate(19.032 31.896)" fill="#ffee76" fill-rule="evenodd"/></g></g><g transform="translate(55.271 92.91)"><g clip-path="url(#ga)"><rect width="80.949" height="40.5" transform="translate(0 -0.001)" fill="url(#gb)"/></g></g><g transform="translate(0 -0.001)"><g clip-path="url(#d)"><path d="M38.868,79.664c-.262,9.983,15.938,18.5,36.18,19.035s36.865-7.132,37.127-17.115S96.238,63.08,75.995,62.55,39.13,69.682,38.868,79.664" transform="translate(20.223 32.534)" fill="#ffee76" fill-rule="evenodd"/></g></g><g transform="translate(59.348 94.95)"><g clip-path="url(#gd)"><rect width="72.794" height="36.42" transform="translate(0 -0.001)" fill="url(#ge)"/></g></g><g transform="translate(59.348 94.95)"><g clip-path="url(#gf)"><rect width="72.794" height="19.334" transform="translate(0 -0.001)" fill="url(#gg)"/></g></g><g transform="translate(0 -0.001)"><g clip-path="url(#d)"><g transform="translate(59.416 97.198)" style="mix-blend-mode:screen;isolation:isolate"><g clip-path="url(#fe)"><g transform="translate(-0.001 0)"><g clip-path="url(#gj)"><rect width="71.005" height="22.635" transform="translate(0 -0.001)" fill="url(#gk)"/></g></g></g></g><g transform="translate(55.271 92.909)" style="mix-blend-mode:screen;isolation:isolate"><g clip-path="url(#fh)"><g transform="translate(0 0.001)"><g clip-path="url(#gm)"><rect width="80.621" height="28.838" transform="translate(0 -0.001)" fill="url(#gn)"/></g></g></g></g></g></g><g transform="translate(6.384 62.834)"><g clip-path="url(#go)"><rect width="101.71" height="101.71" transform="translate(-35.96 35.959) rotate(-45)" fill="url(#gp)"/></g></g><g transform="translate(0 56.45)"><g clip-path="url(#gq)"><rect width="108.126" height="108.126" transform="translate(-41.747 37.053) rotate(-45)" fill="url(#gr)"/></g></g><g transform="translate(0 -0.001)"><g clip-path="url(#d)"><g transform="translate(7.354 56.45)" style="mix-blend-mode:screen;isolation:isolate"><g clip-path="url(#gt)"><g transform="translate(0 0)"><g clip-path="url(#gu)"><rect width="84.171" height="84.171" transform="translate(-26.803 22.11) rotate(-45)" fill="url(#gv)"/></g></g></g></g><path d="M58.566,44.381c10.188,9.668,7.219,29.338-6.633,43.933S18.594,106.907,8.406,97.238,1.189,67.9,15.04,53.3s33.338-18.591,43.526-8.923" transform="translate(1.223 20.349)" fill="#ffee76" fill-rule="evenodd"/></g></g><g transform="translate(3.496 59.946)"><g clip-path="url(#gw)"><rect width="97.236" height="97.236" transform="translate(-37.543 33.322) rotate(-45)" fill="url(#gx)"/></g></g><g transform="translate(3.496 59.946)"><g clip-path="url(#gy)"><rect width="85.972" height="85.972" transform="translate(-34.186 27.464) rotate(-45)" fill="url(#gz)"/></g></g><g transform="translate(0 -0.001)"><g clip-path="url(#d)"><g transform="translate(13.588 62.234)" style="mix-blend-mode:screen;isolation:isolate"><g clip-path="url(#hb)"><g transform="translate(0 0)"><g clip-path="url(#hc)"><rect width="65.727" height="65.727" transform="translate(-20.39 19.801) rotate(-45)" fill="url(#hd)"/></g></g></g></g><g transform="translate(46.63 93.396)" opacity="0.5" style="mix-blend-mode:screen;isolation:isolate"><g clip-path="url(#he)"><g transform="translate(-0.001 0)"><g clip-path="url(#hf)"><rect width="37.306" height="37.306" transform="translate(-14.319 14.318) rotate(-45)" fill="url(#hg)"/></g></g></g></g><g transform="translate(6.552 119.65)" opacity="0.5" style="mix-blend-mode:multiply;isolation:isolate"><g clip-path="url(#hh)"><g transform="translate(0 0.001)"><g clip-path="url(#hi)"><rect width="27.753" height="27.753" transform="translate(-5.786 5.786) rotate(-45)" fill="url(#hj)"/></g></g></g></g><g transform="translate(63.034 62.833)" opacity="0.4" style="mix-blend-mode:multiply;isolation:isolate"><g clip-path="url(#hk)"><g transform="translate(0 0)"><g clip-path="url(#hl)"><rect width="23.355" height="23.355" transform="translate(-11.086 11.086) rotate(-45)" fill="url(#hm)"/></g></g></g></g><g transform="translate(54.764 97.346)" style="mix-blend-mode:screen;isolation:isolate"><g clip-path="url(#hn)"><g transform="translate(0 0)"><g clip-path="url(#ho)"><rect width="22.731" height="22.731" transform="translate(-8.97 8.969) rotate(-45)" fill="url(#hp)"/></g></g></g></g><g transform="translate(13.368 69.817)" opacity="0.65"><g clip-path="url(#hq)"><path d="M56.38,84.788A13.131,13.131,0,0,1,58,86.745a.21.21,0,0,1-.281.28,13.866,13.866,0,0,1-3.582-3.582.211.211,0,0,1,.281-.28,13.039,13.039,0,0,1,1.957,1.625m3.38-4.617a13.366,13.366,0,0,1,1.622,1.938.184.184,0,0,1-.035.233.186.186,0,0,1-.233.036,14.286,14.286,0,0,1-3.561-3.561.184.184,0,0,1,.035-.233.186.186,0,0,1,.233-.036,13.464,13.464,0,0,1,1.938,1.622m2.861-4.955a13.827,13.827,0,0,1,1.619,1.92.188.188,0,0,1-.257.257,14.82,14.82,0,0,1-3.539-3.539A.188.188,0,0,1,60.7,73.6a13.828,13.828,0,0,1,1.92,1.619m2.264-5.256a14.3,14.3,0,0,1,1.615,1.9.172.172,0,0,1-.024.22.17.17,0,0,1-.219.024,15.251,15.251,0,0,1-3.518-3.518.17.17,0,0,1,.024-.219.172.172,0,0,1,.22-.024,14.3,14.3,0,0,1,1.9,1.615m1.549-5.51a14.974,14.974,0,0,1,1.612,1.885.167.167,0,0,1-.233.233,14.744,14.744,0,0,1-1.885-1.612,14.993,14.993,0,0,1-1.612-1.885.167.167,0,0,1,.02-.213.164.164,0,0,1,.213-.018,14.846,14.846,0,0,1,1.885,1.61m.708-5.677a15.337,15.337,0,0,1,1.607,1.867.157.157,0,0,1-.22.22,16.464,16.464,0,0,1-3.474-3.476.157.157,0,0,1,.22-.22,15.612,15.612,0,0,1,1.867,1.609m-.324-5.712a16.152,16.152,0,0,1,1.6,1.849.152.152,0,0,1-.009.2.154.154,0,0,1-.2.009,16.442,16.442,0,0,1-1.85-1.6,16.264,16.264,0,0,1-1.6-1.85.152.152,0,0,1,.008-.2.154.154,0,0,1,.2-.008,16,16,0,0,1,1.849,1.6M47.659,93.507a13.054,13.054,0,0,0,1.957,1.627.21.21,0,0,0,.28-.281,13.8,13.8,0,0,0-3.582-3.582.21.21,0,0,0-.28.28,12.889,12.889,0,0,0,1.625,1.957m-4.617,3.381a13.553,13.553,0,0,0,1.94,1.622.2.2,0,0,0,.268-.268,14.219,14.219,0,0,0-3.561-3.561.2.2,0,0,0-.268.268,13.349,13.349,0,0,0,1.621,1.938M38.087,99.75a13.828,13.828,0,0,0,1.92,1.619.188.188,0,0,0,.257-.257,14.746,14.746,0,0,0-3.539-3.539.188.188,0,0,0-.257.257,13.828,13.828,0,0,0,1.619,1.92m-5.256,2.264a14.306,14.306,0,0,0,1.9,1.615.17.17,0,0,0,.219-.024.172.172,0,0,0,.024-.22,15.317,15.317,0,0,0-3.517-3.517.172.172,0,0,0-.22.024.17.17,0,0,0-.024.219,14.422,14.422,0,0,0,1.615,1.9m-5.508,1.549a14.986,14.986,0,0,0,1.884,1.612.168.168,0,0,0,.214-.02.164.164,0,0,0,.018-.213,14.846,14.846,0,0,0-1.61-1.885,14.975,14.975,0,0,0-1.885-1.612.167.167,0,0,0-.233.233,14.742,14.742,0,0,0,1.612,1.885m-5.678.708a15.337,15.337,0,0,0,1.867,1.607.157.157,0,0,0,.22-.22,15.452,15.452,0,0,0-1.607-1.867,15.569,15.569,0,0,0-1.867-1.607.159.159,0,0,0-.207.014.161.161,0,0,0-.015.207,15.731,15.731,0,0,0,1.609,1.867m-5.712-.324a16.156,16.156,0,0,0,1.85,1.6.148.148,0,0,0,.208-.208,16.311,16.311,0,0,0-1.6-1.85,16.308,16.308,0,0,0-1.85-1.6.152.152,0,0,0-.2.009.15.15,0,0,0-.009.2,16.158,16.158,0,0,0,1.6,1.85M10.427,102.4a17.067,17.067,0,0,0,1.832,1.6.139.139,0,0,0,.2-.2,17.088,17.088,0,0,0-1.6-1.832,16.9,16.9,0,0,0-1.832-1.6.144.144,0,0,0-.193,0,.147.147,0,0,0,0,.193,17.066,17.066,0,0,0,1.6,1.832M52.544,89.036a12.587,12.587,0,0,1,1.63,1.973.2.2,0,0,1-.047.246.2.2,0,0,1-.245.046,13.422,13.422,0,0,1-3.6-3.6.223.223,0,0,1,.293-.293,12.675,12.675,0,0,1,1.973,1.63m12.724-41.48a17.092,17.092,0,0,1,1.6,1.832.139.139,0,0,1-.2.2,17.979,17.979,0,0,1-3.431-3.431.139.139,0,0,1,.2-.2,17.091,17.091,0,0,1,1.832,1.6" transform="translate(-8.793 -45.922)" fill="#663d1f" fill-rule="evenodd"/></g></g></g></g></g></svg>