<svg xmlns="http://www.w3.org/2000/svg" width="15.911" height="14.399" viewBox="0 0 15.911 14.399"><path d="M15.32,53.127H13.148V50.82H15.32a.656.656,0,0,0,0-1.306H13.148v-3.2a1.664,1.664,0,0,0-.248-1.019A.761.761,0,0,0,12.253,45a.73.73,0,0,0-.624.289,1.684,1.684,0,0,0-.245,1.021v3.2H7.3L5.561,46.608c-.149-.259-.288-.5-.424-.735a3.253,3.253,0,0,0-.354-.509,1.14,1.14,0,0,0-.346-.268,1.051,1.051,0,0,0-.473-.1,1.115,1.115,0,0,0-.668.222,1.2,1.2,0,0,0-.437.559,3.143,3.143,0,0,0-.117.979v2.751H.591a.656.656,0,0,0,0,1.306h2.15v2.308H.591a.656.656,0,0,0,0,1.306h2.15v3.656A1.626,1.626,0,0,0,3,59.1a.765.765,0,0,0,.648.3.778.778,0,0,0,.643-.3,1.587,1.587,0,0,0,.261-1.008V54.433h3.7l2,3.391c.139.224.283.45.426.672a3.1,3.1,0,0,0,.419.521,1.289,1.289,0,0,0,.427.289,1.441,1.441,0,0,0,.533.092c.541,0,1.1-.183,1.1-1.541V54.433H15.32a.656.656,0,0,0,0-1.306ZM11.384,50.82v2.307H9.459L8.079,50.82ZM4.551,48.168l.794,1.345H4.551Zm0,4.959V50.82H6.116l1.362,2.307Zm6.833,3.221L10.24,54.433h1.144v1.914Z" transform="translate(0 -45.001)" fill="#fff"/></svg>