<svg xmlns="http://www.w3.org/2000/svg" width="18" height="18" viewBox="0 0 18 18"><g transform="translate(-236 -572)"><g transform="translate(236 572)"><path d="M0,2.189H.5a.957.957,0,0,0,.914-.983c0-.668-.238-.8-.63-.937L.008,0V2.189Z" transform="translate(9.543 9.771)"/><path d="M7.442,0a7.464,7.464,0,1,0,7.486,7.442A7.467,7.467,0,0,0,7.442,0ZM9.151,7.539a1.868,1.868,0,0,1,1.366,1.971,2.043,2.043,0,0,1-2.008,2.075H8.024v.433a.56.56,0,1,1-1.12,0v-.433H6.636a2.26,2.26,0,0,1-2.217-2.3.56.56,0,1,1,1.12,0,1.143,1.143,0,0,0,1.1,1.179H6.9V7.942l-1.127-.4A1.868,1.868,0,0,1,4.411,5.568,2.043,2.043,0,0,1,6.419,3.493H6.9V3.06a.56.56,0,0,1,1.12,0v.433h.269a2.26,2.26,0,0,1,2.217,2.3.56.56,0,1,1-1.12,0,1.143,1.143,0,0,0-1.1-1.179H8.024V7.136Z" transform="translate(1.536 1.459)"/><path d="M0,.991c0,.668.238.8.63.937l.776.269V0h-.5A.953.953,0,0,0,0,.991Z" transform="translate(7.051 6.04)"/><path d="M0,0H18V18H0Z" fill="none" opacity="0"/></g></g></svg>