<svg width="32" height="32" viewBox="0 0 32 32" fill="none" xmlns="http://www.w3.org/2000/svg">
<path d="M4 16H16V18H4V16ZM2 11H12V13H2V11Z" fill="black"/>
<path d="M29.9188 16.606L26.9188 9.606C26.8419 9.42608 26.7137 9.27273 26.5503 9.165C26.387 9.05727 26.1955 8.99989 25.9998 9H22.9998V7C22.9998 6.73478 22.8945 6.48043 22.707 6.29289C22.5194 6.10536 22.2651 6 21.9998 6H5.99985V8H20.9998V20.556C20.5442 20.8206 20.1454 21.1728 19.8265 21.5922C19.5076 22.0117 19.2749 22.4902 19.1418 23H12.8578C12.6145 22.0573 12.0356 21.2358 11.2298 20.6894C10.4241 20.143 9.44666 19.9092 8.48085 20.0319C7.51503 20.1546 6.62711 20.6253 5.98352 21.3558C5.33994 22.0863 4.98486 23.0264 4.98486 24C4.98486 24.9736 5.33994 25.9137 5.98352 26.6442C6.62711 27.3747 7.51503 27.8454 8.48085 27.9681C9.44666 28.0908 10.4241 27.857 11.2298 27.3106C12.0356 26.7642 12.6145 25.9427 12.8578 25H19.1418C19.3594 25.8582 19.8569 26.6194 20.5556 27.1632C21.2544 27.7069 22.1145 28.0021 22.9998 28.0021C23.8852 28.0021 24.7453 27.7069 25.4441 27.1632C26.1428 26.6194 26.6403 25.8582 26.8578 25H28.9998C29.2651 25 29.5194 24.8946 29.707 24.7071C29.8945 24.5196 29.9998 24.2652 29.9998 24V17C29.9999 16.8645 29.9723 16.7305 29.9188 16.606ZM8.99985 26C8.60428 26 8.2176 25.8827 7.88871 25.6629C7.55981 25.4432 7.30346 25.1308 7.15209 24.7654C7.00071 24.3999 6.96111 23.9978 7.03828 23.6098C7.11545 23.2219 7.30593 22.8655 7.58563 22.5858C7.86534 22.3061 8.2217 22.1156 8.60967 22.0384C8.99763 21.9613 9.39976 22.0009 9.76521 22.1522C10.1307 22.3036 10.443 22.56 10.6628 22.8889C10.8825 23.2178 10.9998 23.6044 10.9998 24C10.9993 24.5303 10.7884 25.0387 10.4135 25.4136C10.0385 25.7886 9.53012 25.9995 8.99985 26ZM22.9998 11H25.3398L27.4838 16H22.9998V11ZM22.9998 26C22.6043 26 22.2176 25.8827 21.8887 25.6629C21.5598 25.4432 21.3035 25.1308 21.1521 24.7654C21.0007 24.3999 20.9611 23.9978 21.0383 23.6098C21.1154 23.2219 21.3059 22.8655 21.5856 22.5858C21.8653 22.3061 22.2217 22.1156 22.6097 22.0384C22.9976 21.9613 23.3998 22.0009 23.7652 22.1522C24.1307 22.3036 24.443 22.56 24.6628 22.8889C24.8825 23.2178 24.9998 23.6044 24.9998 24C24.9993 24.5303 24.7884 25.0387 24.4135 25.4136C24.0385 25.7886 23.5301 25.9995 22.9998 26ZM27.9998 23H26.8578C26.6376 22.1434 26.1393 21.3842 25.4411 20.8413C24.7429 20.2983 23.8843 20.0025 22.9998 20V18H27.9998V23Z" fill="black"/>
</svg>
