<svg xmlns="http://www.w3.org/2000/svg" width="16.508" height="16.925" viewBox="0 0 16.508 16.925"><g transform="translate(-1.905 -1.698)"><path d="M15.873,1.27H.635A.64.64,0,0,1,0,.635.64.64,0,0,1,.635,0H15.873a.64.64,0,0,1,.635.635A.64.64,0,0,1,15.873,1.27Z" transform="translate(1.905 17.354)" fill="#0a0a0a"/><path d="M6.057,1.248c-1.642-1.642-3.251-1.685-4.935,0L.1,2.272a.353.353,0,0,0-.085.339A6.881,6.881,0,0,0,4.694,7.292a.425.425,0,0,0,.1.017.339.339,0,0,0,.245-.1L6.057,6.183A3.5,3.5,0,0,0,7.3,3.736,3.485,3.485,0,0,0,6.057,1.248Z" transform="translate(10.044 1.698)" fill="#0a0a0a"/><path d="M10.257,4.639c-.245-.119-.483-.237-.711-.372-.186-.11-.364-.229-.542-.356a5.111,5.111,0,0,1-.474-.364,1.033,1.033,0,0,1-.144-.127,7.159,7.159,0,0,1-.872-.88,1.031,1.031,0,0,1-.127-.152,4.924,4.924,0,0,1-.356-.466,4.648,4.648,0,0,1-.33-.5c-.135-.229-.254-.457-.372-.694C6.21.474,6.117.229,6.033,0L.716,5.316a1.019,1.019,0,0,0-.237.466L.022,9.024a1.735,1.735,0,0,0,.432,1.481,1.685,1.685,0,0,0,1.185.457,1.851,1.851,0,0,0,.3-.025l3.251-.457a.942.942,0,0,0,.466-.237l5.316-5.316C10.739,4.842,10.511,4.749,10.257,4.639Z" transform="translate(2.958 5.122)" fill="#0a0a0a"/></g></svg>