<svg xmlns="http://www.w3.org/2000/svg" width="264" height="182.001" viewBox="0 0 264 182.001"><g transform="translate(-188 -439)"><g transform="translate(188 444.26)"><path d="M1145,489.346s13.377-11.151,20.854-11.947,8.274,5.738,12.418,5.9,6.681-9.72,14.011-11.784,31.371,17.522,31.371,17.522Z" transform="translate(-989.446 -471.362)" fill="#ffbe55" opacity="0.46"/><path d="M189,650.107h66.968s-5.51-10.972-15.1-10.338c-9.59.65-10.37-11.248-22.984-10.143C205.287,630.731,189,650.107,189,650.107Z" transform="translate(-188.837 -603.841)" fill="#ffbe55" opacity="0.46"/><ellipse cx="132" cy="11" rx="132" ry="11" transform="translate(0 154.74)" fill="#212a37"/></g><g transform="translate(219.534 439)"><path d="M621.665,929.233H467.183A11.182,11.182,0,0,1,456,918.05V835.283A11.182,11.182,0,0,1,467.183,824.1H621.665a11.182,11.182,0,0,1,11.183,11.183v82.784A11.179,11.179,0,0,1,621.665,929.233Z" transform="translate(-443.972 -761.504)" fill="#ff6302"/><path d="M686.678,533.835v61.409H536V533.835A7.974,7.974,0,0,1,544.111,526H678.567A7.974,7.974,0,0,1,686.678,533.835Z" transform="translate(-510.968 -511.859)" fill="#f2f2f2"/><path d="M686.678,952v24.69a7.974,7.974,0,0,1-8.111,7.835l-62.6,22.8a13.5,13.5,0,0,1-9.249,0l-62.612-22.8A7.985,7.985,0,0,1,536,976.69V952Z" transform="translate(-510.968 -868.615)" fill="#f7f7f7"/><path d="M570.1,1332.689H529.951a1.956,1.956,0,0,1-1.951-1.95v-1.788a1.956,1.956,0,0,1,1.951-1.951H570.1a1.956,1.956,0,0,1,1.951,1.951v1.788A1.956,1.956,0,0,1,570.1,1332.689Z" transform="translate(-504.269 -1182.661)" fill="#f7f7f7"/><g transform="translate(0 64.367)"><path d="M448.643,870.467H383.951A1.956,1.956,0,0,1,382,868.516V836.951A1.956,1.956,0,0,1,383.951,835h64.692a1.956,1.956,0,0,1,1.951,1.951v31.566A1.956,1.956,0,0,1,448.643,870.467Z" transform="translate(-382 -835)" fill="#ffbe55"/><path d="M737.2,958.534l10.858,12.6V944.1Z" transform="translate(-679.464 -926.366)" fill="#ffbe55"/><path d="M484.328,873.859h-51.64a1.8,1.8,0,0,1-1.788-1.788v-.683a1.8,1.8,0,0,1,1.788-1.788h51.64a1.8,1.8,0,0,1,1.788,1.788v.683A1.793,1.793,0,0,1,484.328,873.859Z" transform="translate(-422.952 -863.976)" fill="#f7f7f7"/><path d="M484.328,925.159h-51.64a1.8,1.8,0,0,1-1.788-1.788v-.683a1.8,1.8,0,0,1,1.788-1.788h51.64a1.8,1.8,0,0,1,1.788,1.788v.683A1.793,1.793,0,0,1,484.328,925.159Z" transform="translate(-422.952 -906.938)" fill="#f7f7f7"/><path d="M460.5,976.359H432.688a1.8,1.8,0,0,1-1.788-1.788v-.683a1.8,1.8,0,0,1,1.788-1.788H460.5a1.8,1.8,0,0,1,1.788,1.788v.683A1.793,1.793,0,0,1,460.5,976.359Z" transform="translate(-422.952 -949.815)" fill="#f7f7f7"/></g><g transform="translate(69.406 0)"><circle cx="29" cy="29" r="29" transform="translate(0.06)" fill="#ff6302"/><g transform="translate(10.727 16.716)"><path d="M887.952,570.212l-11.8-10.972a3.6,3.6,0,1,1,4.893-5.283L888,560.427l19.44-17.652a3.6,3.6,0,1,1,4.844,5.331Z" transform="translate(-874.997 -541.839)" fill="#f7f7f7"/></g></g></g><g transform="translate(334.64 487.922)"><path d="M1120.577,869.516s-5.705,10.078-9.07,9.411c-4.47-.894-10.647-2.032-11.784-3.332s-3.657-3.982-4.145-3.82,1.138,2.438.975,2.926-2.926.813-4.714,1.625c-1.252.569-3.056,1.674,0,1.138,3.739-.65,1.138.813,6.827.325,2.178-.179,12.825,6.469,15.442,5.852,2.763-.65,10.728-11.7,10.728-11.7l-4.226-2.438" transform="translate(-1090.159 -848.447)" fill="#dc996c"/><g transform="translate(23.337 0)"><path d="M1286.1,1434.7c.179,2.227.309,3.982.39,4.876,1.073.13,2.162.309,3.251.358l.569-5.169C1288.912,1434.732,1287.5,1434.7,1286.1,1434.7Z" transform="translate(-1277.588 -1321.777)" fill="#efb68f"/><path d="M1242.682,1465.234s-11.183,1.739-8.55,2.845,11.329.764,11.329.764l.423-3.885c-1.089-.049-2.178-.228-3.251-.358Z" transform="translate(-1233.73 -1346.817)" fill="#ff6302"/><path d="M1284.827,1031.316l2.113-13.816h-12.191s-2.113,37.223-1.625,46c.309,5.592,1.089,15.832,1.609,22.5,1.642,0,3.283.032,4.925.065l2.259-20.627Z" transform="translate(-1266.659 -972.39)" fill="#0b4870"/><path d="M1351.7,1466.36s-8.127,2.276-8.7,4.275h12.678s-.163-1.5-.423-3.8a32.1,32.1,0,0,1-3.641-.731A2.723,2.723,0,0,0,1351.7,1466.36Z" transform="translate(-1325.239 -1348.073)" fill="#ff6302"/><path d="M1386.1,1432.644c.78,2.584,1.4,4.567,1.609,5.25a32.062,32.062,0,0,0,3.641.731c-.195-1.723-.423-3.885-.683-6.225C1389.156,1432.514,1387.628,1432.6,1386.1,1432.644Z" transform="translate(-1361.333 -1319.851)" fill="#efb68f"/><path d="M1317.486,1062.6c-.163-5.2-.325-48.6-.325-48.6l-16.661,1.544.65,6.827,2.113,5.2s3.332,28.2,5.608,37.141c1.349,5.315,3.657,13.085,5.3,18.514,1.739-.049,3.495-.13,5.218-.293C1318.559,1075.052,1317.583,1065.51,1317.486,1062.6Z" transform="translate(-1289.647 -969.459)" fill="#0b4870"/><path d="M1268.5,842.75l4.064,4.064s6.177-4.064,5.526-7.477-2.422-2.731-3.739-1.788A63.977,63.977,0,0,0,1268.5,842.75Z" transform="translate(-1262.848 -821.047)" fill="#2a94f4"/><path d="M1283.181,829.5s-3.9,2.763-5.364,5.039-2.6,11.053-2.926,13.979-1.625,12.841-1.463,13.491,17.961,2.682,19.912,1.057-.488-7.64-.488-14.141-1.544-10-1.869-12.109-2.276-7.314-5.039-7.314Z" transform="translate(-1266.964 -814.948)" fill="#2a94f4"/><path d="M1308.115,757.475s-.813,9.265,2.926,9.753v2.6a7.923,7.923,0,0,0,4.226.016l1.138-11.232a29.073,29.073,0,0,0-2.276-2.113C1313.967,756.5,1308.115,757.475,1308.115,757.475Z" transform="translate(-1295.962 -753.814)" fill="#dc996c"/><path d="M1306.883,747.538h-.65s.65-2.6-.163-2.926-4.714,2.438-6.664.325.163-3.739,1.3-4.389,5.689-1.138,6.5.813c0,0,.325-.325,1.138.163s1.3,9.59-1.463,10.89l.162-3.251a2.194,2.194,0,0,0,.488-2.438C1307.208,745.75,1306.883,747.538,1306.883,747.538Z" transform="translate(-1288.065 -739.976)" fill="#0b4870"/><path d="M1374.5,881.211s1.658,10.647,2.844,17.343c.488,2.763.91,16.661,1.219,20.155a30.27,30.27,0,0,0,.325,4c.325,2.178.488-1.089.488-1.463,0-.358.228,1.69.65,3.82.325,1.642,1.138,3.088,1.3.553.162-2.552.162-7.1-.325-8.55s.488-11.281,0-19.473-1.869-16.6-1.869-16.6Z" transform="translate(-1351.619 -858.078)" fill="#dc996c"/><path d="M1366.406,851.42s-1.788-5.852,0-6.989,5.689,2.6,6.177,6.339Z" transform="translate(-1344.175 -827.278)" fill="#2a94f4"/></g></g><g transform="translate(208.773 548.847)"><g transform="translate(0 0)" opacity="0.5"><path d="M326.169,1146.886c-5.591-.341-10.338-5.136-10.37-9.167-.033-3.332,3.17-4.194,3.267-8.4.1-3.625-2.259-4.437-1.853-7.526.423-3.251,3.592-6.973,7.428-6.989,4.389-.016,7.379,4.909,7.64,8.842.179,2.682-1.463,3.04-1.414,5.575.1,5.153,6.534,6.632,6.437,10.484C337.222,1143.212,331.679,1147.227,326.169,1146.886Z" transform="translate(-315.799 -1114.8)" fill="#ff6302"/></g><g transform="translate(9.997 5.445)"><rect width="0.325" height="29.372" fill="#f7f7f7"/></g><g transform="translate(7.022 11.264)"><path d="M362.1,1188.472c-2.714-.179-3.088-4.177-3.1-4.34l.325-.032c0,.032.374,3.885,2.812,4.047Z" transform="translate(-359 -1184.1)" fill="#f7f7f7"/></g><g transform="translate(4.89 34.589)"><path d="M347.2,1327.6h7.786a1.334,1.334,0,0,1,1.333,1.4l-1.057,19.652A1.311,1.311,0,0,1,354,1349.9l-5.673.228a1.324,1.324,0,0,1-1.382-1.252L345.886,1329A1.311,1.311,0,0,1,347.2,1327.6Z" transform="translate(-345.883 -1327.6)" fill="#ff6302"/></g><g transform="translate(7.9 22.772)"><path d="M366.627,1258.021c-1.951-.13-2.211-2.958-2.227-3.088l.325-.033c0,.033.26,2.682,1.918,2.8Z" transform="translate(-364.4 -1254.9)" fill="#f7f7f7"/></g><g transform="translate(9.997 18.628)"><path d="M377.316,1232.407l-.016-.325c2.276-.114,2.617-2.666,2.617-2.682l.325.032C380.242,1229.465,379.868,1232.293,377.316,1232.407Z" transform="translate(-377.3 -1229.4)" fill="#f7f7f7"/></g><g transform="translate(10.11 26.95)"><path d="M378.016,1282.827,378,1282.5c1.609-.081,1.837-1.837,1.853-1.9l.325.032C380.178,1280.649,379.9,1282.729,378.016,1282.827Z" transform="translate(-378 -1280.6)" fill="#f7f7f7"/></g></g></g></svg>