<svg xmlns="http://www.w3.org/2000/svg" width="182.418" height="175.085" viewBox="0 0 182.418 175.085"><g transform="translate(0 0)"><path d="M586.3,135.211h-.958V108.926a15.213,15.213,0,0,0-15.213-15.213h-55.69a15.213,15.213,0,0,0-15.213,15.213v144.2a15.213,15.213,0,0,0,15.213,15.213h55.689a15.213,15.213,0,0,0,15.213-15.213V153.921h.958Z" transform="translate(-432.778 -93.714)" fill="#ff6302"/><path d="M591.7,116.066V262.305a11.538,11.538,0,0,1-11.532,11.536H523.333A11.54,11.54,0,0,1,511.791,262.3V116.066a11.54,11.54,0,0,1,11.541-11.536h6.894a5.486,5.486,0,0,0,5.075,7.553h32.4a5.486,5.486,0,0,0,5.075-7.553h7.385A11.538,11.538,0,0,1,591.7,116.062Z" transform="translate(-442.256 -101.873)" fill="#fff"/><circle cx="23.727" cy="23.727" r="23.727" transform="translate(85.752 25.446)" fill="#ff6302"/><path d="M621.766,450.111h-50.5a.936.936,0,0,1-.935-.935V436.649a.936.936,0,0,1,.935-.935h50.5a.936.936,0,0,1,.935.935v12.527a.936.936,0,0,1-.935.935Zm-50.5-14.024a.562.562,0,0,0-.561.561v12.527a.562.562,0,0,0,.561.561h50.5a.562.562,0,0,0,.561-.561V436.649a.562.562,0,0,0-.561-.561Z" transform="translate(-486.411 -351.682)" fill="#e6e6e6"/><path d="M635.689,454.074a.655.655,0,1,0,0,1.309h30.862a.655.655,0,1,0,.05-1.309H635.689Z" transform="translate(-535.218 -365.531)" fill="#e6e6e6"/><path d="M635.689,470.058a.655.655,0,1,0,0,1.309h30.862a.655.655,0,1,0,.05-1.309H635.689Z" transform="translate(-535.218 -377.588)" fill="#e6e6e6"/><path d="M621.766,535.091h-50.5a.936.936,0,0,1-.935-.935V521.629a.936.936,0,0,1,.935-.935h50.5a.936.936,0,0,1,.935.935v12.527a.936.936,0,0,1-.935.935Zm-50.5-14.024a.562.562,0,0,0-.561.561v12.527a.562.562,0,0,0,.561.561h50.5a.562.562,0,0,0,.561-.561V521.629a.562.562,0,0,0-.561-.561Z" transform="translate(-486.411 -415.782)" fill="#e6e6e6"/><path d="M635.689,539.33a.655.655,0,1,0,0,1.309h30.862a.655.655,0,0,0,.021-1.309H635.689Z" transform="translate(-535.218 -429.839)" fill="#e6e6e6"/><path d="M635.689,555.318a.655.655,0,1,0,0,1.309h30.862a.655.655,0,1,0,.021-1.309H635.689Z" transform="translate(-535.218 -441.898)" fill="#e6e6e6"/><path d="M621.766,620.349h-50.5a.936.936,0,0,1-.935-.935V606.887a.936.936,0,0,1,.935-.935h50.5a.936.936,0,0,1,.935.935v12.527a.936.936,0,0,1-.935.935Zm-50.5-14.024a.562.562,0,0,0-.561.561v12.527a.562.562,0,0,0,.561.561h50.5a.562.562,0,0,0,.561-.561V606.887a.562.562,0,0,0-.561-.561Z" transform="translate(-486.411 -480.091)" fill="#e6e6e6"/><path d="M635.689,624.591a.655.655,0,1,0,0,1.309h30.862a.655.655,0,0,0,.05-1.309H635.689Z" transform="translate(-535.218 -494.151)" fill="#e6e6e6"/><path d="M635.689,640.578a.655.655,0,1,0,0,1.309h30.862a.655.655,0,0,0,.05-1.309H635.689Z" transform="translate(-535.218 -506.209)" fill="#e6e6e6"/><path d="M410.733,804.71H229.267c-.263,0-.476-.115-.476-.257s.213-.257.476-.257H410.733c.263,0,.476.115.476.257S411,804.71,410.733,804.71Z" transform="translate(-228.791 -629.625)" fill="#e6e6e6"/><g transform="translate(161.012 152.456)"><path d="M912.265,726.8a4.785,4.785,0,0,1-4.621-.814c-1.618-1.358-2.126-3.6-2.539-5.669l-1.221-6.129,2.557,1.76a18.624,18.624,0,0,1,4.992,4.406,6.322,6.322,0,0,1,.806,6.321" transform="translate(-899.021 -714.193)" fill="#e6e6e6"/><path d="M922.4,750.7a30.767,30.767,0,0,0,.427-7.088,11.148,11.148,0,0,0-2.15-5.845,9.723,9.723,0,0,0-2.495-2.261c-.249-.157-.479.238-.231.395a9.244,9.244,0,0,1,3.656,4.412,14.81,14.81,0,0,1,.786,6.383c-.083,1.3-.259,2.593-.436,3.883a.237.237,0,0,0,.16.281.23.23,0,0,0,.281-.16Z" transform="translate(-909.553 -730.243)" fill="#f2f2f2"/><path d="M894.625,770.441a3.523,3.523,0,0,1-3.069,1.584c-1.554-.074-2.849-1.158-4.015-2.187l-3.448-3.046,2.282-.109a13.717,13.717,0,0,1,4.89.354,4.653,4.653,0,0,1,3.291,3.342" transform="translate(-884.092 -753.744)" fill="#e6e6e6"/><path d="M910.919,781.226c-1.548-2.741-3.346-5.788-6.557-6.761a7.316,7.316,0,0,0-2.758-.285c-.293.025-.22.477.074.451a6.8,6.8,0,0,1,4.4,1.164,11.435,11.435,0,0,1,3.025,3.265c.5.762.95,1.558,1.4,2.352C910.645,781.666,911.065,781.483,910.919,781.226Z" transform="translate(-897.161 -759.419)" fill="#f2f2f2"/></g><g transform="translate(87.226 87.226)"><circle cx="3.928" cy="3.928" r="3.928" fill="#ff6302"/><path d="M591.873,461.712a2.659,2.659,0,0,0,0,1.309h3.862c.045.006.083-.282.083-.644a1.461,1.461,0,0,0-.081-.665h-3.865Z" transform="translate(-589.825 -458.518)" fill="#e6e6e6"/></g><g transform="translate(87.226 108.183)"><circle cx="3.928" cy="3.928" r="3.928" fill="#ff6302"/><path d="M591.873,547.005a2.659,2.659,0,0,0,0,1.309h3.862c.045.006.083-.282.083-.644a1.461,1.461,0,0,0-.081-.665h-3.865Z" transform="translate(-589.825 -543.811)" fill="#e6e6e6"/></g><g transform="translate(87.226 129.131)"><circle cx="3.928" cy="3.928" r="3.928" fill="#ff6302"/><path d="M591.873,632.263a2.659,2.659,0,0,0,0,1.309h3.862c.045.006.083-.282.083-.644a1.461,1.461,0,0,0-.081-.665h-3.865Z" transform="translate(-589.825 -629.069)" fill="#e6e6e6"/></g><rect width="1.966" height="16.462" transform="translate(102.964 44.047) rotate(-45)" fill="#fff"/><rect width="1.966" height="16.462" transform="translate(114.604 42.658) rotate(45)" fill="#fff"/><path d="M308.833,516.773a2.471,2.471,0,0,0,1.324-3.55l5.79-6.6-4.52-.624-4.805,6.364a2.484,2.484,0,0,0,2.211,4.41Z" transform="translate(-286.656 -404.698)" fill="#84554d"/><path d="M100.384,646.4H96.346L94.425,630.82h5.96Z" transform="translate(-71.224 -475.823)" fill="#84554d"/><path d="M311.688,787.794H298.667v-.165a5.068,5.068,0,0,1,5.068-5.068h7.954Z" transform="translate(-281.499 -613.306)" fill="#2f2e41"/><path d="M173.061,634.794l-3.857,1.2-6.454-14.306,5.692-1.767Z" transform="translate(-122.762 -467.6)" fill="#84554d"/><path d="M403.2,772.8l-12.436,3.861-.049-.157a5.068,5.068,0,0,1,3.337-6.343h0l7.6-2.358Z" transform="translate(-350.759 -602.177)" fill="#2f2e41"/><path d="M316.524,495.656l-5.981,6.85,4.682.421Z" transform="translate(-290.456 -396.896)" fill="#e6e6e6"/><path d="M318.07,529.465s-2.077,1.039-2.337,5.713.779,16.88.779,16.88a30.483,30.483,0,0,0,0,10.387c1.039,4.934-1.039,22.851.26,22.851s8.05.779,8.31,0,.519-12.465.519-12.465,2.077-5.973,0-9.607c0,0,7.254,12.666,11.945,22.332,1.027,2.116,8.829-.26,7.531-2.6s-4.414-12.984-4.414-12.984-2.337-7.79-6.492-11.166l2.077-16.619s4.415-11.166,1.818-12.724S318.07,529.465,318.07,529.465Z" transform="translate(-294.34 -421.876)" fill="#ff6302"/><circle cx="6.752" cy="6.752" r="6.752" transform="translate(24.769 51.758)" fill="#84554d"/><path d="M335.647,361.434l-8.393,4.934a11.035,11.035,0,0,0-4.414,4.934,15,15,0,0,0,0,9.089c1.039,2.077-.436,7.271-.436,7.271l-1.3,11.945s-4.674,4.414-1.039,4.934,10.127-.26,14.023,0,8.31.779,7.011-1.818-2.856-4.415-1.3-9.607c1.219-4.064,1.166-19.259,1.086-25.676a5.166,5.166,0,0,0-2.509-4.365Z" transform="translate(-296.596 -295.653)" fill="#e5e5e5"/><path d="M347.691,394.727l.779,15.84-7.55,15.289-1.28-.487,7.79-14.282Z" transform="translate(-312.404 -320.766)" opacity="0.1"/><path d="M380.178,467.35v-1.818l-8.828,14.542Z" transform="translate(-336.323 -374.174)" opacity="0.1"/><path d="M330.937,294.216l-1.115-.446a7.615,7.615,0,0,1,5.581-2.346l-.913-1.005a3.883,3.883,0,0,1,4.262,1.452,19.84,19.84,0,0,1,3.071,4.316h1.2l-.5,1.1,1.746,1.1-1.792-.2a6.078,6.078,0,0,1-.17,2.845l.049.868a26.752,26.752,0,0,1-2.078-3.662v1.117s-1.116-1.005-1.116-1.676l-.609.782-.3-1.229-3.754,1.229.608-1.006-2.334.335.913-1.229s-2.638,1.452-2.74,2.681a6.589,6.589,0,0,1-1.42,2.793l-.609-1.117S328,295.891,330.937,294.216Z" transform="translate(-304.209 -241.96)" fill="#212a37"/><path d="M343.9,518.3a2.471,2.471,0,0,0,.673-3.729l4.527-7.524-4.559.189-3.6,7.116A2.484,2.484,0,0,0,343.9,518.3Z" transform="translate(-312.808 -405.486)" fill="#84554d"/><path d="M356.481,373.979l1.947-.389s5.843,4.285,4.025,12.854S352.586,408,352.586,408s-1.818,2.337-2.337,2.856-1.558,0-1.039.779-.779,1.3-.779,1.3-5.713,0-5.194-2.077,9.348-16.88,9.348-16.88l-1.3-13.763S350.249,373.46,356.481,373.979Z" transform="translate(-315.092 -304.822)" fill="#e5e5e5"/></g></svg>