<svg xmlns="http://www.w3.org/2000/svg" width="17.858" height="20.09" viewBox="0 0 17.858 20.09"><path d="M21.043,4.875A2,2,0,0,0,19.257,4.6a8.4,8.4,0,0,1-2.422.313,9.532,9.532,0,0,1-3.493-.871A11.329,11.329,0,0,0,9.023,3C5.8,3,4.558,4.116,4.335,4.272a1.116,1.116,0,0,0-.335.8v16.9a1.116,1.116,0,0,0,2.232,0v-4.8a7.009,7.009,0,0,1,2.79-.458,9.532,9.532,0,0,1,3.493.871,11.329,11.329,0,0,0,4.319,1.038,8.55,8.55,0,0,0,3.906-.781,1.942,1.942,0,0,0,1.116-1.73V6.471a1.976,1.976,0,0,0-.815-1.6Z" transform="translate(-4 -3)" fill="#212a37"/></svg>