<svg xmlns="http://www.w3.org/2000/svg" width="24" height="24" viewBox="0 0 24 24">
  <g id="Group_24562" data-name="Group 24562" transform="translate(-2121 -2219)">
    <rect id="Rectangle_4486" data-name="Rectangle 4486" width="24" height="24" transform="translate(2121 2219)" fill="none"/>
    <path id="Path_19920" data-name="Path 19920" d="M127.421,46.668a10.751,10.751,0,1,0,10.751,10.751A10.761,10.761,0,0,0,127.421,46.668Zm-1.544,19.366h-.009a8.771,8.771,0,0,1-6.9-6.361,6.838,6.838,0,0,1,4.941,1.557,7.168,7.168,0,0,1,2.2,4.834c-.073-.008-.15-.017-.228-.03Zm-.632-7.629a2.176,2.176,0,1,1,2.176,2.176A2.179,2.179,0,0,1,125.245,58.4Zm3.724,7.629h-.009c-.073.013-.15.021-.228.03a7.161,7.161,0,0,1,2.2-4.834,6.813,6.813,0,0,1,4.941-1.557,8.771,8.771,0,0,1-6.9,6.361Zm7.126-9.805s0,.013,0,.017c.039.3.064.6.077.907a8.647,8.647,0,0,1-2.864-.925,13.134,13.134,0,0,0-11.758,0,8.722,8.722,0,0,1-2.873.925c.013-.305.039-.611.077-.912,0,0,0-.009,0-.013a.439.439,0,0,1,.021-.107,8.747,8.747,0,0,1,17.3-.018.4.4,0,0,1,.026.125Z" transform="translate(2005.579 2173.332)" fill="#ff6302"/>
  </g>
</svg>
