<svg xmlns="http://www.w3.org/2000/svg" width="24" height="24" viewBox="0 0 24 24">
  <g id="Group_24690" data-name="Group 24690" transform="translate(-1604 -2467)">
    <rect id="Rectangle_4661" data-name="Rectangle 4661" width="24" height="24" transform="translate(1604 2467)" fill="none"/>
    <path id="Path_19976" data-name="Path 19976" d="M121.566,67.2c-3.625,0-6.586,1.424-6.767,3.213.1,1,1.163,1.7,1.852,2.057a11.222,11.222,0,0,0,4.915,1.028,13.324,13.324,0,0,0,1.588-.1,7.476,7.476,0,0,1,4.8-2.079,2.236,2.236,0,0,0,.378-.892c-.367-2.632-4.939-3.238-6.767-3.229Zm6.775,4.839a6.775,6.775,0,1,0,6.775,6.775A6.775,6.775,0,0,0,128.341,72.038Zm-13.542.31v.991c.074.713.7,1.445,1.852,2.026a11.042,11.042,0,0,0,4.59,1.021,7.5,7.5,0,0,1,1.006-1.943c-.224.011-.451.015-.681.015a12.089,12.089,0,0,1-5.353-1.127,5.828,5.828,0,0,1-1.414-.983Zm13.489,1.618a.484.484,0,0,1,.537.491v.764a2.191,2.191,0,0,1,1.913,1.429h0a.484.484,0,1,1-.922.28c-.14-.463-.7-.779-1.474-.779a1.739,1.739,0,0,0-1.074.325.911.911,0,0,0-.378.764c0,.371.1.455.378.62a10.458,10.458,0,0,0,1.248.5,8.732,8.732,0,0,1,1.4.567,1.7,1.7,0,0,1,.847,1.459,1.93,1.93,0,0,1-.741,1.52,2.538,2.538,0,0,1-1.195.5v.764h0a.484.484,0,1,1-.968,0V82.4a2.191,2.191,0,0,1-1.913-1.429.484.484,0,1,1,.922-.287c.14.463.7.786,1.474.786a1.739,1.739,0,0,0,1.074-.325.911.911,0,0,0,.378-.764.583.583,0,0,0-.378-.627,10.437,10.437,0,0,0-1.248-.5,8.732,8.732,0,0,1-1.4-.567,1.688,1.688,0,0,1-.847-1.452,1.945,1.945,0,0,1,.741-1.527,2.516,2.516,0,0,1,1.195-.5v-.756h0a.484.484,0,0,1,.431-.491ZM114.8,75.251v.991c.074.713.7,1.445,1.852,2.026a10.78,10.78,0,0,0,4.2,1.013c-.01-.156-.015-.311-.015-.469a7.54,7.54,0,0,1,.144-1.467,11.771,11.771,0,0,1-4.771-1.119,5.809,5.809,0,0,1-1.414-.975Zm0,2.9v.991c.074.713.7,1.445,1.852,2.026a11.4,11.4,0,0,0,5,1.028,7.449,7.449,0,0,1-.673-1.951,11.764,11.764,0,0,1-4.763-1.119,5.808,5.808,0,0,1-1.414-.975Zm-.008,2.9V82.2c0,1.871,3.034,3.387,6.775,3.387a12.535,12.535,0,0,0,2.934-.34,7.53,7.53,0,0,1-2.283-2.1c-.215.01-.43.023-.65.023a12.086,12.086,0,0,1-5.353-1.134,5.809,5.809,0,0,1-1.421-.975Z" transform="translate(1491.581 2402.234)" fill="#a3a6aa"/>
  </g>
</svg>
