<svg xmlns="http://www.w3.org/2000/svg" xmlns:xlink="http://www.w3.org/1999/xlink" width="339.001" height="188.878" viewBox="0 0 339.001 188.878">
  <defs>
    <clipPath id="clip-path">
      <path id="Path_15104" data-name="Path 15104" d="M162.5,105.658c-26.4,0-40.289-34-67.612-34s-54.214,49.049-54.214,49.049V132.44H341.716V70.665c-60.166,0-65.07-26.784-97.249-26.784s-55.572,61.777-81.967,61.777" transform="translate(-40.674 -43.881)" fill="none"/>
    </clipPath>
    <linearGradient id="linear-gradient" x1="0.5" x2="0.5" y2="1" gradientUnits="objectBoundingBox">
      <stop offset="0" stop-color="#ff6302"/>
      <stop offset="1" stop-color="#ffca27" stop-opacity="0.11"/>
    </linearGradient>
    <filter id="Union_1" x="171" y="18" width="109.143" height="56" filterUnits="userSpaceOnUse">
      <feOffset input="SourceAlpha"/>
      <feGaussianBlur stdDeviation="5" result="blur"/>
      <feFlood flood-opacity="0.161"/>
      <feComposite operator="in" in2="blur"/>
      <feComposite in="SourceGraphic"/>
    </filter>
  </defs>
  <g id="Group_22721" data-name="Group 22721" transform="translate(-31 -135)">
    <path id="Path_19912" data-name="Path 19912" d="M-11.247,1.073,279.888.71" transform="translate(78.865 291.008)" fill="none" stroke="#ebebeb" stroke-linecap="round" stroke-width="1"/>
    <g id="Group_22720" data-name="Group 22720">
      <line id="Line_98" data-name="Line 98" y2="106" transform="translate(68 186)" fill="none" stroke="#ebebeb" stroke-linecap="round" stroke-width="1"/>
      <g id="Group_22719" data-name="Group 22719">
        <g id="Group_22716" data-name="Group 22716">
          <g id="Group_22715" data-name="Group 22715" transform="translate(0 7)">
            <text id="_4370.34" data-name="4370.34" transform="translate(71 163)" fill="#ff6302" font-size="32" font-family="SegoeUI-Bold, Segoe UI" font-weight="700"><tspan x="0" y="0">4370.34</tspan></text>
            <g id="Group_22711" data-name="Group 22711" transform="translate(68.958 178.19)">
              <line id="Line_70" data-name="Line 70" x2="289.748" transform="translate(0 105)" fill="none" stroke="#ebebeb" stroke-linecap="round" stroke-width="1" opacity="0.31"/>
              <line id="Line_71" data-name="Line 71" x2="289.748" transform="translate(0 70)" fill="none" stroke="#ebebeb" stroke-linecap="round" stroke-width="1" opacity="0.31"/>
              <line id="Line_72" data-name="Line 72" x2="289.748" transform="translate(0 35)" fill="none" stroke="#ebebeb" stroke-linecap="round" stroke-width="1" opacity="0.31"/>
              <line id="Line_73" data-name="Line 73" x2="289.748" transform="translate(0)" fill="none" stroke="#ebebeb" stroke-linecap="round" stroke-width="1" opacity="0.31"/>
            </g>
            <text id="_2000" data-name="2000" transform="translate(31 278.69)" fill="#0a0a0a" font-size="12" font-family="SegoeUI, Segoe UI" letter-spacing="0.009em" opacity="0.39"><tspan x="0" y="0">2000</tspan></text>
            <text id="Jun" transform="translate(62 313.878)" fill="#0a0a0a" font-size="12" font-family="SegoeUI, Segoe UI" letter-spacing="0.009em" opacity="0.39"><tspan x="0" y="0">Jun</tspan></text>
            <text id="Jul" transform="translate(107 313.878)" fill="#0a0a0a" font-size="12" font-family="SegoeUI, Segoe UI" letter-spacing="0.009em" opacity="0.39"><tspan x="0" y="0">Jul</tspan></text>
            <text id="Aug" transform="translate(146 313.878)" fill="#0a0a0a" font-size="12" font-family="SegoeUI, Segoe UI" letter-spacing="0.009em" opacity="0.39"><tspan x="0" y="0">Aug</tspan></text>
            <text id="Sep" transform="translate(195 313.878)" fill="#0a0a0a" font-size="12" font-family="SegoeUI, Segoe UI" letter-spacing="0.009em" opacity="0.39"><tspan x="0" y="0">Sep</tspan></text>
            <text id="Nov" transform="translate(289 313.878)" fill="#0a0a0a" font-size="12" font-family="SegoeUI, Segoe UI" letter-spacing="0.009em" opacity="0.39"><tspan x="0" y="0">Nov</tspan></text>
            <text id="Dec" transform="translate(337 313.878)" fill="#0a0a0a" font-size="12" font-family="SegoeUI, Segoe UI" letter-spacing="0.009em" opacity="0.39"><tspan x="0" y="0">Dec</tspan></text>
            <text id="Oct" transform="translate(243 313.878)" fill="#ff6302" font-size="12" font-family="SegoeUI, Segoe UI" letter-spacing="0.009em"><tspan x="0" y="0">Oct</tspan></text>
            <text id="_2500" data-name="2500" transform="translate(32 243.69)" fill="#0a0a0a" font-size="12" font-family="SegoeUI, Segoe UI" letter-spacing="0.009em" opacity="0.39"><tspan x="0" y="0">2500</tspan></text>
            <text id="_3000" data-name="3000" transform="translate(32 208.69)" fill="#0a0a0a" font-size="12" font-family="SegoeUI, Segoe UI" letter-spacing="0.009em" opacity="0.39"><tspan x="0" y="0">3000</tspan></text>
            <g id="Group_22714" data-name="Group 22714" transform="translate(68.958 190)">
              <g id="Group_22710" data-name="Group 22710" transform="translate(0 5.694)">
                <g id="Group_22699" data-name="Group 22699" transform="translate(0)" clip-path="url(#clip-path)">
                  <path id="Path_15109" data-name="Path 15109" d="M0,0H302.232V89.689H0Z" transform="translate(-1.19 0)" fill="url(#linear-gradient)"/>
                </g>
              </g>
              <g id="Group_22713" data-name="Group 22713" transform="translate(0 0)">
                <path id="Path_15108" data-name="Path 15108" d="M39.809,121.461c.328-.029,25.932-49.943,55.081-50.5,28.656.521,42.4,34.92,66.644,34.372,23.734.943,47.083-61.717,80.8-62.451,33.394.4,37.326,27.186,95.858,27.075a1.6,1.6,0,1,1,0,3.176c-60.078-.11-65.811-27.477-95.858-27.075-29.726-.732-52.491,61.509-80.8,62.451-27.8-.548-41.437-34.892-66.644-34.372-24.715-.557-52.394,49.995-52.479,50.03a1.929,1.929,0,0,1-2.41.764,1.511,1.511,0,0,1-.872-2.112Z" transform="translate(-38.958 -40.425)" fill="#ff6302"/>
                <g id="Ellipse_531" data-name="Ellipse 531" transform="translate(180.221 2.456)" fill="#fff" stroke="#ff6302" stroke-width="1">
                  <circle cx="7" cy="7" r="7" stroke="none"/>
                  <circle cx="7" cy="7" r="6.5" fill="none"/>
                </g>
                <circle id="Ellipse_532" data-name="Ellipse 532" cx="5" cy="5" r="5" transform="translate(182.272 4.456)" fill="#ff6302"/>
              </g>
            </g>
          </g>
          <g id="Naira" transform="translate(43 152)">
            <g id="Component_110_2" data-name="Component 110 – 2">
              <path id="Path_14552" data-name="Path 14552" d="M23.023,55.949H19.759V52.84h3.264a.88.88,0,1,0,0-1.76H19.759V46.767a2.068,2.068,0,0,0-.373-1.373A1.2,1.2,0,0,0,18.413,45a1.15,1.15,0,0,0-.937.39,2.091,2.091,0,0,0-.369,1.376v4.314h-6.14L8.357,47.166c-.223-.349-.434-.677-.638-.991a4.412,4.412,0,0,0-.532-.685,1.7,1.7,0,0,0-.52-.361A1.736,1.736,0,0,0,5.956,45a1.808,1.808,0,0,0-1,.3,1.65,1.65,0,0,0-.657.754,3.825,3.825,0,0,0-.176,1.319v3.707H.888a.88.88,0,1,0,0,1.76H4.119v3.109H.888a.88.88,0,1,0,0,1.759H4.119v4.925a2.023,2.023,0,0,0,.386,1.359,1.205,1.205,0,0,0,.974.406,1.225,1.225,0,0,0,.967-.407,1.977,1.977,0,0,0,.393-1.358V57.709h5.556L15.4,62.278c.209.3.425.607.64.906a4.3,4.3,0,0,0,.63.7,1.964,1.964,0,0,0,.642.389,2.39,2.39,0,0,0,.8.124c.813,0,1.646-.247,1.646-2.076V57.709h3.264a.88.88,0,1,0,0-1.76ZM17.108,52.84v3.109H14.215L12.142,52.84ZM6.839,49.268,8.032,51.08H6.839Zm0,6.681V52.84H9.19l2.046,3.109Zm10.269,4.339-1.719-2.579h1.719v2.579Z" transform="translate(0 -45.001)" fill="#ff6302"/>
            </g>
          </g>
        </g>
        <g id="Group_22718" data-name="Group 22718" transform="translate(14 -6)">
          <g id="Group_835" data-name="Group 835" transform="translate(218.001 178.096)">
            <g transform="matrix(1, 0, 0, 1, -201, -37.1)" filter="url(#Union_1)">
              <path id="Union_1-2" data-name="Union 1" d="M16.352,0H62.791c9.031,0,16.352,5.82,16.352,13S71.822,26,62.791,26H16.352C7.321,26,0,20.18,0,13S7.321,0,16.352,0Z" transform="translate(186 33)" fill="#fff"/>
            </g>
          </g>
          <g id="Group_22717" data-name="Group 22717" transform="translate(4.643 -0.19)">
            <text id="_4370.34-2" data-name="4370.34" transform="translate(242.5 192.19)" fill="#ff6302" font-size="12" font-family="SegoeUI, Segoe UI" letter-spacing="0.01em"><tspan x="-21.067" y="0">4370.34</tspan></text>
            <g id="Naira-2" data-name="Naira" transform="translate(207.357 184)">
              <path id="Path_14552-2" data-name="Path 14552" d="M9.543,49.176H8.19V47.991H9.543a.337.337,0,1,0,0-.671H8.19V45.674a.744.744,0,0,0-.155-.524.52.52,0,0,0-.4-.15.5.5,0,0,0-.388.149.752.752,0,0,0-.153.525V47.32H4.546L3.464,45.827c-.093-.133-.18-.258-.264-.378a1.71,1.71,0,0,0-.221-.261.71.71,0,0,0-.216-.138A.775.775,0,0,0,2.469,45a.8.8,0,0,0-.416.114.648.648,0,0,0-.272.287,1.351,1.351,0,0,0-.073.5V47.32H.368a.337.337,0,1,0,0,.671h1.34v1.186H.368a.337.337,0,1,0,0,.671h1.34v1.878a.729.729,0,0,0,.16.518.521.521,0,0,0,.4.155.53.53,0,0,0,.4-.155.713.713,0,0,0,.163-.518V49.848h2.3L6.384,51.59c.087.115.176.231.265.345a1.7,1.7,0,0,0,.261.268.83.83,0,0,0,.266.149,1.07,1.07,0,0,0,.332.047c.337,0,.682-.094.682-.792v-1.76H9.543a.337.337,0,1,0,0-.671ZM7.091,47.991v1.186h-1.2l-.859-1.186ZM2.835,46.628l.495.691H2.835Zm0,2.548V47.991h.975l.848,1.186Zm4.256,1.655-.713-.984h.713v.984Z" transform="translate(0 -45.001)" fill="#ff6302"/>
            </g>
          </g>
        </g>
      </g>
    </g>
  </g>
</svg>
