<svg xmlns="http://www.w3.org/2000/svg" width="20" height="20" viewBox="0 0 20 20"><g transform="translate(-108 -188)"><path d="M15.906,4.342A4.656,4.656,0,0,0,12.3,3.167h-.2V3.133C12.1,1.733,12.1,0,8.964,0H7.7C4.564,0,4.564,1.742,4.564,3.133v.042h-.2A4.644,4.644,0,0,0,.756,4.35,3.79,3.79,0,0,0,.039,7.342L.048,7.4l.083.875s.6.4.9.567c.117.075.242.142.367.208a14.3,14.3,0,0,0,4.583,1.567c.075.783.417,1.7,2.242,1.7s2.183-.908,2.242-1.717a14.024,14.024,0,0,0,4.825-1.733c.05-.025.083-.05.125-.075a11.6,11.6,0,0,0,1.133-.75l.033-.3.042-.392c.008-.05.008-.092.017-.15A3.694,3.694,0,0,0,15.906,4.342ZM9.239,10.05c0,.883,0,1.017-1.025,1.017s-1.025-.158-1.025-1.008V9.008h2.05ZM5.756,3.167V3.133c0-1.417,0-1.942,1.942-1.942H8.964c1.942,0,1.942.533,1.942,1.942v.042H5.756Z" transform="translate(109.669 189.475)" fill="#ff6302"/><path d="M16.117,0,15.75,4.039c-.175,1.667-.858,3.367-4.525,3.367H4.875c-3.667,0-4.35-1.7-4.525-3.358L0,.2A33.038,33.038,0,0,0,4.667,2.031C5.125,3.247,6.258,3.9,7.942,3.9a3.169,3.169,0,0,0,3.275-1.892A31.947,31.947,0,0,0,16.117,0Z" transform="translate(109.95 199.119)" fill="#ff6302"/><path d="M0,0H20V20H0Z" transform="translate(128 208) rotate(180)" fill="none" opacity="0"/></g></svg>