<svg width="22" height="22" viewBox="0 0 22 22" fill="none" xmlns="http://www.w3.org/2000/svg">
<path d="M4.8878 19.5122C5.30392 19.4933 5.67443 19.4647 6.04493 19.4708C6.13056 19.4708 6.24579 19.5754 6.2946 19.659C6.66431 20.2832 7.22847 20.5377 7.97508 20.5355C11.5233 20.5257 15.0723 20.5355 18.6181 20.5302C19.8361 20.5302 20.5227 19.8864 20.5243 18.7298C20.5291 14.5282 20.5261 10.3263 20.5155 6.12421C20.5237 5.75025 20.4544 5.37836 20.3114 5.02938C20.0465 4.44431 19.4928 4.18905 18.8286 4.18378C18.5285 4.18378 18.4125 4.07987 18.4461 3.80729C18.4509 3.73206 18.4509 3.65663 18.4461 3.5814C18.4461 2.83444 18.4637 2.81863 19.2623 2.9504C19.9315 3.06113 20.5421 3.37958 20.9965 3.85493C21.4509 4.33029 21.723 4.93515 21.7694 5.57303C21.807 6.16035 21.7902 6.75144 21.7902 7.34102C21.7902 11.1669 21.759 14.9928 21.7998 18.8179C21.8166 20.3743 20.5587 21.8231 18.5861 21.7997C15.0251 21.7583 11.4641 21.7914 7.90146 21.7862C6.51707 21.7862 5.46397 21.0844 4.99103 19.8774C4.95342 19.7644 4.92701 19.6454 4.8878 19.5122Z" fill="#FF6302"/>
<path d="M0.00640183 10.1663C0.00640183 9.86507 -0.00800229 9.56388 0.00640183 9.26269C0.0504144 8.51799 0.502544 7.99241 1.26596 7.9269C2.67917 7.80643 3.97634 7.40886 5.15987 6.63253C5.68162 6.29144 6.20737 6.41492 6.74433 6.69879C7.42618 7.07225 8.13786 7.39525 8.87294 7.66487C9.35307 7.83203 9.89483 7.82676 10.4086 7.90055C11.2232 8.01726 11.7418 8.52025 11.7282 9.31991C11.6641 13.1496 10.3101 16.3226 6.81955 18.3858C6.17937 18.7623 5.57839 18.7623 4.93021 18.4257C1.71329 16.7601 0.0752215 14.0238 0.00640183 10.1663ZM1.14913 10.1971H1.19954C1.19954 10.3974 1.18754 10.5992 1.19954 10.7995C1.406 13.6435 2.73918 15.8136 5.48957 17.1388C5.60877 17.2059 5.74622 17.2387 5.88498 17.2332C6.02375 17.2278 6.15779 17.1842 6.27059 17.108C9.31626 15.3377 10.503 12.6556 10.583 9.42157C10.5894 9.17459 10.4694 9.04884 10.2045 9.03755C10.0717 9.03228 9.93964 9.01044 9.8044 8.99915C8.53124 8.88921 7.3477 8.53531 6.3058 7.826C6.01052 7.62496 5.77445 7.6227 5.47757 7.81621C4.50689 8.45098 3.41218 8.79509 2.25344 8.97279C1.90534 9.02701 1.414 8.9871 1.25156 9.18362C1.06831 9.41027 1.17153 9.85001 1.14913 10.1971Z" fill="#FF6302"/>
<path d="M13.6951 5.14308C12.8021 5.14308 11.909 5.14308 11.016 5.14308C10.0517 5.14308 9.70758 4.82081 9.70598 3.92928C9.70598 3.69134 9.70198 3.45265 9.70598 3.21471C9.71878 2.61233 10.0965 2.19442 10.7399 2.20798C11.24 2.21776 11.4265 2.10858 11.5137 1.60559C11.6841 0.626721 12.686 -0.0291234 13.7687 0.000995723C14.8002 0.0296089 15.7141 0.732889 15.8597 1.69821C15.923 2.11461 16.063 2.2253 16.4999 2.20873C17.2681 2.17861 17.6482 2.56263 17.6595 3.29302C17.6635 3.56861 17.6595 3.84495 17.645 4.12129C17.6058 4.81253 17.2449 5.13631 16.4935 5.14233C15.5605 5.14911 14.6274 5.14233 13.6927 5.14233L13.6951 5.14308ZM14.9203 2.18991C15.0003 1.69972 14.8098 1.36163 14.4401 1.11239C14.0104 0.828518 13.5311 0.826259 13.0725 1.03258C12.8838 1.11573 12.7232 1.24626 12.6083 1.4098C12.4933 1.57334 12.4286 1.76355 12.4212 1.95949C12.4156 2.03102 12.5604 2.17786 12.638 2.18012C13.3838 2.19668 14.1256 2.18991 14.9203 2.18991Z" fill="#FF6302"/>
<path d="M8.84573 17.7473C9.13222 17.5078 9.41229 17.2594 9.71158 17.035C9.81762 16.9648 9.94447 16.9279 10.0741 16.9295C12.6583 16.9245 15.2428 16.9245 17.8275 16.9295C18.162 16.9295 18.4069 17.035 18.4189 17.3919C18.4301 17.6931 18.222 17.8813 17.8483 17.8821C14.9045 17.8851 11.9605 17.8851 9.01618 17.8821C8.99078 17.8784 8.96601 17.8716 8.94256 17.8617L8.84573 17.7473Z" fill="#FF6302"/>
<path d="M11.2616 14.9416C11.4169 14.6156 11.5161 14.3588 11.6617 14.1276C11.713 14.0455 11.877 13.9861 11.9906 13.9853C13.9376 13.977 15.8845 13.9793 17.8323 13.9793C18.1684 13.9793 18.4085 14.0907 18.4205 14.4476C18.4309 14.7549 18.2132 14.9378 17.8067 14.9386C16.2062 14.9439 14.6058 14.9386 13.0053 14.9386L11.2616 14.9416Z" fill="#FF6302"/>
<path d="M12.3371 11.9771C12.3803 11.6917 12.3955 11.4418 12.4668 11.2061C12.4908 11.1263 12.6548 11.0306 12.7548 11.0299C14.4609 11.0208 16.1678 11.0238 17.8763 11.0299C18.1964 11.0299 18.4125 11.1729 18.4253 11.502C18.4365 11.7957 18.2292 11.9779 17.8507 11.9929C17.5306 12.005 17.2105 11.999 16.8904 11.999C15.5306 11.999 14.1702 11.999 12.8093 11.999C12.6636 11.9959 12.5244 11.9846 12.3371 11.9771Z" fill="#FF6302"/>
<path d="M12.2635 8.0449C12.3586 8.02903 12.4545 8.01797 12.5508 8.01177C14.2977 8.01177 16.0446 8.00726 17.7923 8.01177C18.2148 8.01177 18.4197 8.17818 18.4269 8.48389C18.4349 8.80466 18.2148 8.98538 17.7803 8.98688C16.1534 8.9914 14.5266 8.98688 12.8989 8.9914C12.6836 8.9914 12.5556 8.94697 12.51 8.71957C12.4644 8.49217 12.3571 8.29941 12.2635 8.0449Z" fill="#FF6302"/>
<path d="M8.16794 4.14072C7.84785 4.17762 7.59418 4.18665 7.35011 4.23861C6.78995 4.35833 6.42744 4.70244 6.20498 5.19339C6.16417 5.28374 6.07454 5.41476 6.00012 5.41928C5.63442 5.44262 5.26711 5.42982 4.855 5.42982C4.91178 4.92297 5.11986 4.44159 5.45517 4.04133C6.05134 3.31471 6.83476 2.93219 7.81904 2.91186C8.07912 2.90659 8.18075 2.98716 8.17114 3.23338C8.15914 3.52855 8.16794 3.82598 8.16794 4.14072Z" fill="#FF6302"/>
<path d="M8.68088 10.5782C8.55284 10.7589 8.44721 10.9592 8.29357 11.1181C7.32529 12.118 6.35702 13.1187 5.36633 14.0976C4.85739 14.6006 4.43967 14.5494 4.04756 13.947C3.73467 13.4689 3.44818 12.9726 3.18091 12.4696C3.11529 12.3454 3.1697 12.1639 3.1689 12.0096C3.32895 12.0382 3.5114 12.0284 3.63704 12.1052C3.92791 12.2817 4.20064 12.4834 4.45167 12.7076C4.69174 12.9237 4.86299 12.9124 5.12546 12.7166C6.04333 12.0329 6.98119 11.3718 7.92626 10.7182C8.11272 10.5887 8.35198 10.527 8.56645 10.4336L8.68088 10.5782Z" fill="#FF6302"/>
</svg>
