<svg id="Layer_x0020_1" xmlns="http://www.w3.org/2000/svg" width="308.345" height="124.204" viewBox="0 0 308.345 124.204">
  <g id="_2251614336640" transform="translate(8.824 9.63)">
    <g id="Group_24737" data-name="Group 24737" transform="translate(139.733)">
      <path id="Path_20017" data-name="Path 20017" d="M1619.107,102.24l12.033,26-7.852,3.633-5.232-11.307-16.389,43.02c-2.792,7.251-10.13,4.463-11.306,1.924l-13.182-24.048,8.262-5.276,9.221,18.019,15.181-38.052-11.154,5.162-3.634-7.851,24.05-11.227Z" transform="translate(-1577.18 -102.24)" fill="#ff6302" fill-rule="evenodd"/>
      <rect id="Rectangle_4871" data-name="Rectangle 4871" width="40.318" height="8.989" transform="translate(1.16 69.487)" fill="#fbc403"/>
    </g>
    <g id="Group_24738" data-name="Group 24738" transform="translate(0 7.658)">
      <path id="Path_20018" data-name="Path 20018" d="M142.586,253.073a4.453,4.453,0,0,1-6.341-.008l-.013-.013a4.48,4.48,0,0,1-1.3-3.152v-1.662a25.29,25.29,0,0,1-2.962,2.147,25.123,25.123,0,1,1-.009-42.735,25.449,25.449,0,0,1,2.981,2.16l-.009-21.789h-.013a4.446,4.446,0,0,1,1.332-3.165l.013-.013a4.466,4.466,0,0,1,6.3,0l.013.013a4.45,4.45,0,0,1,1.33,3.169V249.9a4.477,4.477,0,0,1-1.316,3.179l-.007-.007ZM107.4,240.422a16.145,16.145,0,0,0,27.546-11.163h-.012v-.482h.012A16.139,16.139,0,1,0,107.4,240.422Z" transform="translate(-93.68 -183.54)" fill-rule="evenodd"/>
      <path id="Path_20019" data-name="Path 20019" d="M1259.532,253.076a4.475,4.475,0,0,1-6.343,0l-.013-.013a4.48,4.48,0,0,1-1.316-3.166v-61.88a4.451,4.451,0,0,1,1.33-3.169l.013-.013a4.466,4.466,0,0,1,6.3,0l.013.013a4.446,4.446,0,0,1,1.332,3.165V249.9A4.475,4.475,0,0,1,1259.532,253.076Z" transform="translate(-1142.769 -183.54)" fill-rule="evenodd"/>
      <path id="Path_20020" data-name="Path 20020" d="M1397.221,263.988a4.453,4.453,0,0,1-6.341-.008l-.013-.013a4.48,4.48,0,0,1-1.3-3.152V219.562a4.465,4.465,0,0,1,1.314-3.154l.013-.013a4.457,4.457,0,0,1,6.305-.015l.013.013a4.45,4.45,0,0,1,1.33,3.169v41.254a4.477,4.477,0,0,1-1.316,3.179Zm1.63-66.408a5.724,5.724,0,1,0-.012,0h.013Z" transform="translate(-1265.425 -194.455)" fill-rule="evenodd"/>
      <path id="Path_20021" data-name="Path 20021" d="M710.414,449.378a25.077,25.077,0,1,1,12.576-21.739,4.475,4.475,0,0,1-1.316,3.166l-.013.013a4.477,4.477,0,0,1-3.167,1.316H682.371a16.153,16.153,0,0,0,29.489,3.579l.006-.01a4.458,4.458,0,0,1,6.066-1.649l.063.032a4.486,4.486,0,0,1,1.654,6.084l-.026.04a25.18,25.18,0,0,1-9.21,9.173Zm-23.6-33.479a16.16,16.16,0,0,0-4.444,7.243h31.005a16.133,16.133,0,0,0-26.561-7.243Z" transform="translate(-618.216 -381.903)" fill-rule="evenodd"/>
    </g>
    <g id="Group_24739" data-name="Group 24739" transform="translate(188.411 23.963)">
      <path id="Path_20022" data-name="Path 20022" d="M2131.634,448.969a25.078,25.078,0,1,1,12.576-21.74,4.478,4.478,0,0,1-1.316,3.166l-.013.013a4.476,4.476,0,0,1-3.166,1.316h-36.123a16.153,16.153,0,0,0,29.488,3.579l.006-.01a4.459,4.459,0,0,1,6.067-1.649l.062.032a4.486,4.486,0,0,1,1.654,6.084l-.026.04a25.181,25.181,0,0,1-9.21,9.173Zm-23.6-33.479a16.163,16.163,0,0,0-4.444,7.243H2134.6a16.134,16.134,0,0,0-26.561-7.243Z" transform="translate(-2093.98 -397.837)" fill-rule="evenodd"/>
      <path id="Path_20023" data-name="Path 20023" d="M2698.309,403.836a4.5,4.5,0,0,1,.975,1.43c.27-.168.545-.33.824-.483a18.124,18.124,0,0,1,8.784-2.263,4.48,4.48,0,0,1,3.152,1.3l.013.013a4.453,4.453,0,0,1,.008,6.341l.007.007a4.477,4.477,0,0,1-3.179,1.316,9.248,9.248,0,0,0-9.252,9.267v27.494a4.487,4.487,0,0,1-7.667,3.172l-.007.007a4.477,4.477,0,0,1-1.316-3.179V407a4.45,4.45,0,0,1,1.33-3.169l.013-.013a4.466,4.466,0,0,1,6.3,0l.013.013Z" transform="translate(-2634.449 -398.199)" fill-rule="evenodd"/>
      <text id="TM" transform="translate(85.734 9)" font-size="9" font-family="Inter" font-weight="700"><tspan x="0" y="0">TM</tspan></text>
    </g>
    <g id="Group_24740" data-name="Group 24740" transform="translate(189.768 87.622)">
      <text id="by" transform="translate(0 13)" font-size="12" font-family="SegoeUI-SemiboldItalic, Segoe UI" font-weight="600" font-style="italic"><tspan x="0" y="0">by</tspan></text>
      <path id="Path_20024" data-name="Path 20024" d="M2731.19,1161.556h2.065c.475-.5,2.26-2.253,3.023-3.024h-2.062l-3.026,3.026Z" transform="translate(-2672.526 -1146.658)" fill-rule="evenodd"/>
      <path id="Path_20025" data-name="Path 20025" d="M2315.118,1063.023c.461-2.011,1.34-5.786,1.935-8.183-.551,0-7.623,0-7.645.024-.208.221-2.538,2.528-3.072,3.009,1.447.006,5.643,0,6.157.009-.138.479-.316,1.2-.465,1.779a27.873,27.873,0,0,1-6.138-.041c-3.344-.465-3.164-5.178,1.392-6.353,1.581-.408,9.431-.108,11.552-.107l-2.424,9.916h3.885l1.248-5.108a.273.273,0,0,1,.111-.079h6.2c.632-.679,2.355-2.535,2.8-3.007H2322.3l.419-1.716c3.4.008,7.092.025,10.577.059-.454,1.777-1.921,7.844-2.4,9.81l8.569,0,3.026-3.026c-2.465,0-5.307,0-6.952-.006.6-2.682,2.12-8.695,2.492-10.22-8.905,0-17.385.091-26.259-.011a17.661,17.661,0,0,0-6.488.728c-5.534,2.167-7.154,7.443-4.547,10.518,1.181,1.393,2.994,2.037,5.943,2.022,2.88.041,2.879.026,8.443-.011Z" transform="translate(-2281.513 -1048.132)" fill-rule="evenodd"/>
    </g>
  </g>
  <rect id="Rectangle_4872" data-name="Rectangle 4872" width="308.345" height="124.204" fill="none"/>
</svg>
