<svg xmlns="http://www.w3.org/2000/svg" width="320.478" height="129.091" viewBox="0 0 320.478 129.091"><g transform="translate(9.171 10.009)"><g transform="translate(145.231)"><path d="M1620.757,102.24l12.506,27.025-8.161,3.776-5.438-11.752L1602.631,166c-2.9,7.536-10.529,4.638-11.75,2l-13.7-24.994,8.588-5.483,9.584,18.728L1611.13,116.7l-11.593,5.365-3.777-8.16,25-11.668Z" transform="translate(-1577.18 -102.24)" fill="#ff6302" fill-rule="evenodd"/><rect width="41.904" height="9.342" transform="translate(1.205 72.221)" fill="#fff"/></g><g transform="translate(0 7.959)"><path d="M144.511,255.809a4.628,4.628,0,0,1-6.59-.008l-.014-.014a4.656,4.656,0,0,1-1.35-3.276v-1.728a26.286,26.286,0,0,1-3.079,2.231,26.111,26.111,0,1,1-.01-44.416,26.45,26.45,0,0,1,3.1,2.245l-.01-22.647h-.014a4.621,4.621,0,0,1,1.384-3.289l.014-.014a4.642,4.642,0,0,1,6.549,0l.014.014a4.625,4.625,0,0,1,1.382,3.293v64.315a4.653,4.653,0,0,1-1.368,3.3l-.007-.007ZM107.938,242.66a16.781,16.781,0,0,0,28.63-11.6h-.013v-.5h.013a16.774,16.774,0,1,0-28.63,12.1Z" transform="translate(-93.68 -183.54)" fill-rule="evenodd"/><path d="M1259.834,255.812a4.652,4.652,0,0,1-6.593,0l-.014-.014a4.656,4.656,0,0,1-1.368-3.29V188.2a4.626,4.626,0,0,1,1.382-3.293l.014-.014a4.642,4.642,0,0,1,6.549,0l.014.014a4.62,4.62,0,0,1,1.384,3.289v64.315A4.651,4.651,0,0,1,1259.834,255.812Z" transform="translate(-1138.477 -183.54)" fill-rule="evenodd"/><path d="M1397.613,266.68a4.628,4.628,0,0,1-6.59-.008l-.014-.014a4.656,4.656,0,0,1-1.35-3.276V220.505a4.641,4.641,0,0,1,1.366-3.278l.014-.014a4.632,4.632,0,0,1,6.553-.016l.014.014a4.625,4.625,0,0,1,1.382,3.293v42.877a4.653,4.653,0,0,1-1.368,3.3Zm1.694-69.021a5.942,5.942,0,1,0-.013,0h.014Z" transform="translate(-1260.63 -194.41)" fill-rule="evenodd"/><path d="M711.9,451.222a26.063,26.063,0,1,1,13.071-22.595,4.651,4.651,0,0,1-1.368,3.29l-.014.014a4.653,4.653,0,0,1-3.291,1.368H682.75a16.789,16.789,0,0,0,30.649,3.72l.006-.011a4.633,4.633,0,0,1,6.3-1.714l.066.033a4.663,4.663,0,0,1,1.719,6.323l-.027.041a26.171,26.171,0,0,1-9.572,9.534Zm-24.525-34.8a16.8,16.8,0,0,0-4.619,7.528h32.225a16.768,16.768,0,0,0-27.606-7.528Z" transform="translate(-616.069 -381.091)" fill-rule="evenodd"/></g><g transform="translate(195.825 24.906)"><path d="M2133.116,450.812a26.064,26.064,0,1,1,13.071-22.6,4.653,4.653,0,0,1-1.368,3.29l-.014.014a4.652,4.652,0,0,1-3.29,1.368h-37.545a16.789,16.789,0,0,0,30.648,3.72l.006-.011a4.635,4.635,0,0,1,6.306-1.714l.064.033a4.663,4.663,0,0,1,1.719,6.323l-.027.041a26.173,26.173,0,0,1-9.573,9.534Zm-24.525-34.8a16.8,16.8,0,0,0-4.619,7.528H2136.2a16.768,16.768,0,0,0-27.606-7.528Z" transform="translate(-2093.98 -397.669)" fill-rule="evenodd"/><path d="M2698.61,403.888a4.678,4.678,0,0,1,1.013,1.486c.281-.174.567-.343.856-.5a18.837,18.837,0,0,1,9.13-2.352,4.656,4.656,0,0,1,3.276,1.35l.014.014a4.628,4.628,0,0,1,.008,6.59l.007.007a4.653,4.653,0,0,1-3.3,1.368,9.612,9.612,0,0,0-9.616,9.631v28.575a4.663,4.663,0,0,1-7.969,3.3l-.007.007a4.654,4.654,0,0,1-1.367-3.3V407.178a4.625,4.625,0,0,1,1.382-3.293l.014-.014a4.642,4.642,0,0,1,6.549,0l.013.014Z" transform="translate(-2632.237 -398.029)" fill-rule="evenodd"/><text transform="translate(89.108 9)" font-size="9" font-family="SegoeUI-Bold, Segoe UI" font-weight="700"><tspan x="0" y="0">TM</tspan></text></g><g transform="translate(197.235 91.07)"><text transform="translate(0 13)" font-size="12" font-family="SegoeUI-SemiboldItalic, Segoe UI" font-weight="600" font-style="italic"><tspan x="0" y="0">by</tspan></text><path d="M2731.19,1161.675h2.146c.493-.515,2.349-2.342,3.142-3.142h-2.143l-3.146,3.145Z" transform="translate(-2670.218 -1146.191)" fill-rule="evenodd"/><path d="M2315.732,1063.545c.479-2.09,1.393-6.014,2.011-8.505-.573,0-7.923,0-7.946.024-.216.23-2.638,2.628-3.192,3.128,1.5.006,5.865,0,6.4.01-.144.5-.329,1.246-.484,1.849a28.969,28.969,0,0,1-6.38-.043c-3.475-.484-3.288-5.381,1.447-6.6,1.643-.424,9.8-.113,12.006-.112l-2.519,10.306h4.037l1.3-5.309a.283.283,0,0,1,.115-.082h6.449c.657-.706,2.447-2.634,2.907-3.125h-8.687l.436-1.784c3.531.008,7.371.026,10.993.062-.472,1.847-2,8.153-2.5,10.2l8.906,0,3.145-3.146c-2.562,0-5.515,0-7.226-.006.62-2.788,2.2-9.037,2.591-10.622-9.256,0-18.069.1-27.292-.012a18.355,18.355,0,0,0-6.743.757c-5.751,2.252-7.435,7.736-4.726,10.932,1.228,1.448,3.112,2.117,6.177,2.1,2.993.042,2.992.027,8.775-.012Z" transform="translate(-2280.805 -1048.068)" fill-rule="evenodd"/></g></g><rect width="320.478" height="129.091" fill="none"/></svg>