<svg xmlns="http://www.w3.org/2000/svg" width="17.975" height="18" viewBox="0 0 17.975 18"><path d="M20.9,11.6c-.1-.1-.1-.2-.2-.3l-3-3a.99.99,0,1,0-1.4,1.4L17.6,11H13a1,1,0,0,0,0,2h4.6l-1.3,1.3a.967.967,0,0,0,0,1.4.967.967,0,0,0,1.4,0l3-3c.1-.1.2-.2.2-.3A1.1,1.1,0,0,0,20.9,11.6Z" transform="translate(-3 -3)" fill="#ff6302"/><path d="M15.5,18.1A7.3,7.3,0,0,1,12,19,7,7,0,0,1,12,5a7.3,7.3,0,0,1,3.5.9,1.03,1.03,0,0,0,1-1.8A9.969,9.969,0,0,0,12,3a9,9,0,1,0,4.5,16.8,1.107,1.107,0,0,0,.4-1.4A1.076,1.076,0,0,0,15.5,18.1Z" transform="translate(-3 -3)" fill="#ff6302"/></svg>