<svg xmlns="http://www.w3.org/2000/svg" width="20" height="19.245" viewBox="0 0 20 19.245"><g transform="translate(-141 -461.703)"><g transform="translate(141 472.035)"><path d="M127.871,278.568a2.052,2.052,0,0,0-2.193.336l-3.938,3.251a.777.777,0,0,1-.518.153h-3.368s-.422-.071-.422-.443a.437.437,0,0,1,.452-.444h2.94s.908-.087.908-.815c0,0,.079-.837-.952-.837l-5.785-.1a8.009,8.009,0,0,0-3.881,1.078l-2.892,2.279,4.324,4.274,1.13-1.134a.591.591,0,0,1,.47-.26h6.926a3.526,3.526,0,0,0,2.279-1l4.751-5.4a.636.636,0,0,0-.232-.94Z" transform="translate(-108.223 -278.392)" fill="#ff6302"/></g><g transform="translate(146.628 461.703)"><g transform="translate(0 0)"><path d="M132.364,193.6c-.087-.349-.218-2.286-3.457-3.709,0,0-.039-.015-.095-.035a3.163,3.163,0,0,1-3.145.166A5.191,5.191,0,0,0,123,192.392c-2.371,4.758,3.452,4.587,3.452,4.587,2.847.066,6.523.2,5.912-3.381Z" transform="translate(-122.433 -186.669)" fill="#ff6302"/><path d="M240.777,47.9s1.669.9,2.765-.147a3.81,3.81,0,0,1,.437-2.389c.164-.213.115-.818-.605-.344a2.818,2.818,0,0,1-2.765.344s-.965-.262-.605.687.775,1.849.775,1.849Z" transform="translate(-237.341 -44.842)" fill="#ff6302"/></g><g transform="translate(2.038 5.166)"><g transform="translate(0)"><path d="M0,0H5.923V4.31H0Z" fill="none" opacity="0"/><path d="M2.171.264,2.5.916a.4.4,0,0,0,.262.192l.59.1c.378.064.466.336.195.607l-.459.461a.4.4,0,0,0-.1.336l.131.57c.1.449-.136.624-.533.39l-.553-.328a.4.4,0,0,0-.365,0l-.555.326c-.4.234-.637.059-.533-.39l.131-.57a.408.408,0,0,0-.1-.336L.157,1.817c-.271-.271-.183-.545.195-.607l.59-.1A.408.408,0,0,0,1.2.918L1.53.267C1.7-.089,2-.089,2.171.264Z" transform="translate(1.111 0.124)" fill="#fff"/></g></g></g></g></svg>