<svg xmlns="http://www.w3.org/2000/svg" width="13.791" height="28.309" viewBox="0 0 13.791 28.309"><g transform="translate(-239.17 -52.5)"><path d="M295.24,341.015l2.083,1.1-.4-2.315a.367.367,0,0,1,.1-.319l1.684-1.641-2.33-.341a.384.384,0,0,1-.276-.2l-1.031-2.113-1.038,2.112a.343.343,0,0,1-.276.2l-2.33.341,1.684,1.641a.354.354,0,0,1,.1.319l-.4,2.315,2.083-1.1a.338.338,0,0,1,.167-.043.366.366,0,0,1,.174.044Z" transform="translate(-49.008 -265.098)" fill="#ff6302"/><path d="M252.961,292.736a6.9,6.9,0,1,0-6.9,6.9A6.9,6.9,0,0,0,252.961,292.736Zm-9.843,4.05a.371.371,0,0,1-.145-.356l.486-2.853-2.076-2.018a.353.353,0,0,1-.094-.37.373.373,0,0,1,.29-.247l2.867-.414,1.285-2.6a.381.381,0,0,1,.653,0l1.285,2.6,2.867.414a.364.364,0,0,1,.29.247.353.353,0,0,1-.094.37l-2.076,2.018.486,2.853a.356.356,0,0,1-.145.356.388.388,0,0,1-.21.073.338.338,0,0,1-.167-.044l-2.555-1.343-2.562,1.35a.369.369,0,0,1-.385-.036Z" transform="translate(0 -218.822)" fill="#ff6302"/><path d="M262.5,52.5V62.822l5.444,3.4,5.444-3.4V52.5h-2.178v5.444a.363.363,0,1,1-.726,0V52.5h-2.178v8.348a.363.363,0,1,1-.726,0V52.5H265.4v5.444a.363.363,0,0,1-.726,0V52.5Z" transform="translate(-21.878)" fill="#ff6302"/></g></svg>