<svg xmlns="http://www.w3.org/2000/svg" width="20.066" height="15.419" viewBox="0 0 20.066 15.419"><g transform="translate(-84 -75.602)"><path d="M94.033,75.6a10.043,10.043,0,0,0-8.7,15.039.761.761,0,0,0,.676.38.861.861,0,0,0,.38-.106l1.753-.993a.772.772,0,0,0-.781-1.331L86.3,89.2a8.641,8.641,0,0,1-.739-2.809h1.2a.76.76,0,0,0,0-1.521H85.584a8.273,8.273,0,0,1,.76-2.788l1.035.591a.861.861,0,0,0,.38.106.808.808,0,0,0,.676-.38.784.784,0,0,0-.275-1.056l-1.035-.591a8.579,8.579,0,0,1,2.049-2.049l.591,1.035a.761.761,0,0,0,.676.38.861.861,0,0,0,.38-.106A.779.779,0,0,0,91.1,78.96l-.591-1.035a8.8,8.8,0,0,1,2.788-.76v1.2a.76.76,0,1,0,1.521,0v-1.2a8.274,8.274,0,0,1,2.788.76L96.99,78.96a.784.784,0,0,0,.275,1.056.861.861,0,0,0,.38.106.808.808,0,0,0,.676-.38l.591-1.035a8.579,8.579,0,0,1,2.049,2.049l-1.035.591a.779.779,0,0,0-.275,1.056.761.761,0,0,0,.676.38.861.861,0,0,0,.38-.106l1.035-.591a8.8,8.8,0,0,1,.76,2.788h-1.2a.76.76,0,0,0,0,1.521h1.183a8.636,8.636,0,0,1-.739,2.809l-1.056-.612a.772.772,0,1,0-.781,1.331l1.753.993a.789.789,0,0,0,1.056-.275A10.014,10.014,0,0,0,94.033,75.6Z" fill="#0a0a0a"/><path d="M306.4,240.5l-2.07,1.922a1.753,1.753,0,0,0-.676-.127,1.817,1.817,0,1,0,1.817,1.817,2.3,2.3,0,0,0-.084-.549l2.07-1.943a.77.77,0,1,0-1.056-1.12Z" transform="translate(-209.622 -158.479)" fill="#0a0a0a"/></g></svg>