<svg xmlns="http://www.w3.org/2000/svg" width="21.144" height="21.134" viewBox="0 0 21.144 21.134"><path d="M15.858,0H5.286A5.277,5.277,0,0,0,0,5.265v7.379a5.277,5.277,0,0,0,5.286,5.265H6.872a1.215,1.215,0,0,1,.846.423l1.586,2.1a1.5,1.5,0,0,0,2.537,0l1.586-2.1a1.072,1.072,0,0,1,.846-.423h1.586a5.277,5.277,0,0,0,5.286-5.265V5.265A5.277,5.277,0,0,0,15.858,0ZM11.629,12.422H5.286a.793.793,0,1,1,0-1.586h6.343a.793.793,0,0,1,0,1.586Zm4.229-5.286H5.286a.793.793,0,0,1,0-1.586H15.858a.793.793,0,0,1,0,1.586Z" fill="#0a0a0a"/></svg>