<svg xmlns="http://www.w3.org/2000/svg" width="41.604" height="41.603" viewBox="0 0 41.604 41.603"><g transform="translate(-4.16 -4.16)"><path d="M28.27,7.073v8.466a7.549,7.549,0,0,1-.27,2.1c-.77,3.058-3.308,4.972-6.8,4.972H15.539L9.257,26.793a1.4,1.4,0,0,1-2.184-1.165V22.612a7.068,7.068,0,0,1-5.117-1.935A7.081,7.081,0,0,1,0,15.539V7.073A6.621,6.621,0,0,1,6.241.042C6.511.021,6.781,0,7.073,0H21.2A6.682,6.682,0,0,1,28.27,7.073Z" transform="translate(4.16 18.722)" fill="#ff6302"/><path d="M26.523,28.291a8.789,8.789,0,0,0,6.407-2.434,8.789,8.789,0,0,0,2.434-6.407V8.841A8.833,8.833,0,0,0,26.523,0H8.841A8.833,8.833,0,0,0,0,8.841V10.4a1.03,1.03,0,0,0,1.04,1.04H14.957A10.183,10.183,0,0,1,25.15,21.634v5.617a1.03,1.03,0,0,0,1.04,1.04Z" transform="translate(10.401 4.16)" fill="#ff6302"/></g></svg>