<svg xmlns="http://www.w3.org/2000/svg" xmlns:xlink="http://www.w3.org/1999/xlink" width="283.432" height="174.793" viewBox="0 0 283.432 174.793">
  <defs>
    <clipPath id="clip-path">
      <path id="Path_20033" data-name="Path 20033" d="M884.068,572.814c-5.3,7.944-58.7,12.3-65.642,2.539C807.7,560.279,838.593,517.2,838.593,517.2c-.4-2.059-.473-7.037,1.149-8.979,2.457-2.952-1.2-5.756,1.076-6.393,2.922-.816,5.264,1.945,10.355,3.326,3.016.81,2.6,8.727-.256,13.159a4.171,4.171,0,0,1-2.954,1.716s-11.918,29.326-9.387,34.942c3.14,6.947,18.086-1.051,41.052-4.293C890.611,549.122,886.989,568.435,884.068,572.814Z" transform="translate(-816.162 -501.678)" fill="none"/>
    </clipPath>
    <clipPath id="clip-path-2">
      <path id="Path_20043" data-name="Path 20043" d="M1187.434,897.376c1.359-25.646-7.656-47.967-6.835-62.628.526-9.3-3.5-23.1,11.784-25.341,13.105-1.917,29.3,1.547,32.494,5.073,6.463,7.114,4.116,45.689-2.026,50.95C1210.542,873.289,1197.052,889.523,1187.434,897.376Z" transform="translate(-1180.487 -808.86)" fill="none"/>
    </clipPath>
    <clipPath id="clip-path-3">
      <path id="Path_20046" data-name="Path 20046" d="M998.5,843.421c8.81,3.719,26.751,54.339,16.438,63.77s-78.3-7.183-78.3-7.183c-1.948.778-6.81,1.785-9.035.556-3.348-1.858-1.288-6.007-2.34-8.12-1.349-2.717-10.987,3.4-10.6-1.866.242-3.113,15.866-4.854,20.754-2.882a4.165,4.165,0,0,1,2.252,2.581s48.426,4.485,53.468.944c6.235-4.387-9.393-20.2-6.962-38.082C985.673,842.149,993.665,841.375,998.5,843.421Z" transform="translate(-914.652 -842.526)" fill="none"/>
    </clipPath>
    <clipPath id="clip-path-4">
      <path id="Path_20049" data-name="Path 20049" d="M1253.325,653.739s5.168-3.823,3.962-7.847c-.308-1.057-2.641,1.921-4.744.632-2.873-1.772-3.565-11.988-.321-17.3,2.013-3.294,9.091-5.27,11.4-3.026s3.219,11.809,2.424,16.492c-1.257,7.471,5.552,11.965,5.552,11.965s-11.31,9.052-14.157,16.565c-.833,2.206-4.116-17.479-4.116-17.479Z" transform="translate(-1250.073 -625.236)" fill="none"/>
    </clipPath>
  </defs>
  <g id="a0014bcb1f3f5c56187007bb78dc87a3" transform="translate(-80.572 -433.01)">
    <path id="Path_20027" data-name="Path 20027" d="M321.925,714.155c-40.785,2.776-84.382-30.19-84.382-70.312s64.646-23.024,85.617-54.868c50.245-76.246,151.682,46.448,116.022,60.141-71.453,27.419-19.42,58.372-117.256,65.039Z" transform="translate(-132.776 -110.956)" fill="#f0eff4" fill-rule="evenodd"/>
    <path id="Path_20028" data-name="Path 20028" d="M1134.948,581.177c.022.107.077.207.1.314a7.617,7.617,0,0,1,.176,2.56c-.285,1.873-1.594,3.687-.838,6.06.815,3.361,4.932,5.405,6.04,2.073.635-2.2-.446-4.88-1.655-7.311a27.905,27.905,0,0,0-2.319-3.733,9.255,9.255,0,0,0,2.778-.621c.187-.074.34-.141.528-.216.053.027.14.046.193.073a33.411,33.411,0,0,1,4.632-1.8c2.856-.822,6.474-1.645,6.744-4.7.029-.97-.86-1.944-1.79-2.651a5.843,5.843,0,0,0-4.277-.9,6.743,6.743,0,0,0-5.3,3.749,12.566,12.566,0,0,0-1.048,3.914,7.2,7.2,0,0,0-.033,2.12,10.179,10.179,0,0,1-3.573.629.368.368,0,0,0-.19,0,9.661,9.661,0,0,1-1.37-.064c-.1-2.093.749-4.04,1.5-6.041a12.132,12.132,0,0,0,.66-2.429,8.09,8.09,0,0,0,2.022.343c1.267.084,2.344-.647,1.861-1.85-.863-1.61-3.855-2.392-5.478-2.7a16.575,16.575,0,0,0-4.175-.1,2.9,2.9,0,0,0-.568.075c.815-.791,1.6-1.575,2.358-2.392.681-.69,1.324-1.447,1.986-2.17a21,21,0,0,1,6.142,2.869c2.435,1.559,4.981,3.246,7.476,2.458,2.1-.747,1.987-3.394-.4-5a16.316,16.316,0,0,0-7.89-2.451,18.725,18.725,0,0,0-3.13.06c-.1.02-.224.007-.362.034l1.789-1.909c1.012-1.052,2.042-2.07,3.054-3.122.122.013.277.02.434.026.662.092.939.112,1.62.237,1.694.371,3.413.922,5.1,1.219a19.367,19.367,0,0,0,4.906.183,10.286,10.286,0,0,0,3.43-.749c1.779-.906,1.952-2.98-.583-4.445a12.381,12.381,0,0,0-7.2-1.288,9.615,9.615,0,0,0-2.007.432l-.486-.46.069-.013a33.43,33.43,0,0,1,4.542-1.9c2.082-.707,4.3-1.366,6.558-2.107a17.313,17.313,0,0,1,2.72,1.726c2.595,2.047,4.446,5.353,6.969,7.748,1.73,1.661,6.266,4.587,8.447,4.194,4.5-.812-4.058-7.246-6.094-8.773a50.74,50.74,0,0,0-7.4-4.437,20.8,20.8,0,0,0-2.608-1.118,89.593,89.593,0,0,0,8.672-3.3c.493-.208.968-.45,1.408-.685l.053.027c.334.12.721.266,1.073.419a14.821,14.821,0,0,1,1.943.952c4.489,2.638,7.294,7.239,12.173,9.689,2.052,1.079,4.642,1.755,6.281.8,2.707-2.312-3.288-6.619-6.045-8.411a30.659,30.659,0,0,0-8.258-3.379,26.288,26.288,0,0,0-4.309-.82,8.563,8.563,0,0,0-1.37-.064,48.615,48.615,0,0,0,9.423-6.452c.14.046.3.053.437.1a20.231,20.231,0,0,1,2.371.831,24.543,24.543,0,0,1,5.3,3.071c2.23,1.6,4.472,3.494,7.131,4.157a3.725,3.725,0,0,0,2.606-.179,1.581,1.581,0,0,0,.1-2.133,11.206,11.206,0,0,0-3.4-3,30.642,30.642,0,0,0-3.653-2.1,25.176,25.176,0,0,0-4.8-1.835,33.212,33.212,0,0,0-4.034-.874c.5-.543.993-1.085,1.471-1.661l.034-.007c2.064-1.148,4.485-2,5.863-3.824a4.118,4.118,0,0,0,.979-2.677c.023-1.525-2.179-2.87-3.761-3.041a2.78,2.78,0,0,0-3.175,1.886c-.422,1.492-.04,3.2-.147,4.774a11.415,11.415,0,0,1-.289,2.207.248.248,0,0,0,.009.221c-.578.67-1.156,1.34-1.8,2.023a18.96,18.96,0,0,1-1.5,1.407,4.284,4.284,0,0,0-.394-3.221,3.453,3.453,0,0,0-2.127-1.62c-1.978-.537-2.525.868-1.718,2.377.6,1.216,1.93,2.7,1.879,3.561a4.946,4.946,0,0,1-.022.709.274.274,0,0,0-.007.261,41.023,41.023,0,0,1-4.408,3.018,5.758,5.758,0,0,0,.6-3.973,3.518,3.518,0,0,0-3.331-2.681,4.807,4.807,0,0,0-3.368,1.813c-1.677,1.7-1.958,4.537-2.6,6.591a13.1,13.1,0,0,1-1.269,2.771c-.046.12-.231.268-.206.449-3.921,1.439-7.938,2.638-12.036,3.964a37.008,37.008,0,0,0-5.088,2.077c.694-.8,1.353-1.6,1.993-2.431a2.688,2.688,0,0,0,2.026-.4c.518-.436.291-1.318-.373-1.891.34-.549.715-1.1,1.037-1.687,1.79,1.019,3.516,1.718,4.877,1.153,1.152-.6.27-2.24-.94-3.04a10.581,10.581,0,0,0-1.613-.906,13.108,13.108,0,0,1,1.889-1.187c2.947-1.544,6.458-2.42,8.987-4.439,1.274-.992,2.7-2.052,3.048-3.677a2.268,2.268,0,0,0-.395-2c-2.074-2-4.892-.705-6.488.054a8.907,8.907,0,0,0-3.406,2.969,27.493,27.493,0,0,0-2.05,3.963,17.763,17.763,0,0,1-.918,1.627c.081-.127.144-.288.225-.415.6-1.305,1.1-2.664,1.6-4.022.069-.014.084-.054.153-.067a.222.222,0,0,0,.1-.167.48.48,0,0,0-.078-.207c.015-.04.031-.08.066-.087a.212.212,0,0,0,.237-.121c.894-2.215,3.69-6.139,1.511-9.009a1.616,1.616,0,0,0-1.073-.419,2.085,2.085,0,0,0-1.914,1.415,9.59,9.59,0,0,0-.285,6.025,16.556,16.556,0,0,0,.508,1.791,1.982,1.982,0,0,0,.19.408c-.34.141-.662.316-1,.457a18.555,18.555,0,0,1-.706-3.234c-.2-1.444-.415-3.737-2.125-4.883a1.185,1.185,0,0,0-1.576.385c-.719,1.031-.379,2.521.144,3.864a14.156,14.156,0,0,0,1.833,3.273,8.644,8.644,0,0,0,1.054,1.2l.019.033c-.524.289-1.048.577-1.52.892a35.566,35.566,0,0,0-4.8,4.022c-.15.141-.284.241-.434.382-.2-.294-.371-.594-.54-.895a22.273,22.273,0,0,1-1.408-3.059c-.678-1.757-1.632-4.684-3.909-6.163a1.326,1.326,0,0,0-1.844.178c-.5.8.014,2,.419,2.995a20.794,20.794,0,0,0,3.183,4.934c.764.888,1.509,1.742,2.357,2.576a4.591,4.591,0,0,0,.574.48c-1,.938-2.033,1.883-3.067,2.828a57.831,57.831,0,0,1-2.252-5.451,13.834,13.834,0,0,0-3.017-5.115c-1.276-1.121-2.7-.877-3.071.234-.685,1.84.178,4.265,1.337,6.335a18.254,18.254,0,0,0,2.706,3.471,24.481,24.481,0,0,0,1.961,1.8c.178.113.34.267.518.38-.484.429-.983.9-1.468,1.327l-1.452,1.287c-.034.007-.069.014-.05.046-.034.007-.015.04-.015.04-.369.3-.753.63-1.121.925l-.035.007a29.462,29.462,0,0,0-4.965-7.846,15.373,15.373,0,0,0-3.611-3.182c-1.578-.913-4-1.7-4.219.089-.082,1.759,1.249,3.387,2.864,4.775a8.041,8.041,0,0,0-3.329-.976,2.542,2.542,0,0,0-2.657,2.266c-.1,2.541,2.5,5.07,4.339,7.339,1,1.174,1.921,2.476,1.913,3.553a4.272,4.272,0,0,1-.166,1c-.046.12-.147.214-.072.348a.334.334,0,0,0,.216.18,1.907,1.907,0,0,0-.231.268,1.87,1.87,0,0,0-1.343,1.414.53.53,0,0,1-.025.227.911.911,0,0,1-.147.214,14.866,14.866,0,0,0-.878,1.359,12.122,12.122,0,0,0-.423-5.589c-1.193-3.287-4.567-6.59-5.56-9.656a19.042,19.042,0,0,1-.48-4.465c.175.04.328-.027.356-.181.088-.388.16-.736.266-1.09.325-1.325.594-2.342,1.007-3.646.228-.749.491-1.505.754-2.262l.034-.007a9.892,9.892,0,0,1,1.464-.177,19.724,19.724,0,0,1,4.228.131c2.209.269,4.976,1.467,6.572.3,1.19-.939.189-2.929-1.376-3.955a9.286,9.286,0,0,0-6.043-1.739,7.224,7.224,0,0,0-3.468,1.5q-.265.172-.54.329c.2-.93.373-1.853.6-2.6a53,53,0,0,1,2.485-6.384,2.288,2.288,0,0,0,.484-.021c.415-.008.83-.015,1.229.017a20.917,20.917,0,0,1,3.573.594,35.4,35.4,0,0,0,4.284,1.048c2.019.27,4.013-.049,5.159-1.2,1.059-1.172-.313-2.941-1.994-3.834a11.936,11.936,0,0,0-5.373-1.426,4.9,4.9,0,0,0-5.01,2.692,2.661,2.661,0,0,1-1.408,1.093,3.069,3.069,0,0,1-.565.148c.159-.328.266-.682.406-1.044.791-2.195.958-4.415,2.314-6.35.722-.958,2.261-2.225,3.023-3.45.375-.556.75-1.112,1.072-1.694,2.372-.393,5.37.129,8-.2a3.769,3.769,0,0,0,2.479-1.156c1.065-1.433.064-3.016-2.166-3.8-2.374-.9-4.325.036-5.861.969a6.3,6.3,0,0,0-1.318,1.187,11.594,11.594,0,0,1,.462-1.352,4.905,4.905,0,0,1,1.627-2.063,18.315,18.315,0,0,0,2.46-2,17.429,17.429,0,0,0,1.686-1.073,5.462,5.462,0,0,0,1.8-1.762,2.774,2.774,0,0,0-.622-3.7,2.951,2.951,0,0,0-2.724-.576c-1.8.947-2.006,3.769-1.505,5.82l.364,1.263.019.033c-.334.288-.668.576-1.021.831a9.948,9.948,0,0,0-1.724,1.415c-.031-1.143.4-2.341.318-3.584a7.366,7.366,0,0,0-3.638-5.475c-2.642-1.519-4.74-.364-4.173,2.008a10.738,10.738,0,0,0,1.589,3.246,24.294,24.294,0,0,0,2.684,3.364c.524.527,1.1,1.007,1.69,1.521a3.939,3.939,0,0,0,.57.407,19.589,19.589,0,0,0-.813,2.5,12.039,12.039,0,0,1-1.812,3.434c-.7,1.138-2.22,2.365-3.139,3.584a4.376,4.376,0,0,0-.453.757.63.63,0,0,0-.147-.194,36.87,36.87,0,0,1-.577-4.706,8.93,8.93,0,0,0-4.919-7.558c-1.557-.806-3.581-1.223-4.615-.277-1.165,1.119-.976,3.158.081,4.84,1.487,2.451,4.1,4.458,6.692,6.1a15.064,15.064,0,0,1,2.682,1.659l.037.067a4.2,4.2,0,0,0,.2.628.3.3,0,0,0,.231.14c-.678,1.579-.967,3.378-1.526,4.9-.841,2.242-1.894,4.377-2.735,6.618-.1-.24-.218-.661-.315-.9a32.082,32.082,0,0,1-.949-3.668c-.687-3.2-1.649-7.164-5.629-9.235-5.207-2.423-9.394.515-6.011,5.261,1.855,2.564,4.787,4.4,7.707,5.934a21.88,21.88,0,0,1,4.086,2.532,3.649,3.649,0,0,1,.427.695c.075.133.062.247.187.334l.159.08c-.059.234-.153.475-.213.709-.488,1.579-.745,3.3-1.127,4.93a8.312,8.312,0,0,1-.366,1.184c-.034.007-.015.04-.031.08-.094.241-.153.475-.247.716-1.671-1.9-2.584-4.274-4.211-6.363-1.6-1.835-4.084-3.756-6.51-3.8-3.564.034-1.139,4.636.825,6.51a16.193,16.193,0,0,0,5.771,3.5c.243.842.555,1.67.885,2.532-.237-.287-.509-.567-.745-.854-.671-.721-2.276-2.7-3.262-2.286-.927.59.585,2.406,1.511,3.039a9.268,9.268,0,0,0,2.917,1.464l.034-.007a12.4,12.4,0,0,1,.529,2.306,16.806,16.806,0,0,1,.13,1.865c-.072-.06-.162-.154-.234-.213-.343-.34-.652-.687-.96-1.034a14.275,14.275,0,0,0-2.239-2.228c-1.662-1.267-3.12-.535-1.995,1.134a6.775,6.775,0,0,0,3.9,2.272,4.059,4.059,0,0,1,1.307.632l.019.033c.072.06.109.127.181.187a8.925,8.925,0,0,0,1.2,4.4c1.72,3.072,4.511,6.081,5.121,9.076.385,2.186-.147,4.366-.033,6.68.042,2.661.661,5.468.79,8.149.053.435.105.869.174,1.264q-1.389-1.562-2.928-2.983c-2.121-1.88-4.276-3.755-6.278-5.7a1.793,1.793,0,0,1,.116-.542,7.277,7.277,0,0,1,.838-1.907c.925-1.48,3.076-3.015,3.474-5.1.632-2.682-2.755-4.648-5.259-3.673-2.189,1.061-2.175,3.876-1.957,6.169a17.712,17.712,0,0,0,.566,2.78l-.271-.28c-1.413-1.5-2.759-3.09-4.156-4.631a2.637,2.637,0,0,0-.212-.514,6.709,6.709,0,0,1-.5-1.089,13.469,13.469,0,0,1-.874-4.351c-.042-2.661,1.589-4.65.914-7.557-.333-1.751-2.391-4.2-4.32-3.153a3.043,3.043,0,0,0-1.146,1.56,7.756,7.756,0,0,0-.524,3.217,14.411,14.411,0,0,0,1.032,4.839,23.824,23.824,0,0,0,1.33,2.852c-2.51-2.1-5.252-3.934-7.741-5.927a.272.272,0,0,0-.028-.254,4.108,4.108,0,0,1-.1-.648,5.961,5.961,0,0,1,.348-2.441c1.119-2.222,2.394-4.438,2.261-7.192-.082-3.209-1-8.59-5.475-10.526-3.064-1.25-4.454,1.1-4.468,3.252-.224,3.751,1.848,7.792,3.549,11.646.689,1.57,1.209,2.839,1.754,4.289a23.7,23.7,0,0,1-1.827-1.9,49.637,49.637,0,0,1-4.034-5.842c-1.153-1.923-2.444-3.819-3.6-5.742-.224-.4-.433-.842-.658-1.242a.213.213,0,0,0-.031-.328c-1.631-1.755-2.634-3.411-4.1-5.273a31.384,31.384,0,0,0-8.107-7.672c-1.457-.9-3.039-1.07-3.576.148-.322.99.248,2.213.8,3.328a17.256,17.256,0,0,0,2.048,3.044,28.651,28.651,0,0,0,4.759,4.142,41.755,41.755,0,0,0,6.332,3.684l2.171,1.018a.383.383,0,0,0,.175.04c.745,1.262,1.612,2.537,2.391,3.793a5.593,5.593,0,0,1-.664-.166,15.95,15.95,0,0,1-3.11-1.13c-3.584-1.7-6.928-4.271-10.853-5.426a3.418,3.418,0,0,0-2.113-.029,1.491,1.491,0,0,0-.719,1.847c.514,1.53,2.142,2.8,3.67,3.763,3.553,2.192,7.665,3.681,11.381,3.58a10.716,10.716,0,0,0,3.508-.542l.034-.007a42.858,42.858,0,0,0,3.734,5.308,27.482,27.482,0,0,0,4.266,3.942q.355.3.733.56a28.557,28.557,0,0,1-5.307-1.921c-1.922-.845-3.84-1.617-5.825-2.3-2.368-.757-4.97-1.728-7.17-1.369-1.339.264-1.615,1.541-.664,2.763a12.544,12.544,0,0,0,3.6,2.887,24.59,24.59,0,0,0,7.057,2.8,26.184,26.184,0,0,0,7.351.74,17.74,17.74,0,0,0,4.728-.746c.034-.007.016-.04.016-.04a56.219,56.219,0,0,1,5.451,4.562q1.492,1.541,2.881,3.1a36.122,36.122,0,0,1-7.248-1.168c-3.354-.748-7.516-2.19-9.773-.3-1.393,1.053-.839,3.131,1,4.511a11.368,11.368,0,0,0,5.881,1.993,13.091,13.091,0,0,0,7.765-1.788,20.741,20.741,0,0,1,2.972-1.364,2.486,2.486,0,0,1,.721-.142l.206-.041c.617.694,1.288,1.415,1.94,2.1.253.247.471.5.7.714l.037.067c.037.067.09.093.2.147l1.029,1.021a.25.25,0,0,0,.077.207.7.7,0,0,0,.265.133c1.659,1.6,3.4,3.149,5.18,4.689a44.166,44.166,0,0,1,4.278,4.237c.072.06.128.16.218.254a.67.67,0,0,1-.007.261,27.922,27.922,0,0,0,.554,7.046c-1.446,1.026-3.986.711-5.952,1.283a2.982,2.982,0,0,0-2.389,2.88,5.66,5.66,0,0,0,3.071,4.326c2.43,1.412,4.768.211,5.194-1.616a20.274,20.274,0,0,0,.605-4.16,39.66,39.66,0,0,1,.858,4.8,42.868,42.868,0,0,1,.04,5.108,3.362,3.362,0,0,0,.087.836c.184.26.649.206.6-.081a33.472,33.472,0,0,1,.04-3.6,34.326,34.326,0,0,0-.25-3.51c-.233-1.845-.762-3.743-1.135-5.634l.038-.341a.12.12,0,0,0-.022-.107c.308-.061.306-.134.512-.175a10.249,10.249,0,0,1,3.6-.3c-.046.12-.007.261-.072.348-.041.268-.1.428-.131.582a16.991,16.991,0,0,1-1.2,2.757c-.831,1.647-1.769,3.648-.379,5.857,2.322,3.806,6.779,3.188,5.826-.554-.451-2.1-2.206-4.348-2.873-6.219a3.487,3.487,0,0,1-.086-2.059,1.888,1.888,0,0,1,.185-.555c1.114.151,2.212.343,3.36.488a13.24,13.24,0,0,0,1.7.111Zm-20.113-45.718c-.137-.381-.24-.768-.358-1.116.281.092.6.179.858.239a4.818,4.818,0,0,1,1.6.685l.019.033.053.027c.143.12.237.287.4.367-.015.04,0,.074-.031.08a40.953,40.953,0,0,0-1.129,4.041c-.016.04,0,.073-.031.08A21.447,21.447,0,0,0,1114.834,535.46Zm12.688,34.908a10.15,10.15,0,0,1,2.166.056,8.108,8.108,0,0,1,1,.212,6.04,6.04,0,0,0-.854,2.763,5.21,5.21,0,0,0-1.232-.907,8.03,8.03,0,0,0-2.708-1.024l-.019-.034c.281-.315.562-.63.862-.911l.034-.007a2.737,2.737,0,0,1,.755-.149Zm10.235-12.285a18.482,18.482,0,0,0-1.27-4.31,28.991,28.991,0,0,0-1.306-2.672,3.279,3.279,0,0,0-.3-.461l.553-.443a23.2,23.2,0,0,1,3.768,2.372c.714.527,1.484,1.154,2.3,1.733-1.227,1.28-2.507,2.533-3.753,3.779Zm12.685-21.182a20.858,20.858,0,0,1,3.075-1.792c.222-.081.39-.188.612-.269-.391,1-.763,2.041-1.207,3.018s-.94,1.928-1.438,2.878a.222.222,0,0,0-.1.167c-.031.08-.081.127-.113.207a14.594,14.594,0,0,0-3.417-.588c-.555-.039-1.077-.085-1.613-.09,1.4-1.24,2.77-2.473,4.2-3.532Zm-5.3,4.566a39.865,39.865,0,0,1,4.5,2.6c-.341.549-.647,1.091-1.006,1.607a6.452,6.452,0,0,0-1.95-.691,16.506,16.506,0,0,0-5.027-.2C1142.817,543.7,1144.016,542.578,1145.146,541.467Zm-5.665,5.267a4.1,4.1,0,0,0,.35-.328c.228.067.487.052.715.119.874.2,1.785.464,2.661.736a35.385,35.385,0,0,0,3.538,1.009c-.64.831-1.334,1.634-2.027,2.438a10.956,10.956,0,0,0-2.842-1.331,13.524,13.524,0,0,0-2.761-.643c-.609-.066-1.2-.1-1.788-.13q1.129-.946,2.154-1.871Zm-12.007,7.962a12.637,12.637,0,0,0,1.484-3c.318.568.636,1.135,1.007,1.73a36.054,36.054,0,0,0-3.166,2.514l.675-1.246Zm-1.007,2.422a35.084,35.084,0,0,1,3.865-3.171,31.316,31.316,0,0,0,3.811,4.625c.486.461,1.026.947,1.528,1.367a1.25,1.25,0,0,0,.2.147c-.812.864-1.605,1.762-2.4,2.66a.215.215,0,0,0-.206.041.185.185,0,0,0-.075.274c-.447.5-.859.985-1.324,1.447a20.135,20.135,0,0,0-1.286-4.27C1129.724,558.442,1128.312,556.941,1126.467,557.119Zm-2.94,14.148c-.179-3.042-.873-5.982-.8-8.851.01-.187,0-.408.01-.595.365.039.412-.489.593-.71.209-.375.438-.716.666-1.058a8.316,8.316,0,0,0,1.667,2.637,12.173,12.173,0,0,0,3.606,2.219,5.273,5.273,0,0,1,.677.46c.019.033.091.094.109.127.053.027.147.194.2.22a1.2,1.2,0,0,1,.168.3c-1.262,1.286-2.629,2.52-3.925,3.813a11.946,11.946,0,0,0,0-2.855,3.808,3.808,0,0,0-.794-2.031,1.12,1.12,0,0,0-1.463-.231,1.591,1.591,0,0,0-.347,1.218,9.04,9.04,0,0,0,.625,2.546,14.651,14.651,0,0,1,.626,2.138,2.841,2.841,0,0,1,.074.541q-.768.874-1.48,1.848c-.06-.581-.153-1.157-.212-1.738Zm1.426,8.876a4.565,4.565,0,0,0-.684.209l-.034.007c-.255-1.544-.466-3.282-.552-4.525a3.459,3.459,0,0,1,0-.742.235.235,0,0,0,.178.113c.281.092.481-.095.331-.362-.059-.174-.084-.355-.143-.528.137-.027.237-.121.2-.261.034-.007.034-.007.087.02a4.529,4.529,0,0,1,1.011.172c.649.206,1.816.792,2.727,1.057a3.322,3.322,0,0,0,1.807.163,7.743,7.743,0,0,0,.243,1.25,10.635,10.635,0,0,0,1.686,3.487c.037.067.109.127.147.193-2.231-.376-4.983-.8-7-.253Z" transform="translate(-834.356 -49.903)" fill="#dad8e4"/>
    <path id="Path_20029" data-name="Path 20029" d="M339.117,592.781c-14.061,3.321-35.182,15.391-40.048-6.961-3.333-15.315,36.253-14.007,44.474-22.493,18.086-18.667,45.923-1.779,34.02,4.222C353.711,579.567,372.848,584.813,339.117,592.781Z" transform="translate(-184.651 -103.011)" fill="#f0eff4" fill-rule="evenodd"/>
    <path id="Path_20030" data-name="Path 20030" d="M884.068,572.814c-5.3,7.944-58.7,12.3-65.642,2.539C807.7,560.279,838.593,517.2,838.593,517.2c-.4-2.059-.473-7.037,1.149-8.979,2.457-2.952-1.2-5.756,1.076-6.393,2.922-.816,5.264,1.945,10.355,3.326,3.016.81,2.6,8.727-.256,13.159a4.171,4.171,0,0,1-2.954,1.716s-11.918,29.326-9.387,34.942c3.14,6.947,18.086-1.051,41.052-4.293C890.611,549.122,886.989,568.435,884.068,572.814Z" transform="translate(-622.21 -58.084)" fill="#ffc197" fill-rule="evenodd"/>
    <g id="Group_24808" data-name="Group 24808" transform="translate(193.952 443.594)" clip-path="url(#clip-path)">
      <path id="Path_20031" data-name="Path 20031" d="M1048.739,782.9c2.01,1.541,2.485,5.192,2.826,7.476a15.129,15.129,0,0,1-.555,7.218c-1.213,3.5-3.728,6.366-4.762,9.931a13.922,13.922,0,0,0,.315,8.246,10.75,10.75,0,0,0,1.873,3.343c4.858,5.855,14.861,3.669,21,1.611,6.9-2.317,13.723-6.732,17.285-13.279,5.526-10.15.513-22.671-9.008-28.3a27.19,27.19,0,0,0-12.4-3.682,26.505,26.505,0,0,0-15,3.4Z" transform="translate(-1010.377 -733.229)" fill="#fe9400" fill-rule="evenodd"/>
      <path id="Path_20032" data-name="Path 20032" d="M716.371,601.559c-3.449,6.509-7.9,20.742-10.22,27.688-2.962,8.919-4.142,15.679.41,23.665,5.386,9.475,23.364,5.772,32.16,3.338q2.912-.808,5.745-1.867a56.618,56.618,0,0,0,7.732-3.506,50.114,50.114,0,0,0,13.246-11.224c1.1-1.267,2.09-2.651,3.257-3.856.346-.36.872-.891,1.436-.826.949.109,1.167,1.859,1.295,2.54a36.516,36.516,0,0,1,.257,8.613c-.757,11.246-4.411,22.48-14.465,28.623-6.206,3.794-13.939,4.974-21.017,6.013s-14.5,1.973-21.658,1.321c-12.772-1.164-26.249-6.714-33.238-18.041-8.078-13.121-4.36-30.656,2.27-43.563a53.544,53.544,0,0,1,5.835-9.131c4.424-5.495,10.348-10.5,17.337-12.174Z" transform="translate(-698.206 -584.145)" fill="rgba(0,0,0,0.1)" fill-rule="evenodd"/>
    </g>
    <path id="Path_20034" data-name="Path 20034" d="M147.339,502.131a4.547,4.547,0,0,0-3.2-1.9,5.327,5.327,0,0,0-3.862.869L82.063,543a3.11,3.11,0,0,0-1.008,4.293L154.318,662.62a4.581,4.581,0,0,0,3.206,1.917,5.327,5.327,0,0,0,3.862-.87l58.215-41.9a3.109,3.109,0,0,0,1.008-4.293Zm-.875.354,73.273,115.339a2.43,2.43,0,0,1-.8,3.354l-58.215,41.9a4.228,4.228,0,0,1-3.023.69,3.538,3.538,0,0,1-2.509-1.506L81.93,546.943a2.433,2.433,0,0,1,.786-3.369l58.215-41.9a4.227,4.227,0,0,1,3.023-.689,3.564,3.564,0,0,1,2.51,1.506Z" transform="translate(0 -56.802)" fill="#77536f" fill-rule="evenodd"/>
    <path id="Path_20035" data-name="Path 20035" d="M231.546,502.382a1.439,1.439,0,0,0-.965-.654,1.489,1.489,0,0,0-1.125.238l-62.045,44.661a1.47,1.47,0,0,0-.373,1.984l72.547,114.2a1.4,1.4,0,0,0,.956.64,1.424,1.424,0,0,0,1.126-.238l62.044-44.661a1.455,1.455,0,0,0,.382-1.97Z" transform="translate(-72.941 -58.105)" fill="#a9a5c6" fill-rule="evenodd"/>
    <path id="Path_20036" data-name="Path 20036" d="M628.973,1071.122a7.367,7.367,0,0,0-5.2-3.109,8.691,8.691,0,0,0-6.263,1.413L585.09,1092.76c-4.131,2.973-5.244,7.772-2.733,11.725a7.363,7.363,0,0,0,5.2,3.107,8.687,8.687,0,0,0,6.255-1.407l32.424-23.34c4.122-2.967,5.245-7.77,2.734-11.723Zm-.7.279v0c2.351,3.7,1.3,8.2-2.561,10.978l-32.425,23.34a7.764,7.764,0,0,1-5.589,1.258,6.612,6.612,0,0,1-4.645-2.774c-2.351-3.7-1.3-8.2,2.562-10.978l32.424-23.34a7.73,7.73,0,0,1,5.58-1.254,6.588,6.588,0,0,1,4.653,2.769Z" transform="translate(-423.316 -537.045)" fill="#fff" fill-rule="evenodd"/>
    <path id="Path_20037" data-name="Path 20037" d="M740.611,998.823a8.923,8.923,0,0,0-12.744-2.454l-41.483,29.86a10.108,10.108,0,0,0-2.626,13.63,8.919,8.919,0,0,0,12.744,2.454l41.483-29.86a10.116,10.116,0,0,0,2.627-13.628Z" transform="translate(-508.878 -475.104)" fill="#77536f" fill-rule="evenodd"/>
    <path id="Path_20038" data-name="Path 20038" d="M490.14,863.441a3.6,3.6,0,0,0-5.148-.989l-40.556,29.193a4.058,4.058,0,0,0-1.056,5.471,3.6,3.6,0,0,0,5.14.994l40.564-29.2a4.056,4.056,0,0,0,1.057-5.47Zm8.629,13.58a3.6,3.6,0,0,0-5.148-.989l-40.556,29.194a4.057,4.057,0,0,0-1.056,5.471,3.6,3.6,0,0,0,5.14.994l40.564-29.2a4.057,4.057,0,0,0,1.057-5.47Z" transform="translate(-306.351 -362.674)" fill="#fff" fill-rule="evenodd"/>
    <g id="Group_24809" data-name="Group 24809" transform="translate(187.312 532.866)">
      <path id="Path_20039" data-name="Path 20039" d="M774.108,1104.228l1.133-.935a1.029,1.029,0,0,0,.821.3,2.119,2.119,0,0,0,1.005-.445,2.4,2.4,0,0,0,.776-.805.629.629,0,0,0,.038-.616.358.358,0,0,0-.288-.166,1.337,1.337,0,0,0-.553.136c-.159.067-.523.241-1.089.514a4.766,4.766,0,0,1-1.636.573,1.008,1.008,0,0,1-1.21-1.229,2.245,2.245,0,0,1,.482-.967,5.516,5.516,0,0,1,1.094-.995,4.184,4.184,0,0,1,1.93-.888,1.215,1.215,0,0,1,1.181.493l-1.186.909a.756.756,0,0,0-.633-.22,2.045,2.045,0,0,0-.861.413,2.407,2.407,0,0,0-.73.748.359.359,0,0,0-.031.4.342.342,0,0,0,.345.125,5.054,5.054,0,0,0,1.293-.524,9.744,9.744,0,0,1,1.51-.642,1.877,1.877,0,0,1,.935-.053,1.08,1.08,0,0,1,.661.494,1.216,1.216,0,0,1,.141.884,2.264,2.264,0,0,1-.52,1.05,6.058,6.058,0,0,1-1.207,1.091,4.222,4.222,0,0,1-1.987.9,1.639,1.639,0,0,1-1.414-.541Zm4.587-6.34-.471-.742,1.153-.83.471.742Zm2.191,3.448-1.931-3.038,1.153-.83,1.931,3.039Zm2.356-1.409,1.389-.832a.3.3,0,0,0,.289.11,1.423,1.423,0,0,0,.576-.287,2.514,2.514,0,0,0,.618-.58.6.6,0,0,0,.1-.364,1,1,0,0,0-.18-.412l-.281-.442a2.414,2.414,0,0,1-.992,1.43,2.23,2.23,0,0,1-1.721.483,1.527,1.527,0,0,1-1.056-.727,1.692,1.692,0,0,1-.205-1.546,2.736,2.736,0,0,1,1.054-1.347,2.252,2.252,0,0,1,1.647-.47l-.271-.426,1.079-.776,1.733,2.728a2.381,2.381,0,0,1,.384.892,1.381,1.381,0,0,1-.09.678,2.512,2.512,0,0,1-.465.677,5.748,5.748,0,0,1-.916.786,4.128,4.128,0,0,1-1.743.865.851.851,0,0,1-.89-.337A.769.769,0,0,1,783.242,1099.928Zm-.1-2.519a.957.957,0,0,0,.72.515,1.227,1.227,0,0,0,.807-.255,1.49,1.49,0,0,0,.569-.743,1.009,1.009,0,0,0-.145-.89.952.952,0,0,0-.723-.505,1.316,1.316,0,0,0-.854.281,1.391,1.391,0,0,0-.541.716,1.041,1.041,0,0,0,.167.881Zm9.186-4.306-1.153.83-.984-1.55a1.89,1.89,0,0,0-.481-.584.609.609,0,0,0-.38-.052,1.117,1.117,0,0,0-.453.207,1.612,1.612,0,0,0-.466.5.862.862,0,0,0-.132.54,2.257,2.257,0,0,0,.356.761l.873,1.375-1.153.83-1.931-3.039,1.072-.772.284.447a2.741,2.741,0,0,1,1.11-1.546,3.218,3.218,0,0,1,.761-.413,1.547,1.547,0,0,1,.632-.1.905.905,0,0,1,.441.176,1.927,1.927,0,0,1,.406.495Zm.842-6.713,1.216-.875,1.442,2.27a4.151,4.151,0,0,0,.488.667.818.818,0,0,0,.64.144,2.755,2.755,0,0,0,1.583-1.132.788.788,0,0,0,.091-.59,3.74,3.74,0,0,0-.4-.745l-1.473-2.319,1.216-.875,1.4,2.2a4.492,4.492,0,0,1,.579,1.141,1.35,1.35,0,0,1-.025.781,2.794,2.794,0,0,1-.5.858,5.749,5.749,0,0,1-1.074.956,5.625,5.625,0,0,1-1.4.8,2.2,2.2,0,0,1-.927.151,1.221,1.221,0,0,1-.643-.221,4.187,4.187,0,0,1-.8-.978Zm6.774-3.2,1.079-.776.284.447a1.948,1.948,0,0,1,.328-.777,2.7,2.7,0,0,1,.7-.71,2.434,2.434,0,0,1,1.555-.515,1.5,1.5,0,0,1,1.264.768,1.779,1.779,0,0,1,.219,1.568,2.682,2.682,0,0,1-1.031,1.354,2.552,2.552,0,0,1-.714.371,2.641,2.641,0,0,1-.839.1l.974,1.533-1.153.83Zm2.073.646a1.025,1.025,0,0,0,.776.546,1.281,1.281,0,0,0,.864-.264,1.329,1.329,0,0,0,.525-.712,1.115,1.115,0,0,0-.2-.921.978.978,0,0,0-.724-.521,1.26,1.26,0,0,0-.829.262,1.411,1.411,0,0,0-.556.734A1.006,1.006,0,0,0,802.015,1083.838Z" transform="translate(-773.079 -1080.86)" fill="#fff"/>
    </g>
    <ellipse id="Ellipse_661" data-name="Ellipse 661" cx="19.251" cy="15.962" rx="19.251" ry="15.962" transform="translate(119.192 494.822) rotate(-43.2)" fill="#fff"/>
    <path id="Path_20040" data-name="Path 20040" d="M447.056,788.181a6.411,6.411,0,0,1-5.468-2.9c-2.16-3.4-.75-8.445,3.157-11.257s8.847-2.337,11.007,1.064a7.69,7.69,0,0,1-.007,7.614c5.3-1.782,10.036-.9,11.231,2.391,1.4,3.864-2.628,9.6-8.98,12.789s-12.663,2.654-14.062-1.209c-.872-2.456.421-5.662,3.121-8.495Z" transform="translate(-304.514 -286.904)" fill="#d1cfe1" fill-rule="evenodd"/>
    <path id="Path_20041" data-name="Path 20041" d="M1187.434,897.376c1.359-25.646-7.656-47.967-6.835-62.628.526-9.3-3.5-23.1,11.784-25.341,13.105-1.917,29.3,1.547,32.494,5.073,6.463,7.114,4.116,45.689-2.026,50.95C1210.542,873.289,1197.052,889.523,1187.434,897.376Z" transform="translate(-930.38 -317.918)" fill="#fe9400" fill-rule="evenodd"/>
    <g id="Group_24810" data-name="Group 24810" transform="translate(250.107 490.941)" clip-path="url(#clip-path-2)">
      <path id="Path_20042" data-name="Path 20042" d="M1244.6,936.749a15.3,15.3,0,0,0-2.167,4.861,30.283,30.283,0,0,0-.769,13.131c.59,4.408,1.757,8.975.962,13.434-.6,3.3-2.372,6.026-4.1,8.826-4.347,7.044-6.912,9.357-12.8,14.58-3.347,2.959-9.874,15.125-8.886,19.859.68,3.3,5.9.1,7.861-.913,5.322-2.743,10.079-6.6,15.272-9.611,7.412-4.31,15.747-8.032,21.3-14.816,7.373-9.017,8.258-22.651,5.424-33.582-1.347-5.2-3.719-10.65-8.4-13.635Z" transform="translate(-1211.153 -917.037)" fill="rgba(0,0,0,0.1)" fill-rule="evenodd"/>
    </g>
    <path id="Path_20044" data-name="Path 20044" d="M998.5,843.421c8.81,3.719,26.751,54.339,16.438,63.77s-78.3-7.183-78.3-7.183c-1.948.778-6.81,1.785-9.035.556-3.348-1.858-1.288-6.007-2.34-8.12-1.349-2.717-10.987,3.4-10.6-1.866.242-3.113,15.866-4.854,20.754-2.882a4.165,4.165,0,0,1,2.252,2.581s48.426,4.485,53.468.944c6.235-4.387-9.393-20.2-6.962-38.082C985.673,842.149,993.665,841.375,998.5,843.421Z" transform="translate(-705.519 -346.395)" fill="#ffc197" fill-rule="evenodd"/>
    <g id="Group_24811" data-name="Group 24811" transform="translate(209.133 496.13)" clip-path="url(#clip-path-3)">
      <path id="Path_20045" data-name="Path 20045" d="M1309.8,826.291c1.137-2.264,4.634-3.415,6.813-4.178a15.135,15.135,0,0,1,7.193-.81c3.667.534,6.952,2.468,10.648,2.814a13.922,13.922,0,0,0,8.041-1.857,10.749,10.749,0,0,0,2.932-2.467c4.84-5.87.817-15.286-2.356-20.925-3.571-6.346-9.186-12.216-16.285-14.487-11.007-3.524-22.365,3.749-26.108,14.157a27.192,27.192,0,0,0-1.291,12.868,26.5,26.5,0,0,0,6.15,14.1Z" transform="translate(-1239.862 -792.583)" fill="#fe9400" fill-rule="evenodd"/>
    </g>
    <path id="Path_20047" data-name="Path 20047" d="M1253.325,653.739s5.168-3.823,3.962-7.847c-.308-1.057-2.641,1.921-4.744.632-2.873-1.772-3.565-11.988-.321-17.3,2.013-3.294,9.091-5.27,11.4-3.026s3.219,11.809,2.424,16.492c-1.257,7.471,5.552,11.965,5.552,11.965s-11.31,9.052-14.157,16.565c-.833,2.206-4.116-17.479-4.116-17.479Z" transform="translate(-989.24 -162.598)" fill="#ffc197" fill-rule="evenodd"/>
    <g id="Group_24812" data-name="Group 24812" transform="translate(260.833 462.638)" clip-path="url(#clip-path-4)">
      <path id="Path_20048" data-name="Path 20048" d="M1287.718,736.585a4.61,4.61,0,0,0,1.052-1.013,21.554,21.554,0,0,0,1.949-2.417c.218-.339.436-.685.68-1.02.051-.085.192-.331.321-.331s.051.423.039.478a10.27,10.27,0,0,1-.41,1.744,16.414,16.414,0,0,1-3.706,5.877Z" transform="translate(-1281.85 -715.379)" fill="rgba(0,0,0,0.1)" fill-rule="evenodd"/>
    </g>
    <path id="Path_20050" data-name="Path 20050" d="M1248.469,617.068a4.982,4.982,0,0,1-2.6-1.194c-2.859-2.2-2.666-6.036-.18-8.452,1.5-1.45,4.578-2.418,6.014-.377a3.632,3.632,0,0,1,2.154-1.1,5.331,5.331,0,0,1,1.821-.159c4.18.563,3.206,5.817,6.386,7.5,1.039-.668,2.18,1.516,2.385,2.181.705,2.315.4,6.271-2.27,7.194a3.3,3.3,0,0,1-1.346,1.418c-1.449,1-3.783,1.709-5.4.68a2.614,2.614,0,0,1-.526-.449c-1.154-1.284.064-2.747.449-4.08a2,2,0,0,0-.243-2.135c-.5-.433-1-.187-1.4.231-.6.637-.936,1.641-1.9,1.821-1.385.256-2.731-1.075-3.167-2.008A6.859,6.859,0,0,1,1248.469,617.068Z" transform="translate(-983.909 -146.128)" fill-rule="evenodd"/>
    <g id="Group_24813" data-name="Group 24813" transform="translate(199.388 433.01)">
      <path id="Path_20051" data-name="Path 20051" d="M907.758,460.75a2.41,2.41,0,0,0-1.347-2.165l-51.5-25.33a2.418,2.418,0,0,0-3.479,2.166v8.524a2.423,2.423,0,0,0,1.347,2.165l51.514,25.335a2.408,2.408,0,0,0,3.469-2.172Z" transform="translate(-851.427 -433.01)" fill="#77536f" fill-rule="evenodd"/>
      <path id="Path_20052" data-name="Path 20052" d="M886.541,481.407l-1.1-1.24,1.426-1.449-2.521-1.907.337-1.074,2.521,1.907-.134-2.629,1.3.576.133,2.629,2.439.282.464,1.428-2.439-.282,1.642,2.8-1.017.307-1.634-2.8Zm9.072,4.456-1.1-1.24,1.426-1.449-2.521-1.907.337-1.074,2.521,1.907-.133-2.629,1.3.576.133,2.629,2.438.282.464,1.427-2.439-.282,1.642,2.8-1.017.307-1.634-2.8Zm9.721,4.336-1.1-1.24,1.426-1.449-2.521-1.907.337-1.074L906,486.436l-.133-2.629,1.3.576.133,2.629,2.438.282.464,1.428-2.439-.282,1.642,2.8-1.017.307-1.634-2.8Zm9.492,5.114-1.1-1.24,1.426-1.449-2.521-1.907.337-1.074,2.521,1.907-.133-2.629,1.3.576.133,2.629,2.438.282.464,1.427-2.439-.282,1.642,2.8-1.017.307-1.634-2.8Zm10.017,4.926-1.1-1.24,1.426-1.449-2.521-1.907.337-1.074,2.521,1.907-.133-2.629,1.3.576.134,2.629,2.438.282.464,1.428-2.439-.282,1.642,2.8-1.017.307-1.634-2.8Z" transform="translate(-879.275 -468.54)" fill="#fff" fill-rule="evenodd"/>
    </g>
    <path id="Path_20053" data-name="Path 20053" d="M1006.589,593.931c.8-.909,5.614-3.1,6.878-3.276,2.015-.3,3.911,1.024,3.213,2.94-.277.737-6.374,2.43-8.05,2.491C1007.943,596.106,1006.269,594.291,1006.589,593.931Z" transform="translate(-783.252 -133.311)" fill="#ffc197" fill-rule="evenodd"/>
  </g>
</svg>
