<svg xmlns="http://www.w3.org/2000/svg" width="15" height="15" viewBox="0 0 15 15"><g transform="translate(0 0)"><g transform="translate(0 0)"><path d="M1.956-.75A2.706,2.706,0,1,1-.75,1.956,2.709,2.709,0,0,1,1.956-.75Zm0,4.475A1.769,1.769,0,1,0,.187,1.956,1.771,1.771,0,0,0,1.956,3.725Z" transform="translate(5.544 5.544)" fill="#656565"/><path d="M5.835,10.531A7.363,7.363,0,0,1-.254,6.764a3.8,3.8,0,0,1,0-3.747A7.362,7.362,0,0,1,5.835-.75a7.363,7.363,0,0,1,6.089,3.767,3.8,3.8,0,0,1,0,3.747A7.362,7.362,0,0,1,5.835,10.531Zm0-10.344A6.451,6.451,0,0,0,.537,3.52a2.86,2.86,0,0,0,0,2.74,6.452,6.452,0,0,0,5.3,3.333,6.451,6.451,0,0,0,5.3-3.333,2.86,2.86,0,0,0,0-2.74A6.452,6.452,0,0,0,5.835.187Z" transform="translate(1.665 2.606)" fill="#656565"/><path d="M0,0H15V15H0Z" transform="translate(15 15) rotate(180)" fill="none" opacity="0"/></g></g></svg>