<svg xmlns="http://www.w3.org/2000/svg" width="15" height="15" viewBox="0 0 15 15"><g transform="translate(0 0)"><g transform="translate(0 0)"><path d="M1.956-.75A2.706,2.706,0,1,1-.75,1.956,2.709,2.709,0,0,1,1.956-.75Zm0,4.475A1.769,1.769,0,1,0,.187,1.956,1.771,1.771,0,0,0,1.956,3.725Z" transform="translate(5.544 5.544)" fill="#656565"/><path d="M5.835,10.531A7.363,7.363,0,0,1-.254,6.764a3.8,3.8,0,0,1,0-3.747A7.362,7.362,0,0,1,5.835-.75a7.363,7.363,0,0,1,6.089,3.767,3.8,3.8,0,0,1,0,3.747A7.362,7.362,0,0,1,5.835,10.531Zm0-10.344A6.451,6.451,0,0,0,.537,3.52a2.86,2.86,0,0,0,0,2.74,6.452,6.452,0,0,0,5.3,3.333,6.451,6.451,0,0,0,5.3-3.333,2.86,2.86,0,0,0,0-2.74A6.452,6.452,0,0,0,5.835.187Z" transform="translate(1.665 2.606)" fill="#656565"/><path d="M0,0H15V15H0Z" transform="translate(15 15) rotate(180)" fill="none" opacity="0"/></g></g><g transform="translate(0.001 0)"><path d="M1.96-.75A2.691,2.691,0,0,1,3.875.045a.469.469,0,0,1,0,.664L.708,3.875a.469.469,0,0,1-.664,0A2.691,2.691,0,0,1-.75,1.96,2.713,2.713,0,0,1,1.96-.75ZM2.835.42A1.771,1.771,0,0,0,.42,2.835Z" transform="translate(5.541 5.541)" fill="#656565"/><path d="M1.838,8.975a.467.467,0,0,1-.306-.114A9.407,9.407,0,0,1-.254,6.774a3.8,3.8,0,0,1,0-3.753A7.372,7.372,0,0,1,5.843-.75,6.5,6.5,0,0,1,9.768.621a.469.469,0,1,1-.565.749A5.574,5.574,0,0,0,5.843.189,6.46,6.46,0,0,0,.538,3.526a2.864,2.864,0,0,0,0,2.743A8.471,8.471,0,0,0,2.144,8.15a.469.469,0,0,1-.306.825Z" transform="translate(1.666 2.615)" fill="#656565"/><path d="M1.96,7.911a6.217,6.217,0,0,1-2.423-.5A.469.469,0,0,1-.713,6.8.469.469,0,0,1-.1,6.546a5.284,5.284,0,0,0,2.058.426A6.46,6.46,0,0,0,7.265,3.635a2.864,2.864,0,0,0,0-2.743A9.607,9.607,0,0,0,6.632.014.469.469,0,0,1,6.7-.646a.469.469,0,0,1,.66.072,10.529,10.529,0,0,1,.694.963,3.8,3.8,0,0,1,0,3.752A7.372,7.372,0,0,1,1.96,7.911Z" transform="translate(5.53 5.223)" fill="#656565"/><path d="M-.281,1.954a.469.469,0,0,1-.461-.384.469.469,0,0,1,.376-.547A1.763,1.763,0,0,0,1.022-.366a.469.469,0,0,1,.547-.376A.469.469,0,0,1,1.946-.2,2.655,2.655,0,0,1,1.2,1.2a2.655,2.655,0,0,1-1.4.742A.472.472,0,0,1-.281,1.954Z" transform="translate(8.21 8.216)" fill="#656565"/><path d="M-.281,4.863a.468.468,0,0,1-.332-.137.469.469,0,0,1,0-.664L4.062-.613a.469.469,0,0,1,.664,0,.469.469,0,0,1,0,.664L.051,4.726A.468.468,0,0,1-.281,4.863Z" transform="translate(1.532 9.353)" fill="#656565"/><path d="M-.281,4.863a.468.468,0,0,1-.332-.137.469.469,0,0,1,0-.664L4.062-.613a.469.469,0,0,1,.664,0,.469.469,0,0,1,0,.664L.051,4.726A.468.468,0,0,1-.281,4.863Z" transform="translate(9.353 1.532)" fill="#656565"/><path d="M0,0H15V15H0Z" transform="translate(14.999 14.999) rotate(180)" fill="none" opacity="0"/></g></svg>