<svg xmlns="http://www.w3.org/2000/svg" width="12.936" height="12.936" viewBox="0 0 12.936 12.936"><g transform="translate(-0.718 6.469) rotate(-45)"><path d="M5.177.151,1.735,1.295c-2.313.774-2.313,2.035,0,2.805l1.021.339L3.1,5.46c.77,2.313,2.035,2.313,2.805,0L7.048,2.023C7.559.479,6.72-.363,5.177.151ZM5.3,2.2,3.85,3.658a.285.285,0,0,1-.4,0,.288.288,0,0,1,0-.4L4.895,1.8a.286.286,0,1,1,.4.4Z" transform="translate(5.347 0) rotate(48)" fill="#fff"/><path d="M0,0H9.147V9.147H0Z" transform="translate(9.655 9.654) rotate(180)" fill="none" opacity="0"/></g></svg>