<svg id="vuesax_bold_ranking" data-name="vuesax/bold/ranking" xmlns="http://www.w3.org/2000/svg" width="29.98" height="23.734" viewBox="0 0 29.98 23.734">
  <g id="ranking" transform="translate(0 0)">
    <path id="Vector" d="M0,0H29.98V23.734H0Z" fill="none" opacity="0"/>
    <path id="Vector-2" data-name="Vector" d="M10.99,1.338l1.649,3.3a2.026,2.026,0,0,0,1.324.974l2.986.5c1.911.325,2.361,1.7.987,3.073l-2.323,2.336a2.039,2.039,0,0,0-.487,1.7l.662,2.886c.525,2.273-.687,3.16-2.7,1.974l-2.8-1.661a2.013,2.013,0,0,0-1.849,0L5.631,18.065c-2.011,1.187-3.223.3-2.7-1.974L3.6,13.205a2.063,2.063,0,0,0-.487-1.7L.8,9.2c-1.374-1.374-.924-2.761.987-3.073l2.986-.5a2.067,2.067,0,0,0,1.324-.974l1.649-3.3C8.629-.448,10.1-.448,10.99,1.338Z" transform="translate(5.624 2.547)" fill="#a3a6aa"/>
  </g>
</svg>
