<svg xmlns="http://www.w3.org/2000/svg" width="12.449" height="11.793" viewBox="0 0 12.449 11.793"><path d="M313.579,2634.155l-2.04,1.96.482,2.766a1.194,1.194,0,0,1-.476,1.174,1.227,1.227,0,0,1-1.293.1l-2.527-1.308-2.527,1.308a1.225,1.225,0,0,1-1.293-.1,1.2,1.2,0,0,1-.476-1.174l.482-2.766-2.04-1.96a1.192,1.192,0,0,1-.313-1.233,1.207,1.207,0,0,1,.988-.827l2.823-.4,1.262-2.52a1.226,1.226,0,0,1,2.186,0l1.262,2.52,2.823.4a1.207,1.207,0,0,1,.987.827A1.191,1.191,0,0,1,313.579,2634.155Z" transform="translate(-301.5 -2628.5)" fill="#ff6302"/></svg>