<svg xmlns="http://www.w3.org/2000/svg" width="23.815" height="19.354" viewBox="0 0 23.815 19.354">
  <g id="scooter-svgrepo-com" transform="translate(0 -1.499)">
    <path id="Path_20005" data-name="Path 20005" d="M18.412,10.378a5.463,5.463,0,0,0-3.721,1.488H10.657a.967.967,0,0,1-.566-.193L7.442,9.589V5.124h2.977V3.263H6.1a4.331,4.331,0,0,0-.491-.551,3.483,3.483,0,0,0-1.146-.744A3.93,3.93,0,0,0,2.977,1.7V5.124h2.6v4.7a.923.923,0,0,1-.134.476L3.26,13.95A3.543,3.543,0,0,0,0,17.329a3.587,3.587,0,0,0,3.721,3.423,3.587,3.587,0,0,0,3.721-3.423H23.815V15.543a5.269,5.269,0,0,0-5.4-5.165Zm0,1.861a3.409,3.409,0,0,1,3.543,3.3h-7.07a3.409,3.409,0,0,1,3.528-3.3ZM3.721,18.892a1.727,1.727,0,0,1-1.861-1.563A1.727,1.727,0,0,1,3.721,15.84a1.727,1.727,0,0,1,1.861,1.488,1.727,1.727,0,0,1-1.861,1.563Z" transform="translate(0 0.098)" fill="#a3a6aa"/>
    <path id="Path_20006" data-name="Path 20006" d="M17.217,1.5H11.635A1.861,1.861,0,0,0,9.7,3.361V7.826a1.861,1.861,0,0,0,1.935,1.861h5.656a1.861,1.861,0,0,0,1.786-1.861V3.361A1.861,1.861,0,0,0,17.217,1.5ZM13.674,18.99a1.741,1.741,0,0,1-1.861-1.563H9.953a3.587,3.587,0,0,0,3.721,3.423A3.587,3.587,0,0,0,17.4,17.427H15.535a1.727,1.727,0,0,1-1.861,1.563Z" transform="translate(4.738)" fill="#a3a6aa"/>
  </g>
</svg>
