<svg xmlns="http://www.w3.org/2000/svg" width="24" height="24" viewBox="0 0 24 24">
  <g id="Group_22809" data-name="Group 22809" transform="translate(2762.487 -6616.513)">
    <rect id="Rectangle_4039" data-name="Rectangle 4039" width="24" height="24" transform="translate(-2762.487 6616.513)" fill="#a3a6aa" opacity="0"/>
    <g id="noun-driver-4303704" transform="translate(-2760.487 6616.513)">
      <path id="Path_15357" data-name="Path 15357" d="M152.028,346.4a8.358,8.358,0,0,0-6.5,6.333c-.211.9.116,1.168.521,1.292a21.868,21.868,0,0,0,3.191.652,7.518,7.518,0,0,1,6.775-4.279,7.439,7.439,0,0,1,2.667.5l3.887-3.465A10.609,10.609,0,0,0,160,346.4l-3.665,1.984a.5.5,0,0,1-.644,0Z" transform="translate(-145.461 -331.285)" fill="#a3a6aa"/>
      <path id="Path_15358" data-name="Path 15358" d="M440.921,389.73l-3.674,3.277a7.537,7.537,0,0,1,2.256,2.761,22.041,22.041,0,0,0,3.191-.652c.4-.124.731-.388.52-1.292a8.012,8.012,0,0,0-2.293-4.095Z" transform="translate(-423.369 -372.373)" fill="#a3a6aa"/>
      <path id="Path_15359" data-name="Path 15359" d="M255.413,460.753a5.793,5.793,0,0,0-3.148,2.539c1.6.166,3.147.256,4.259.285v-2.056a.82.82,0,0,0-1.111-.768Z" transform="translate(-247.139 -439.682)" fill="#a3a6aa"/>
      <path id="Path_15360" data-name="Path 15360" d="M365.9,460.753a5.806,5.806,0,0,1,3.149,2.539c-1.6.166-3.147.256-4.259.285v-2.056a.819.819,0,0,1,1.11-.768Z" transform="translate(-354.26 -439.682)" fill="#a3a6aa"/>
      <path id="Path_15361" data-name="Path 15361" d="M247.8,150.44a28.837,28.837,0,0,1,3.958.521c.193.44.394.876.572,1.324a6.009,6.009,0,0,1,.408,2.185c0,3.053-2.21,5.531-4.934,5.531h0c-2.726,0-4.935-2.477-4.935-5.531a6.018,6.018,0,0,1,.406-2.185c.178-.449.381-.884.572-1.324a28.837,28.837,0,0,1,3.958-.521Zm3.054,2.611a9.415,9.415,0,0,1-3.054.5v0a9.443,9.443,0,0,1-3.053-.5,4.068,4.068,0,0,0-.258,1.418,3.529,3.529,0,0,0,3.311,3.711h0a3.53,3.53,0,0,0,3.311-3.711,4.134,4.134,0,0,0-.258-1.419Z" transform="translate(-237.834 -145.11)" fill="#a3a6aa" fill-rule="evenodd"/>
      <path id="Path_15362" data-name="Path 15362" d="M221.17,43.43c-2.439,0-9.871,2.325-4.452,5.174,0,0,2.959-.466,4.451-.557h0s0,0,0-.005h0s0,0,0,.005c1.491.092,4.452.557,4.452.557,5.42-2.849-2.013-5.174-4.453-5.174Z" transform="translate(-211.202 -43.43)" fill="#a3a6aa"/>
    </g>
  </g>
</svg>
