<svg xmlns="http://www.w3.org/2000/svg" width="27.148" height="27.148" viewBox="0 0 27.148 27.148">
  <g id="Group_17004" data-name="Group 17004" transform="translate(-328.894 -783.073)">
    <g id="vuesax_bold_send-2" data-name="vuesax/bold/send-2" transform="translate(328.894 783.073)">
      <g id="send-2" transform="translate(0 0)">
        <path id="Vector" d="M15.364.449,5.15,3.842c-6.866,2.3-6.866,6.04,0,8.325l3.032,1.007,1.007,3.032c2.285,6.866,6.04,6.866,8.325,0L20.918,6C22.434,1.421,19.945-1.078,15.364.449Zm.362,6.086-4.3,4.321a.847.847,0,0,1-1.2,0,.853.853,0,0,1,0-1.2l4.3-4.321a.848.848,0,0,1,1.2,1.2Z" transform="translate(2.893 2.9)" fill="#ff6302"/>
        <path id="Vector-2" data-name="Vector" d="M0,0H27.148V27.148H0Z" transform="translate(27.148 27.148) rotate(180)" fill="none" opacity="0"/>
      </g>
    </g>
  </g>
</svg>
