<svg xmlns="http://www.w3.org/2000/svg" width="16.651" height="15.701" viewBox="0 0 16.651 15.701"><path d="M15.062,5.538c-1.506,0-2.122-1.065-1.373-2.37a1.577,1.577,0,0,0-.583-2.154L11.667.19a1.389,1.389,0,0,0-1.9.5L9.678.847C8.929,2.153,7.7,2.153,6.94.847L6.849.689A1.366,1.366,0,0,0,4.968.19l-1.44.823a1.587,1.587,0,0,0-.583,2.162c.757,1.3.141,2.362-1.365,2.362A1.585,1.585,0,0,0,0,7.119V8.583a1.585,1.585,0,0,0,1.581,1.58c1.506,0,2.122,1.065,1.365,2.37a1.577,1.577,0,0,0,.583,2.154l1.44.823a1.389,1.389,0,0,0,1.9-.5l.092-.158c.749-1.306,1.981-1.306,2.738,0l.092.158a1.389,1.389,0,0,0,1.9.5l1.44-.823a1.579,1.579,0,0,0,.583-2.154c-.757-1.306-.141-2.37,1.365-2.37a1.585,1.585,0,0,0,1.581-1.58V7.119A1.6,1.6,0,0,0,15.062,5.538Zm-6.74,5.015a2.7,2.7,0,1,1,2.7-2.7A2.709,2.709,0,0,1,8.322,10.554Z" fill="#0a0a0a"/></svg>