<svg xmlns="http://www.w3.org/2000/svg" width="20.537" height="21.897" viewBox="0 0 20.537 21.897">
  <g id="_3844474_gear_setting_settings_wheel_icon" data-name="3844474_gear_setting_settings_wheel_icon" transform="translate(-2.85 -2)">
    <circle id="XMLID_224_" cx="3.061" cy="3.061" r="3.061" transform="translate(10.116 9.887)" fill="none" stroke="#ff6302" stroke-linecap="round" stroke-linejoin="round" stroke-miterlimit="10" stroke-width="2"/>
    <path id="XMLID_242_" d="M22.175,8.637,21.41,7.312a1.53,1.53,0,0,0-2.091-.56l-.4.233A2.3,2.3,0,0,1,15.473,5V4.531A1.53,1.53,0,0,0,13.942,3H12.412a1.53,1.53,0,0,0-1.531,1.531V5A2.3,2.3,0,0,1,7.438,6.984l-.4-.233a1.53,1.53,0,0,0-2.091.56L4.179,8.637a1.53,1.53,0,0,0,.56,2.091l.4.233a2.3,2.3,0,0,1,0,3.976l-.4.233a1.53,1.53,0,0,0-.56,2.091l.765,1.325a1.53,1.53,0,0,0,2.091.56l.4-.233A2.3,2.3,0,0,1,10.881,20.9v.465A1.53,1.53,0,0,0,12.412,22.9h1.531a1.53,1.53,0,0,0,1.531-1.531V20.9a2.3,2.3,0,0,1,3.444-1.988l.4.233a1.53,1.53,0,0,0,2.091-.56l.765-1.325a1.53,1.53,0,0,0-.56-2.091l-.4-.233a2.3,2.3,0,0,1,0-3.976l.4-.233A1.53,1.53,0,0,0,22.175,8.637Z" transform="translate(0 0)" fill="none" stroke="#ff6302" stroke-linecap="round" stroke-linejoin="round" stroke-miterlimit="10" stroke-width="2"/>
  </g>
</svg>
