<svg xmlns="http://www.w3.org/2000/svg" xmlns:xlink="http://www.w3.org/1999/xlink" width="260" height="172" viewBox="0 0 260 172"><defs><clipPath id="a"><path d="M203.951,171.381c-5.022,6.613-6.8,16.779-3.9,26.237,3.353,10.958,15.408,16.658,23.8,24.2,14.076,12.648,12.508,22.245,31.02,28.028,39.8,12.431,72.1-21.155,71.2-37.672-2.317-42.6-43.094-18.982-65.559-42.413-9.593-10-19.244-13.881-28.037-13.88-11.8,0-22.051,6.983-28.522,15.5" transform="translate(-198.658 -155.877)" fill="#fff"/></clipPath><linearGradient id="b" x1="-0.306" y1="1.067" x2="-0.304" y2="1.067" gradientUnits="objectBoundingBox"><stop offset="0" stop-color="#fff"/><stop offset="1" stop-color="#eee"/></linearGradient><clipPath id="c"><path d="M377.648,96.907c-2.342,4.807,2.435,9.645,5.857,13.884a43.72,43.72,0,0,0,12.951,10.921c7.809,4.258,14.93,4.843,22.739,5.6,10.383,1,16.864.278,19.823-5,2.895-5.162-1.624-18.478-21.474-28.471a44.034,44.034,0,0,0-19.759-4.766c-10.125,0-18.129,3.715-20.137,7.836" transform="translate(-377.025 -89.071)" fill="none"/></clipPath><linearGradient id="d" x1="-1.407" y1="2.918" x2="-1.403" y2="2.918" xlink:href="#b"/><clipPath id="e"><rect width="260" height="172" transform="translate(-0.171 0.284)" fill="#ff6302"/></clipPath><clipPath id="f"><path d="M658.309,226.63c-5.945,1.4-9.3,8.723-9.3,8.723s6.285,5.04,12.228,3.632,9.3-8.727,9.3-8.727-4.836-3.876-10.036-3.876a9.48,9.48,0,0,0-2.19.248" transform="translate(-649.01 -226.382)" fill="none"/></clipPath><linearGradient id="g" x1="-7.273" y1="5.105" x2="-7.262" y2="5.105" xlink:href="#b"/><clipPath id="h"><path d="M750.69,387.282s.333,5.618,3.848,8.039,8.886.729,8.886.729-.333-5.618-3.85-8.037a8.52,8.52,0,0,0-4.845-1.3,14.976,14.976,0,0,0-4.039.574" transform="translate(-750.69 -386.708)" fill="none"/></clipPath><linearGradient id="i" x1="-12.732" y1="3.837" x2="-12.715" y2="3.837" xlink:href="#b"/><clipPath id="j"><path d="M255.064,451.785s-.671,5.058,2.041,7.818,7.784,2.179,7.784,2.179.671-5.058-2.044-7.817c-1.909-1.943-4.986-2.231-6.641-2.231a11.118,11.118,0,0,0-1.14.051" transform="translate(-254.991 -451.734)" fill="none"/></clipPath><linearGradient id="k" x1="-4.686" y1="3" x2="-4.667" y2="3" xlink:href="#b"/><clipPath id="l"><rect width="260" height="172" transform="translate(-0.171 0.284)" fill="none"/></clipPath></defs><g transform="translate(241.342 -106.503)"><g transform="translate(-241.171 106.219)"><g transform="translate(57.392 44.748)"><g clip-path="url(#a)"><rect width="149.76" height="131.967" transform="translate(-23.983 4.982) rotate(-12.497)" fill="url(#b)"/></g></g><g transform="translate(108.798 25.494)"><g clip-path="url(#c)"><rect width="73.541" height="52.776" transform="translate(-10.041 1.852) rotate(-12.546)" fill="url(#d)"/></g></g><g transform="translate(0 0)"><g clip-path="url(#e)"><path d="M168.018,214.018a5.967,5.967,0,0,1-8.7-6.267l4.317-24.982-18.282-17.7a5.969,5.969,0,0,1,3.322-10.161l25.275-3.645,11.29-22.748a6.018,6.018,0,0,1,10.763,0l11.29,22.748,25.275,3.645a5.968,5.968,0,0,1,3.322,10.161L217.594,182.76l4.317,24.982a5.969,5.969,0,0,1-8.7,6.276l-22.6-11.782Zm-58.92.366a2.952,2.952,0,0,1-4.306-3.1l2.136-12.36-9.046-8.757a2.953,2.953,0,0,1,1.644-5.027l12.506-1.8,5.586-11.255a2.978,2.978,0,0,1,5.325,0l5.586,11.255,12.506,1.8a2.953,2.953,0,0,1,1.644,5.027l-9.051,8.752,2.136,12.36a2.952,2.952,0,0,1-4.306,3.105l-11.182-5.829Zm140.654,0a2.952,2.952,0,0,1-4.306-3.1l2.136-12.36-9.046-8.757a2.953,2.953,0,0,1,1.644-5.027l12.506-1.8,5.586-11.255a2.978,2.978,0,0,1,5.325,0l5.586,11.255,12.506,1.8a2.953,2.953,0,0,1,1.644,5.027l-9.051,8.752,2.136,12.36a2.953,2.953,0,0,1-4.307,3.105l-11.182-5.829Z" transform="translate(-68.906 -89.285)" fill="#ffb811" fill-rule="evenodd"/><path d="M239.164,209.255a6.681,6.681,0,0,1-6.587-7.811l1.8-10.421-7.63-7.386a6.681,6.681,0,0,1,3.7-11.4l10.575-1.525,4.716-9.5a6.7,6.7,0,0,1,9-3.005,6.747,6.747,0,0,1,2.994,2.994l4.722,9.513,10.568,1.524a6.682,6.682,0,0,1,3.726,11.375l-7.656,7.4,1.8,10.416a6.681,6.681,0,0,1-9.744,7.025l-9.418-4.909-9.453,4.93A6.653,6.653,0,0,1,239.164,209.255Zm12.571-13.638a3.727,3.727,0,0,1,1.724.422l9.824,5.121-1.869-10.816a3.729,3.729,0,0,1,1.082-3.315l7.9-7.635-10.935-1.577a3.728,3.728,0,0,1-2.807-2.033l-4.909-9.89-4.909,9.89a3.728,3.728,0,0,1-2.808,2.033L233.087,179.4l7.894,7.641a3.728,3.728,0,0,1,1.081,3.314l-1.868,10.81,9.818-5.12A3.727,3.727,0,0,1,251.735,195.618ZM123.661,209.255a6.7,6.7,0,0,1-3.162-.8l-9.417-4.909-9.453,4.93a6.681,6.681,0,0,1-9.705-7.037l1.8-10.421-7.629-7.386a6.681,6.681,0,0,1,3.7-11.4l10.575-1.525,4.716-9.5a6.7,6.7,0,0,1,9-3.006,6.749,6.749,0,0,1,2.994,2.994l4.722,9.513,10.569,1.524a6.681,6.681,0,0,1,3.725,11.376l-7.655,7.4,1.8,10.416a6.68,6.68,0,0,1-6.582,7.82Zm-12.58-13.638a3.727,3.727,0,0,1,1.724.422l9.824,5.121-1.869-10.816a3.729,3.729,0,0,1,1.082-3.315l7.9-7.635L118.8,177.818a3.728,3.728,0,0,1-2.808-2.033l-4.909-9.89-4.909,9.89a3.728,3.728,0,0,1-2.808,2.033L92.433,179.4l7.894,7.641a3.728,3.728,0,0,1,1.081,3.314l-1.868,10.81,9.818-5.12A3.727,3.727,0,0,1,111.081,195.618Zm44.926,13.631a9.7,9.7,0,0,1-9.562-11.336l3.982-23.044-16.866-16.329a9.7,9.7,0,0,1-.134-13.734,9.75,9.75,0,0,1,5.51-2.795l23.345-3.367,10.42-21a9.742,9.742,0,0,1,13.083-4.365,9.81,9.81,0,0,1,4.353,4.353l10.425,21.007,23.338,3.366a9.7,9.7,0,0,1,5.4,16.51l-16.9,16.341L216.39,197.9a9.7,9.7,0,0,1-7.9,11.207,9.734,9.734,0,0,1-6.237-1.01l-20.836-10.863-20.866,10.883A9.673,9.673,0,0,1,156.007,209.248Zm25.421-89.54a2.281,2.281,0,0,0-2.052,1.266l-11.284,22.737a3.728,3.728,0,0,1-2.808,2.033l-25.275,3.645a2.24,2.24,0,0,0-1.24,3.813l18.261,17.68a3.729,3.729,0,0,1,1.081,3.314l-4.317,24.982a2.24,2.24,0,0,0,2.213,2.614,2.206,2.206,0,0,0,1.053-.267l22.628-11.8a3.729,3.729,0,0,1,3.448,0l22.6,11.782a2.241,2.241,0,0,0,3.306-2.335l-4.317-24.982a3.728,3.728,0,0,1,1.082-3.315L224.1,153.18a2.24,2.24,0,0,0-1.269-3.791l-25.269-3.645a3.729,3.729,0,0,1-2.808-2.033l-11.29-22.748a2.3,2.3,0,0,0-1.017-1.012A2.26,2.26,0,0,0,181.428,119.709Z" transform="translate(-59.712 -80.077)" fill="#ffb811"/><path d="M390.043,279.644a3.717,3.717,0,0,1-2.635-1.091l-6.222-6.217a3.728,3.728,0,1,1,5.271-5.275l3.585,3.582,7.724-7.724a3.728,3.728,0,0,1,5.273,5.273l-10.36,10.36A3.717,3.717,0,0,1,390.043,279.644Z" transform="translate(-270.411 -186.544)" fill="#fff"/></g></g><g transform="translate(187.184 65.067)"><g clip-path="url(#f)"><rect width="25.447" height="21.863" transform="translate(-5.412 2.556) rotate(-25.287)" fill="url(#g)"/></g></g><g transform="translate(216.489 111.274)"><g clip-path="url(#h)"><rect width="16.832" height="16.768" transform="translate(-5.509 5.225) rotate(-43.481)" fill="url(#i)"/></g></g><g transform="translate(73.627 130.014)"><g clip-path="url(#j)"><rect width="15.132" height="14.967" transform="translate(-5.417 3.074) rotate(-32.535)" fill="url(#k)"/></g></g><g transform="translate(0 0)"><g clip-path="url(#l)"><path d="M700.815,343.6a4.156,4.156,0,1,1,4.341-4.152,4.249,4.249,0,0,1-4.341,4.152" transform="translate(-482.449 -267.839)" fill="#ffca27"/><path d="M408.015,483.192a5.665,5.665,0,1,1,5.851-5.662,5.758,5.758,0,0,1-5.851,5.662" transform="translate(-286.121 -336.052)" fill="#ffca27"/><path d="M181.96,191.672a4.26,4.26,0,1,0,4.26,4.26,4.261,4.261,0,0,0-4.26-4.26" transform="translate(-126.348 -136.608)" fill="#ffca27"/><path d="M505.811,141.188a3.963,3.963,0,1,0,3.963,3.963,3.963,3.963,0,0,0-3.963-3.963" transform="translate(-357.076 -100.674)" fill="#ffca27"/><path d="M672.553,467.216a3.564,3.564,0,1,0,3.565,3.564,3.564,3.564,0,0,0-3.565-3.564" transform="translate(-476.047 -332.74)" fill="#ffca27"/><path d="M129.321,415.018a2.3,2.3,0,1,0,2.3,2.3,2.3,2.3,0,0,0-2.3-2.3" transform="translate(-90.273 -295.585)" fill="#fff"/><path d="M345.67,496.551a1.847,1.847,0,1,0,1.847,1.847,1.847,1.847,0,0,0-1.847-1.847" transform="translate(-244.594 -353.62)" fill="#ffca27"/><path d="M609.484,149.3a2.819,2.819,0,1,0,2.819,2.819,2.819,2.819,0,0,0-2.819-2.819" transform="translate(-431.684 -106.445)" fill="#ffca27"/><path d="M186.009,316.314a1.844,1.844,0,1,0,1.3-2.259,1.844,1.844,0,0,0-1.3,2.259" transform="translate(-132.217 -223.675)" fill="#fff"/><path d="M320.473,163.339a2.453,2.453,0,1,0,2.453,2.453,2.453,2.453,0,0,0-2.453-2.453" transform="translate(-226.228 -116.441)" fill="#e1e4e5"/><path d="M602.633,331.628a1.548,1.548,0,1,0,1.887,1.51,1.731,1.731,0,0,0-1.887-1.51" transform="translate(-427.471 -236.228)" fill="#fff"/><path d="M701,416.133c-1.525.744-2.285,2.323-1.7,3.526s2.3,1.576,3.824.833,2.285-2.323,1.7-3.526-2.3-1.576-3.824-.833" transform="translate(-497.481 -296.106)" fill="#fff"/><path d="M462.287,87.6a3.572,3.572,0,1,0,2.526-4.374,3.572,3.572,0,0,0-2.526,4.374" transform="translate(-328.83 -59.326)" fill="#ffca27"/><path d="M397.6,146.759h.05c.292,4.142,3.373,4.206,3.373,4.206s-3.4.066-3.4,4.853c0-4.786-3.4-4.853-3.4-4.853s3.079-.064,3.372-4.206M256.511,94.9h.085c.5,7.249,5.809,7.361,5.809,7.361s-5.85.116-5.85,8.492c0-8.376-5.85-8.492-5.85-8.492S256.008,102.151,256.511,94.9Z" transform="translate(-178.312 -67.728)" fill="#ffca27"/></g></g></g></g></svg>