<svg xmlns="http://www.w3.org/2000/svg" width="21.383" height="19.245" viewBox="0 0 21.383 19.245">
  <path id="support_agent_FILL0_wght400_GRAD0_opsz48" d="M89.623,235.245v-1.6h9.088v-8.126a6.961,6.961,0,0,0-.668-2.98,8.571,8.571,0,0,0-1.791-2.526,8.92,8.92,0,0,0-2.566-1.751,7.17,7.17,0,0,0-5.987,0,8.92,8.92,0,0,0-2.566,1.751,8.571,8.571,0,0,0-1.791,2.526,6.961,6.961,0,0,0-.668,2.98v6.522h-.535A2.145,2.145,0,0,1,80,229.9v-2.138a1.991,1.991,0,0,1,.294-1.083,2.348,2.348,0,0,1,.775-.762l.08-1.417a9.7,9.7,0,0,1,1.109-3.528,9.392,9.392,0,0,1,2.165-2.673,9.729,9.729,0,0,1,2.914-1.7,9.731,9.731,0,0,1,6.736,0,9.411,9.411,0,0,1,2.9,1.711,9.763,9.763,0,0,1,2.152,2.673,9.546,9.546,0,0,1,1.109,3.488l.08,1.39a1.945,1.945,0,0,1,1.069,1.737v2.459a1.876,1.876,0,0,1-.294,1.042,1.943,1.943,0,0,1-.775.695v1.844a1.608,1.608,0,0,1-1.6,1.6Zm-2.138-7.751a.769.769,0,0,1-.561-.241.784.784,0,0,1-.241-.575.741.741,0,0,1,.241-.561.808.808,0,0,1,.575-.227.757.757,0,0,1,.561.231.815.815,0,0,1,0,1.133A.76.76,0,0,1,87.484,227.494Zm6.415,0a.769.769,0,0,1-.561-.241.784.784,0,0,1-.241-.575.741.741,0,0,1,.241-.561.808.808,0,0,1,.575-.227.757.757,0,0,1,.561.231.815.815,0,0,1,0,1.133A.76.76,0,0,1,93.9,227.494Zm-9.6-1.39a6.131,6.131,0,0,1,.441-2.86,6.616,6.616,0,0,1,1.47-2.178,6.644,6.644,0,0,1,4.531-1.858,5.788,5.788,0,0,1,4.09,1.537,6.506,6.506,0,0,1,2.031,3.836,7.73,7.73,0,0,1-4.424-1.35,8.9,8.9,0,0,1-2.954-3.435,8.536,8.536,0,0,1-1.8,3.836A8.318,8.318,0,0,1,84.3,226.1Z" transform="translate(-80 -216)" fill="#ff6302"/>
</svg>
