<svg xmlns="http://www.w3.org/2000/svg" width="46" height="46" viewBox="0 0 46 46"><g transform="translate(-35 -128)"><circle cx="23" cy="23" r="23" transform="translate(35 128)" fill="#ff6302"/><g transform="translate(-706 -53)"><g transform="translate(748 188)"><path d="M13.617,0A13.617,13.617,0,1,0,27.233,13.617,13.639,13.639,0,0,0,13.617,0Zm6.509,10.485L12.4,18.205a1.019,1.019,0,0,1-1.443,0L7.108,14.352a1.021,1.021,0,1,1,1.443-1.443l3.132,3.132,7-7a1.021,1.021,0,1,1,1.443,1.443Z" transform="translate(2.723 2.723)" fill="#fff"/><path d="M0,0H32.68V32.68H0Z" transform="translate(32.68 32.68) rotate(180)" fill="none" opacity="0"/></g></g></g></svg>