<svg xmlns="http://www.w3.org/2000/svg" width="17.13" height="17.13" viewBox="0 0 17.13 17.13"><path d="M6.877-.75A7.628,7.628,0,1,1-.75,6.878,7.636,7.636,0,0,1,6.877-.75Zm0,14.191A6.563,6.563,0,1,0,.314,6.878,6.571,6.571,0,0,0,6.877,13.441Z" transform="translate(1.688 1.688)" fill="#ff6302"/><path d="M2.872,6.128a.56.56,0,0,1-.288-.08L.259,4.661A2.219,2.219,0,0,1-.75,2.887V-.187A.563.563,0,0,1-.188-.75a.563.563,0,0,1,.562.563V2.887a1.107,1.107,0,0,0,.459.806L3.161,5.082a.563.563,0,0,1-.289,1.046Z" transform="translate(8.396 5.424)" fill="#ff6302"/><path d="M0,0H17.13V17.13H0Z" fill="none" opacity="0"/></svg>