<svg xmlns="http://www.w3.org/2000/svg" width="12.719" height="12.711" viewBox="0 0 12.719 12.711"><g transform="translate(-1.468 -1.476)"><path d="M12.719,2.914a.489.489,0,0,0-.143-.346L10.149.142a.489.489,0,1,0-.691.691l1.6,1.6H.489A.493.493,0,0,0,0,2.921.487.487,0,0,0,.489,3.4h10.56L9.458,4.995a.492.492,0,0,0,0,.691.488.488,0,0,0,.691,0l2.42-2.42a.51.51,0,0,0,.111-.17.024.024,0,0,1,.007-.02A.454.454,0,0,0,12.719,2.914Z" transform="translate(1.468 1.476)" fill="#ff6302"/><path d="M12.23,2.425H1.67L3.261.833A.489.489,0,0,0,2.57.142L.15,2.562a.51.51,0,0,0-.111.17.024.024,0,0,1-.007.02.478.478,0,0,0,.111.515L2.57,5.693a.488.488,0,0,0,.691,0,.492.492,0,0,0,0-.691l-1.6-1.6H12.23a.489.489,0,0,0,0-.978Z" transform="translate(1.468 8.351)" fill="#ff6302"/></g></svg>