<svg xmlns="http://www.w3.org/2000/svg" width="26" height="26" viewBox="0 0 26 26">
  <g id="Group_24572" data-name="Group 24572" transform="translate(-3616.104 -2213.104)">
    <rect id="Rectangle_4487" data-name="Rectangle 4487" width="26" height="26" transform="translate(3616.104 2213.104)" fill="none"/>
    <path id="Path_19921" data-name="Path 19921" d="M90.1,86.4l-.025-.466.262-.013c.564-.03.92-.047,1.129-.053v-.42s-18.408.645-18.408,3.931,7.029,7.06,7,8.943c-.045,2.563-7.147,3.813-9.493,4.65h9.316a9.468,9.468,0,0,1,.945-.548l.2-.1.233.414-.2.083a.756.756,0,0,1-.309.148H87.3s3.263-1.88,3.188-4.687c-.094-3.5-11.549-7.054-11.5-8.878.053-1.919,12.477-2.552,12.477-2.552v-.52c-.209.007-.566.023-1.1.052ZM76.606,91.1l-.135-.19a2.909,2.909,0,0,1-.631-1.671,1.1,1.1,0,0,1,.436-.823l.176-.154.307.352-.176.153a.66.66,0,0,0-.275.471,2.5,2.5,0,0,0,.545,1.4l.135.19Zm8.038,9.582a10.315,10.315,0,0,1-2.089,1.375l-.206.111-.222-.411.205-.111a9.911,9.911,0,0,0,1.995-1.307l.171-.159.317.343Zm-.158-4,.177.153c.736.637,1.065,1.112,1.065,1.54a3.121,3.121,0,0,1-.105.772l-.061.225-.451-.123.061-.225a2.633,2.633,0,0,0,.088-.644c0-.191-.156-.547-.9-1.192l-.177-.153ZM81.069,94.24l.8.553c.5.341.969.664,1.41.978l.19.136-.271.38-.19-.135c-.437-.312-.906-.633-1.4-.973l-.8-.554Zm-1.205-.855.189.138-.276.377-.189-.138a22.451,22.451,0,0,1-1.931-1.554l-.172-.158.316-.344.172.158a21.959,21.959,0,0,0,1.891,1.521Zm.514-5.924a19.027,19.027,0,0,0-2.349.588l-.222.074-.148-.443.222-.074a19.487,19.487,0,0,1,2.408-.6l.229-.044.089.459Zm4.106-.6c-.867.1-1.683.2-2.424.313l-.231.035-.069-.462.231-.035c.747-.112,1.568-.218,2.441-.315l.232-.026.052.464Zm4.144-.366c-.837.058-1.658.123-2.441.195l-.233.021-.042-.465.233-.021c.786-.072,1.611-.137,2.451-.2l.233-.016.032.466Z" transform="translate(3548.09 2131.892)" fill="#ff6302"/>
  </g>
</svg>
