<svg xmlns="http://www.w3.org/2000/svg" width="24" height="24" viewBox="0 0 24 24"><g transform="translate(-104 -190)"><path d="M19.25,10.75a.75.75,0,0,0,0-1.5H18V7.05h1.25a.75.75,0,0,0,0-1.5H17.77a4.975,4.975,0,0,0-3.32-3.32V.75a.75.75,0,0,0-1.5,0V2h-2.2V.75a.75.75,0,0,0-1.5,0V2H7.06V.75a.75.75,0,0,0-1.5,0V2.23A4.97,4.97,0,0,0,2.23,5.55H.75a.75.75,0,0,0,0,1.5H2v2.2H.75a.75.75,0,0,0,0,1.5H2v2.2H.75a.75.75,0,0,0,0,1.5H2.23a4.95,4.95,0,0,0,3.33,3.32v1.48a.75.75,0,0,0,1.5,0V18h2.2v1.25a.75.75,0,0,0,1.5,0V18h2.19v1.25a.75.75,0,0,0,1.5,0V17.77a4.975,4.975,0,0,0,3.32-3.32h1.48a.75.75,0,0,0,0-1.5H18v-2.2Zm-3.99,1.51a3.009,3.009,0,0,1-3,3H7.74a3.009,3.009,0,0,1-3-3V7.74a3.009,3.009,0,0,1,3-3h4.52a3.009,3.009,0,0,1,3,3v4.52Z" transform="translate(106 192)" fill="#fbf9f7"/><path d="M2.27,8.51H6.24A2.268,2.268,0,0,0,8.51,6.24V2.27A2.268,2.268,0,0,0,6.24,0H2.27A2.268,2.268,0,0,0,0,2.27V6.24A2.262,2.262,0,0,0,2.27,8.51Z" transform="translate(111.75 197.74)" fill="#fbf9f7"/><path d="M0,0H24V24H0Z" transform="translate(128 214) rotate(180)" fill="none" opacity="0"/></g></svg>