<svg width="20" height="20" viewBox="0 0 20 20" fill="none" xmlns="http://www.w3.org/2000/svg">
<path d="M7.58308 0C4.92825 0 2.74924 2.14658 2.74924 4.7619V13.2143L1.35952 11.8452L0 13.1994L3.71601 16.8601L7.43202 13.1994L6.07251 11.8601L4.68278 13.2143V4.7619C4.68278 3.18638 5.98376 1.90476 7.58308 1.90476H12.9003V0H7.58308ZM16.284 3.13988L12.5529 6.81548L13.9275 8.15476L15.3172 6.78571V15.2381C15.3172 16.8136 14.0162 18.0952 12.4169 18.0952H7.0997V20H12.4169C15.0718 20 17.2508 17.8534 17.2508 15.2381V6.78571L18.6405 8.15476L20 6.8006L16.284 3.13988Z" fill="#FF6302"/>
</svg>
