<svg xmlns="http://www.w3.org/2000/svg" width="146" height="146" viewBox="0 0 146 146"><g transform="translate(-122 -184)"><circle cx="63" cy="63" r="63" transform="translate(132 194)" fill="#ff6302"/><g transform="translate(122 184)" fill="none" stroke="#ff6302" stroke-width="2"><circle cx="73" cy="73" r="73" stroke="none"/><circle cx="73" cy="73" r="72" fill="none"/></g><g transform="translate(-281.574 -2672.574)"><path d="M477.7,2871.1a5.6,5.6,0,1,1-5.6-5.6A5.616,5.616,0,0,1,477.7,2871.1Zm21-5.6v14a12.619,12.619,0,0,1-12.6,12.6h-28a12.619,12.619,0,0,1-12.6-12.6v-14a12.6,12.6,0,0,1,11.844-12.572l3.528-5.32a7.038,7.038,0,0,1,5.824-3.108H477.5a7.036,7.036,0,0,1,5.824,3.108l3.528,5.32A12.6,12.6,0,0,1,498.7,2865.5Zm-15.4,5.6a11.2,11.2,0,1,0-11.2,11.2A11.2,11.2,0,0,0,483.3,2871.1Zm8.4-8.4a2.8,2.8,0,1,0-2.8,2.8A2.808,2.808,0,0,0,491.7,2862.7Z" transform="translate(4.473 61.274)" fill="#fff"/></g></g></svg>