<svg xmlns="http://www.w3.org/2000/svg" xmlns:xlink="http://www.w3.org/1999/xlink" width="113.752" height="111.256" viewBox="0 0 113.752 111.256"><defs><linearGradient id="a" x1="0.5" x2="0.5" y2="1" gradientUnits="objectBoundingBox"><stop offset="0" stop-color="#fbc403"/><stop offset="1" stop-color="#ff6302"/></linearGradient></defs><path d="M75,4.347A7.039,7.039,0,0,1,75.731,5.5l.823,1.645a8.7,8.7,0,0,0,9.592,4.619l1.8-.382a7.048,7.048,0,0,1,8.51,6.786l.028,1.839a8.7,8.7,0,0,0,6.638,8.323l1.787.436a7.044,7.044,0,0,1,4.722,9.807l-.773,1.669a8.7,8.7,0,0,0,2.369,10.379l1.42,1.169a7.046,7.046,0,0,1,0,10.885l-1.42,1.169a8.7,8.7,0,0,0-2.369,10.379l.773,1.669a7.046,7.046,0,0,1-4.722,9.807l-1.787.437a8.7,8.7,0,0,0-6.638,8.323L96.455,96.3a7.046,7.046,0,0,1-8.51,6.787l-1.8-.382a8.7,8.7,0,0,0-9.592,4.619l-.823,1.645a7.043,7.043,0,0,1-10.612,2.422l-1.455-1.124a8.7,8.7,0,0,0-10.646,0l-1.455,1.124a7.047,7.047,0,0,1-10.612-2.422l-.823-1.645a8.7,8.7,0,0,0-9.591-4.619l-1.8.382a7.047,7.047,0,0,1-8.51-6.787L20.2,94.461a8.7,8.7,0,0,0-6.637-8.323L11.775,85.7a7.047,7.047,0,0,1-4.723-9.807l.773-1.669A8.7,8.7,0,0,0,5.456,63.847L4.035,62.679a7.047,7.047,0,0,1,0-10.885l1.421-1.169A8.7,8.7,0,0,0,7.825,40.247l-.773-1.669a7.047,7.047,0,0,1,4.723-9.807l1.787-.436A8.7,8.7,0,0,0,20.2,20.011l.028-1.839a7.047,7.047,0,0,1,8.51-6.786l1.8.382a8.7,8.7,0,0,0,9.591-4.619L40.951,5.5A7.047,7.047,0,0,1,51.563,3.081l1.455,1.125a8.7,8.7,0,0,0,10.646,0l1.455-1.125A7.047,7.047,0,0,1,75,4.347Zm6.375,38.231a4.471,4.471,0,0,0-6.059.09h0l-18.3,17.376a5.222,5.222,0,0,1-7.141.047h0l-7.662-7.085a4.814,4.814,0,0,0-6.714.174q-.129.132-.246.276a4.3,4.3,0,0,0,.6,6.053h0L48.3,69.712a8.7,8.7,0,0,0,11.587-.492h0L81.5,48.2c.064-.062.125-.126.185-.192A3.844,3.844,0,0,0,81.379,42.578Z" transform="translate(-1.465 -1.608)" fill-rule="evenodd" fill="url(#a)"/></svg>