<svg xmlns="http://www.w3.org/2000/svg" width="264.187" height="209.115" viewBox="0 0 264.187 209.115"><g transform="translate(-221.58 -177.267)"><path d="M782.408,240.38l-34.3,7.012a3,3,0,0,0-2.242,1.987l-11.079,33.212a3,3,0,0,0,.6,2.936l23.223,26.2a3,3,0,0,0,2.842.949l34.295-7.012a3,3,0,0,0,2.242-1.987l11.079-33.212a2.994,2.994,0,0,0-.6-2.936l-23.215-26.2a3,3,0,0,0-2.842-.949Z" transform="translate(-385.243 -63.053)" fill="#ebebeb"/><path d="M850.719,436.619a.378.378,0,1,0-.31-.3.378.378,0,0,0,.31.3Z" transform="translate(-470.827 -207.6)" fill="#f3f3f3"/><path d="M924.549,416.879a.378.378,0,1,0-.31-.3.378.378,0,0,0,.31.3Z" transform="translate(-525.405 -193.007)" fill="#f3f3f3"/><path d="M927.169,389.75a.386.386,0,1,0-.31-.448.378.378,0,0,0,.31.448Z" transform="translate(-527.342 -172.952)" fill="#f3f3f3"/><path d="M823.039,403.98a.388.388,0,0,0,.223-.026.386.386,0,0,0,.164-.574.386.386,0,0,0-.7.151.377.377,0,0,0,.059.29.382.382,0,0,0,.109.1.378.378,0,0,0,.142.053Z" transform="translate(-450.364 -183.472)" fill="#f3f3f3"/><path d="M855.679,464.41a.386.386,0,1,0-.31-.448.379.379,0,0,0,.06.29.378.378,0,0,0,.251.158Z" transform="translate(-474.493 -228.144)" fill="#f3f3f3"/><path d="M835.789,450.471a.379.379,0,1,0-.251-.158.377.377,0,0,0,.251.158Z" transform="translate(-459.789 -217.84)" fill="#f3f3f3"/><path d="M873.689,433.66a.386.386,0,1,0-.31-.448.372.372,0,0,0,0,.151.377.377,0,0,0,.31.3Z" transform="translate(-487.807 -205.413)" fill="#f3f3f3"/><path d="M932.979,436.619a.386.386,0,1,0-.31-.448.378.378,0,0,0,.06.29.372.372,0,0,0,.109.1.376.376,0,0,0,.141.053Z" transform="translate(-531.637 -207.6)" fill="#f3f3f3"/><path d="M922.379,455.24a.386.386,0,1,0-.31-.449.378.378,0,0,0,.31.449Z" transform="translate(-523.801 -221.366)" fill="#f3f3f3"/><path d="M874.949,475a.386.386,0,1,0-.31-.448.372.372,0,0,0,0,.151.377.377,0,0,0,.059.139.383.383,0,0,0,.109.1.377.377,0,0,0,.142.053Z" transform="translate(-488.738 -235.973)" fill="#f3f3f3"/><path d="M905.359,401.65a.386.386,0,1,0-.31-.449.378.378,0,0,0,.06.29.376.376,0,0,0,.251.158Z" transform="translate(-511.219 -181.75)" fill="#f3f3f3"/><path d="M928.649,372.549a.386.386,0,0,0,.387-.6.386.386,0,0,0-.595-.049.388.388,0,0,0-.1.2.38.38,0,0,0,.06.29.378.378,0,0,0,.251.158Z" transform="translate(-528.436 -160.237)" fill="#f3f3f3"/><path d="M855.189,400.16a.386.386,0,1,0-.31-.449.373.373,0,0,0,0,.151.377.377,0,0,0,.31.3Z" transform="translate(-474.131 -180.648)" fill="#f3f3f3"/><path d="M901.1,454.629a.386.386,0,1,0-.31-.449.378.378,0,0,0,.169.4.376.376,0,0,0,.141.053Z" transform="translate(-508.07 -220.914)" fill="#f3f3f3"/><path d="M878.416,456.721a.386.386,0,1,0-.31-.448.373.373,0,0,0,.31.448Z" transform="translate(-491.3 -222.46)" fill="#f3f3f3"/><path d="M892.1,422.129a.386.386,0,1,0-.31-.448.379.379,0,0,0,.06.29.379.379,0,0,0,.251.158Z" transform="translate(-501.417 -196.888)" fill="#f3f3f3"/><path d="M910.859,432.67a.386.386,0,1,0-.31-.449.379.379,0,0,0,.06.29.377.377,0,0,0,.25.158Z" transform="translate(-515.284 -204.681)" fill="#f3f3f3"/><path d="M872.209,413.34a.386.386,0,1,0-.31-.449.376.376,0,0,0,0,.151.378.378,0,0,0,.31.3Z" transform="translate(-486.713 -190.391)" fill="#f3f3f3"/><path d="M883.489,399.449a.386.386,0,1,0-.31-.448.375.375,0,0,0,0,.152.376.376,0,0,0,.169.244.373.373,0,0,0,.142.053Z" transform="translate(-495.051 -180.122)" fill="#f3f3f3"/><path d="M910.419,380.83a.386.386,0,1,0-.31-.448.378.378,0,0,0,.169.395A.38.38,0,0,0,910.419,380.83Z" transform="translate(-514.959 -166.358)" fill="#f3f3f3"/><path d="M656.314,512.384h-21.1a1.372,1.372,0,0,1-1.369-1.369l1.361-5.265a1.371,1.371,0,0,1,1.369-1.369h21.095a1.371,1.371,0,0,1,1.369,1.369l-1.361,5.265a1.371,1.371,0,0,1-1.369,1.369Zm-19.737-7.653a1.024,1.024,0,0,0-1.022,1.022l-1.361,5.265a1.025,1.025,0,0,0,1.022,1.022h21.1a1.025,1.025,0,0,0,1.022-1.022l1.361-5.265a1.024,1.024,0,0,0-1.022-1.022Z" transform="translate(-310.742 -258.259)" fill="#ff6302"/><path d="M769.814,512.384h-21.1a1.371,1.371,0,0,1-1.369-1.369l1.361-5.265a1.371,1.371,0,0,1,1.369-1.369h21.095a1.371,1.371,0,0,1,1.369,1.369l-1.361,5.265a1.372,1.372,0,0,1-1.369,1.369Zm-19.737-7.653a1.025,1.025,0,0,0-1.022,1.022l-1.361,5.265a1.025,1.025,0,0,0,1.022,1.022h21.1a1.025,1.025,0,0,0,1.022-1.022l1.361-5.265a1.025,1.025,0,0,0-1.022-1.022Z" transform="translate(-394.646 -258.259)" fill="#ff6302"/><path d="M843.544,569.968h-3.651a1.064,1.064,0,1,1,0-2.128h3.651a1.064,1.064,0,0,1,1.064,1.064h0a1.064,1.064,0,0,1-1.064,1.064Z" transform="translate(-462.273 -305.171)" fill="#ff6302"/><path d="M244.6,1041.644H508.565a.107.107,0,0,0,.042-.008.092.092,0,0,0,.036-.026.091.091,0,0,0,.026-.036.116.116,0,0,0,0-.083.093.093,0,0,0-.026-.037.091.091,0,0,0-.036-.026.107.107,0,0,0-.042-.008H244.6a.113.113,0,0,0-.079.034.11.11,0,0,0,0,.156.114.114,0,0,0,.079.034Z" transform="translate(-22.91 -655.262)" fill="#b1b5ba"/><path d="M288.368,670.5a32.643,32.643,0,1,1,3.428,12.268,32.661,32.661,0,0,1-3.428-12.268Z" transform="translate(-55.275 -355.068)" fill="#ebebeb"/><path d="M549.925,691.081,527.5,678.669a1.076,1.076,0,0,1-.4-1.5l17.358-29.137a1.071,1.071,0,0,1,1.413-.4L568.694,659.4a1.075,1.075,0,0,1,.43,1.5l-17.75,29.791a1.08,1.08,0,0,1-1.45.391Z" transform="translate(-231.712 -364.067)" fill="#ff6302"/><path d="M549.925,691.081,527.5,678.669a1.076,1.076,0,0,1-.4-1.5l17.358-29.137a1.071,1.071,0,0,1,1.413-.4L568.694,659.4a1.075,1.075,0,0,1,.43,1.5l-17.75,29.791a1.08,1.08,0,0,1-1.45.391Z" transform="translate(-231.712 -364.067)" fill="#f4f4f4" opacity="0.5"/><path d="M545.575,688.8,523.15,676.388a1.077,1.077,0,0,1-.4-1.5L540.1,645.754a1.071,1.071,0,0,1,1.413-.4l22.826,11.765a1.075,1.075,0,0,1,.43,1.5l-17.75,29.794a1.083,1.083,0,0,1-1.45.389Z" transform="translate(-228.496 -362.381)" fill="#fff"/><g transform="translate(298.224 305.908)" opacity="0.3"><path d="M541.843,738.87a.139.139,0,0,1-.063-.016l-3.293-1.8a.132.132,0,0,1-.04-.034.123.123,0,0,1-.023-.047.12.12,0,0,1,0-.054.122.122,0,0,1,.02-.05l1.979-3.145a.13.13,0,0,1,.172-.044l3.3,1.8a.123.123,0,0,1,.04.034.14.14,0,0,1,.027.1.12.12,0,0,1-.02.05l-1.974,3.145a.125.125,0,0,1-.117.06Zm-3.108-1.992,3.064,1.679,1.841-2.926-3.066-1.679Z" transform="translate(-538.419 -733.66)" fill="#61656d" opacity="0.3"/></g><g transform="translate(301.176 301.235)" opacity="0.3"><path d="M553.156,720.95a.138.138,0,0,1-.063-.016l-3.285-1.8a.128.128,0,0,1-.04-.034.13.13,0,0,1-.023-.047.124.124,0,0,1,0-.054.122.122,0,0,1,.02-.05l1.982-3.145a.13.13,0,0,1,.172-.044l3.293,1.8a.131.131,0,0,1,.04.034.127.127,0,0,1,.023.047.117.117,0,0,1,0,.054.122.122,0,0,1-.02.05l-1.979,3.145a.125.125,0,0,1-.051.047.127.127,0,0,1-.069.013Zm-3.111-1.982,3.067,1.679,1.838-2.926-3.056-1.679Z" transform="translate(-549.74 -715.74)" fill="#61656d" opacity="0.3"/></g><path d="M546.821,742.877l-.183-1.476a.157.157,0,0,1,.128-.164l.389-.047a.157.157,0,0,1,.164.128l.117.949,2.292-.287a.155.155,0,0,1,.106.033.157.157,0,0,1,.058.1l.047.389a.154.154,0,0,1-.128.164l-2.819.349a.151.151,0,0,1-.059,0,.145.145,0,0,1-.053-.027.148.148,0,0,1-.055-.1" transform="translate(-246.272 -433.318)" fill="#ff6302"/><path d="M558.251,724.945l-.182-1.476a.156.156,0,0,1,.033-.106.158.158,0,0,1,.1-.058l.389-.047a.158.158,0,0,1,.106.033.156.156,0,0,1,.058.1l.117.949,2.292-.287a.157.157,0,0,1,.164.128l.047.389a.153.153,0,0,1-.128.164l-2.824.349a.151.151,0,0,1-.167-.133" transform="translate(-254.721 -420.062)" fill="#ff6302"/><path d="M569.551,759.619l-10.263-5.7a.279.279,0,0,1-.107-.378h0a.279.279,0,0,1,.378-.107l10.263,5.7a.279.279,0,0,1,.107.378h0a.281.281,0,0,1-.378.107Z" transform="translate(-255.518 -442.342)" fill="#61656d" opacity="0.3"/><path d="M567.378,752.576l-5.51-3.051a.278.278,0,0,1,.271-.485l5.51,3.056a.279.279,0,0,1,.107.378h0a.278.278,0,0,1-.168.129.279.279,0,0,1-.108.007.273.273,0,0,1-.1-.035Z" transform="translate(-257.425 -439.096)" fill="#61656d" opacity="0.3"/><g transform="translate(7366.802 -6975.184)"><rect width="93" height="49" transform="translate(-7057 7193)" fill="#fff"/><g transform="translate(-7177.989 7050.6)"><path d="M122.143,134.4a7.329,7.329,0,0,0-7.345,7.345v48.964a7.329,7.329,0,0,0,7.345,7.345h88.135a7.329,7.329,0,0,0,7.345-7.345V141.745a7.329,7.329,0,0,0-7.345-7.345Zm20.809,15.913a7.345,7.345,0,1,1-7.345,7.345A7.345,7.345,0,0,1,142.952,150.313Zm28.154,0h34.275a2.448,2.448,0,0,1,0,4.9H171.106a2.448,2.448,0,0,1,0-4.9Zm0,13.465h34.275a2.448,2.448,0,0,1,0,4.9H171.106a2.448,2.448,0,0,1,0-4.9Zm-28.154,6.12c8.816,0,15.913,4.688,15.913,10.214v2.027H127.039v-2.027c0-5.526,7.1-10.214,15.913-10.214Zm28.154,7.345h34.275a2.448,2.448,0,1,1,0,4.9H171.106a2.448,2.448,0,1,1,0-4.9Z" fill="#ff6302"/></g></g><path d="M580.591,740.5l-10.263-5.7a.279.279,0,0,1-.107-.378h0a.279.279,0,0,1,.378-.107l10.263,5.7a.279.279,0,0,1,.107.378.282.282,0,0,1-.378.107Z" transform="translate(-263.679 -428.207)" fill="#61656d" opacity="0.3"/><path d="M578.418,733.441l-5.51-3.056a.279.279,0,0,1-.107-.378h0a.279.279,0,0,1,.378-.107l5.51,3.056a.278.278,0,0,1-.271.485Z" transform="translate(-265.586 -424.947)" fill="#61656d" opacity="0.3"/><path d="M589.657,700.943a.116.116,0,0,1-.065-.018,5.564,5.564,0,0,0-2.391-.563c-.777-.063-1.426-.117-1.63-.548s.141-1.948.73-4.357c.738-3.006,1.75-7.126.782-7.648-.571-.3-1.99.5-3.027,1.082-.407.229-.759.428-1.043.55h-.026a1.361,1.361,0,0,1-1.246-.089,1.525,1.525,0,0,1-.73-1.16,16.406,16.406,0,0,1,.261-3.353c.227-1.653.482-3.528-.089-3.833-.649-.342-2.581,1.278-3.737,2.248-.417.352-.782.654-1.009.808a3.022,3.022,0,0,1-2.347.3.132.132,0,0,1-.047-.024.142.142,0,0,1-.034-.04.136.136,0,0,1,.052-.184.135.135,0,0,1,.1-.012,2.856,2.856,0,0,0,2.136-.261c.216-.149.574-.448.988-.782,1.7-1.424,3.283-2.673,4.026-2.276s.5,2.11.224,4.1a17.288,17.288,0,0,0-.261,3.291,1.26,1.26,0,0,0,.6.962,1.11,1.11,0,0,0,1.007.076h.026c.261-.117.626-.323,1.009-.54,1.152-.649,2.584-1.458,3.283-1.085,1.153.618.2,4.506-.647,7.94-.456,1.867-.931,3.8-.748,4.185.138.292.73.342,1.416.4a5.83,5.83,0,0,1,2.5.6.13.13,0,0,1-.065.243Z" transform="translate(-266.492 -388.605)"/><path d="M600.531,680.682a.391.391,0,1,0-.391-.391A.391.391,0,0,0,600.531,680.682Z" transform="translate(-285.822 -388.01)" fill="#ff6302"/><path d="M612.611,710.112a.391.391,0,1,0-.391-.391A.391.391,0,0,0,612.611,710.112Z" transform="translate(-294.752 -409.766)" fill="#ff6302"/><path d="M627.251,755.3a.391.391,0,1,0-.391-.391A.391.391,0,0,0,627.251,755.3Z" transform="translate(-305.575 -443.173)" fill="#ff6302"/><path d="M622.72,654.392l-2.138-1.176a3.161,3.161,0,0,0-5.541-3.043L612.9,649a.521.521,0,0,0-.58.049.524.524,0,0,0-.131.157l-2.608,4.769a.524.524,0,0,0-.062.195.522.522,0,0,0,.268.517l9.817,5.4a.522.522,0,0,0,.4.045.523.523,0,0,0,.313-.251l2.621-4.769a.521.521,0,0,0-.219-.712Zm-3.951-2.185a1.093,1.093,0,1,1,.091-.83,1.088,1.088,0,0,1-.091.83Z" transform="translate(-292.754 -364.823)"/><path d="M614.193,664.664l8.6,4.73a.522.522,0,0,1,.206.712l-.389.7a.522.522,0,0,1-.712.206l-8.6-4.73a.524.524,0,0,1-.157-.131.522.522,0,0,1-.049-.58l.389-.7a.522.522,0,0,1,.712-.206Z" transform="translate(-295.349 -376.698)" fill="#fff"/><path d="M609.643,741.4a.11.11,0,0,0-.057.143l.151.347.211-.083-.151-.347a.11.11,0,0,0-.025-.039.112.112,0,0,0-.039-.026.109.109,0,0,0-.046-.007.118.118,0,0,0-.045.012Z" transform="translate(-292.798 -433.468)" fill="#3f4249"/><path d="M609.643,741.4a.11.11,0,0,0-.057.143l.151.347.211-.083-.151-.347a.11.11,0,0,0-.025-.039.112.112,0,0,0-.039-.026.109.109,0,0,0-.046-.007.118.118,0,0,0-.045.012Z" transform="translate(-292.798 -433.468)"/><path d="M617.993,754.311l-.433.188,6.162,14.12.336-.146a.109.109,0,0,0,.057-.059.107.107,0,0,0,0-.082Z" transform="translate(-298.7 -443.018)" fill="#3f4249"/><path d="M613.843,755.35l-1.043.448,6.117,14.021a.107.107,0,0,0,.141.055l.933-.4Z" transform="translate(-295.181 -443.786)" fill="#3f4249"/><path d="M617.993,754.311l-.433.188,6.162,14.12.336-.146a.109.109,0,0,0,.057-.059.107.107,0,0,0,0-.082Z" transform="translate(-298.7 -443.018)"/><path d="M613.843,755.35l-1.043.448,6.117,14.021a.107.107,0,0,0,.141.055l.933-.4Z" transform="translate(-295.181 -443.786)"/><path d="M639,810.289l-.782.334a.175.175,0,0,1-.066.015.17.17,0,0,1-.123-.05.17.17,0,0,1-.037-.057l-.469-1.082,1.087-.47.469,1.082a.172.172,0,0,1-.078.227Z" transform="translate(-313.455 -483.432)" fill="#3f4249"/><path d="M612.123,745.725l-1.661.72-.482-1.1c-.2-.459-.61-2.43-.151-2.628s1.614,1.45,1.812,1.909Z" transform="translate(-292.83 -434.432)" fill="#3f4249"/><path d="M621.857,782.612l.863,1.992-1.014-.415-.167-.386-.7-1.606-2.128-4.915-.365-.845.156-.068a.459.459,0,0,1,.521.741l2.284,5.27Z" transform="translate(-299.284 -459.291)" fill="#3f4249"/><g transform="translate(281.64 283.149)" opacity="0.15"><path d="M474.82,647.972l2,.248c.065.039.138.076.211.115a4.321,4.321,0,0,0,2.793.589.262.262,0,0,0-.133-.506,1.738,1.738,0,0,1-.482.05l-2.947-2.086a6.787,6.787,0,0,1-1.442,1.6" transform="translate(-474.82 -646.381)" opacity="0.15"/></g><g transform="translate(283.362 279.993)" opacity="0.2"><path d="M481.509,634.66a1.405,1.405,0,0,1,1.069-.381,1.384,1.384,0,0,1,.931.621,2.811,2.811,0,0,1,.5,1.356l.076.443a.235.235,0,0,1-.2.282.238.238,0,0,1-.1-.009.237.237,0,0,1-.143-.126.238.238,0,0,1-.021-.095l-.076-.443a2.717,2.717,0,0,0-.415-1.129.983.983,0,0,0-.613-.438.959.959,0,0,0-.717.279.232.232,0,0,1-.08.043.233.233,0,0,1-.247-.075.231.231,0,0,1-.051-.17.232.232,0,0,1,.084-.157" transform="translate(-481.423 -634.275)" opacity="0.2"/></g><path d="M527.573,659.82a3.605,3.605,0,0,0,1.611.422l.107-.595a3.244,3.244,0,0,1-1.958-.722.3.3,0,0,0-.4.448,2.993,2.993,0,0,0,.639.446" transform="translate(-231.631 -372.449)" opacity="0.2"/><path d="M399.045,759.66c-10.6-4.808-21.038-26.769-21.038-26.769l-3.087,8.866s8.443,18.66,23.8,25.815Z" transform="translate(911.244 848.87) rotate(158)" fill="#fff" opacity="0.2"/><g transform="translate(277.863 292.217)" opacity="0.15"><path d="M469.675,691.525l-9.257-9.862a.3.3,0,0,1-.062-.1.3.3,0,0,1,.175-.388.294.294,0,0,1,.115-.019.3.3,0,0,1,.115.026.3.3,0,0,1,.1.068l9.257,9.862-.013.425a.349.349,0,0,1-.316.081Z" transform="translate(-460.337 -681.156)" opacity="0.15"/></g><g transform="translate(288.016 292.489)" opacity="0.2"><path d="M501.4,682.536l-1.591-.326a.438.438,0,0,0-.422.72l.827.975Z" transform="translate(-499.271 -682.199)" opacity="0.2"/></g><path d="M850.217,349.015c.549-.076.96-.387.917-.694s-.522-.493-1.071-.417-.96.387-.917.694S849.668,349.091,850.217,349.015Z" transform="translate(-469.896 -142.572)" fill="#fff"/><path d="M853.161,326.212a.151.151,0,1,0-.151-.151A.151.151,0,0,0,853.161,326.212Z" transform="translate(-472.755 -126.325)" fill="#fff"/><path d="M832,331.712a.151.151,0,1,0-.151-.151A.151.151,0,0,0,832,331.712Z" transform="translate(-457.113 -130.391)" fill="#fff"/><g transform="translate(378.24 201.414)" opacity="0.15"><path d="M846.264,334.693l.965-.162a.217.217,0,0,0-.05-.43l-.965.162a.446.446,0,0,1-.46-.2.449.449,0,0,1-.061-.166.5.5,0,0,1,.36-.537.214.214,0,0,0,.08-.026.21.21,0,0,0,.064-.055.214.214,0,0,0,.039-.075.215.215,0,0,0-.019-.164.218.218,0,0,0-.13-.1.22.22,0,0,0-.084-.007.892.892,0,0,0-.712,1.009.782.782,0,0,0,.973.759Z" transform="translate(-845.281 -332.924)" opacity="0.15"/></g><path d="M852.411,341.42l.261.235a1.33,1.33,0,0,0,2.1-.66l.112-.4c.023-.086-.039-.167-.123-.133l-2.323.782a.1.1,0,0,0-.047.03.1.1,0,0,0-.024.05.1.1,0,0,0,.006.056.1.1,0,0,0,.034.044Z" transform="translate(-472.281 -137.073)" fill="#fff"/><path d="M715.025,576.132a.108.108,0,0,0,.031-.031.115.115,0,0,0,.016-.041.11.11,0,0,0,0-.044.114.114,0,0,0-.017-.04l-.219-.316-.185.128.219.315a.115.115,0,0,0,.156.029Z" transform="translate(-370.473 -310.951)" fill="#3f4249"/><path d="M715.025,576.132a.108.108,0,0,0,.031-.031.115.115,0,0,0,.016-.041.11.11,0,0,0,0-.044.114.114,0,0,0-.017-.04l-.219-.316-.185.128.219.315a.115.115,0,0,0,.156.029Z" transform="translate(-370.473 -310.951)"/><path d="M817.166,413.381a33.522,33.522,0,0,1,1.056,7.379l-2.112.907a18.772,18.772,0,0,0,.821-2.926,20.7,20.7,0,0,0,.235-5.361Z" transform="translate(-445.477 -190.987)" opacity="0.15"/><path d="M721.4,487.99a.386.386,0,1,0-.31-.448.378.378,0,0,0,.31.448Z" transform="translate(-375.227 -245.576)" fill="#f3f3f3"/><path d="M748.549,457.91a.378.378,0,1,0-.31-.3.378.378,0,0,0,.31.3Z" transform="translate(-395.298 -223.339)" fill="#f3f3f3"/><path d="M775.869,429.92a.386.386,0,1,0-.31-.448.378.378,0,0,0,.31.448Z" transform="translate(-415.494 -202.648)" fill="#f3f3f3"/><path d="M839.179,405.459a.386.386,0,1,0-.31-.449.378.378,0,0,0,.31.449Z" transform="translate(-462.296 -184.565)" fill="#f3f3f3"/><path d="M743.959,483.129a.386.386,0,1,0-.31-.448.378.378,0,0,0,0,.151.377.377,0,0,0,.169.244.379.379,0,0,0,.142.053Z" transform="translate(-391.904 -241.982)" fill="#f3f3f3"/><path d="M803.809,439.049a.378.378,0,1,0-.31-.3.377.377,0,0,0,.169.244.377.377,0,0,0,.141.053Z" transform="translate(-436.149 -209.396)" fill="#f3f3f3"/><path d="M829.1,425.549a.386.386,0,1,0-.31-.448.378.378,0,0,0,.06.29.379.379,0,0,0,.251.158Z" transform="translate(-454.844 -199.417)" fill="#f3f3f3"/><path d="M800.1,420.26a.386.386,0,1,0-.31-.448.378.378,0,0,0,.06.29.379.379,0,0,0,.251.158Z" transform="translate(-433.406 -195.507)" fill="#f3f3f3"/><path d="M722.919,508.51a.378.378,0,1,0-.31-.3.378.378,0,0,0,.31.3Z" transform="translate(-376.351 -260.745)" fill="#f3f3f3"/><path d="M768.749,452.529a.386.386,0,1,0-.208-.648.382.382,0,0,0-.1.2.378.378,0,0,0,0,.151.383.383,0,0,0,.059.139.38.38,0,0,0,.251.158Z" transform="translate(-410.23 -219.362)" fill="#f3f3f3"/><path d="M895.066,744.953,835.875,783.1a2.868,2.868,0,0,0,.647,5.132l59.191,19.726a2.87,2.87,0,0,0,3.776-2.722V747.365a2.868,2.868,0,0,0-4.422-2.412Z" transform="translate(-459.117 -435.762)" fill="#ebebeb"/><path d="M867.994,648.9a.13.13,0,1,1,0-.261h1.043a.136.136,0,0,1,.138.13.132.132,0,0,1-.008.049.126.126,0,0,1-.027.042.12.12,0,0,1-.041.029.127.127,0,0,1-.049.01v0Zm-1.043,0h-1.043a.13.13,0,1,1,0-.261h1.043a.13.13,0,0,1,0,.261Zm-2.086,0h-1.043a.13.13,0,1,1,0-.261h1.043a.13.13,0,1,1,0,.261Zm-2.086,0h-1.043a.13.13,0,1,1,0-.261h1.043a.13.13,0,0,1,0,.261Zm-2.086,0H859.65a.13.13,0,1,1,0-.261h1.043a.13.13,0,0,1,0,.261Zm-2.086,0h-.036a2.03,2.03,0,0,1-1.03-.282.125.125,0,0,1-.039-.034.131.131,0,0,1-.023-.046.127.127,0,0,1,0-.051.13.13,0,0,1,.017-.049.136.136,0,0,1,.035-.038.134.134,0,0,1,.047-.022.132.132,0,0,1,.1.016,1.76,1.76,0,0,0,.9.245h.036a.13.13,0,0,1,0,.261Zm11.473-.292a.129.129,0,0,1-.078-.026.13.13,0,0,1-.044-.15.132.132,0,0,1,.052-.064,1.755,1.755,0,0,0,.641-.717.131.131,0,1,1,.235.115,2.042,2.042,0,0,1-.738.824.125.125,0,0,1-.1.018Zm-13.189-.725a.129.129,0,0,1-.115-.07,2.018,2.018,0,0,1-.227-.928v-.154a.125.125,0,0,1,.012-.05.124.124,0,0,1,.032-.041.125.125,0,0,1,.045-.025.127.127,0,0,1,.052,0,.129.129,0,0,1,.049.014.133.133,0,0,1,.065.076.134.134,0,0,1,.006.051,1.179,1.179,0,0,0,0,.133,1.745,1.745,0,0,0,.2.808.131.131,0,0,1-.055.175.137.137,0,0,1-.094.016Zm14.143-1.043h-.026a.131.131,0,0,1-.082-.056.133.133,0,0,1-.02-.1l.209-1.027a.133.133,0,0,1,.156-.1.133.133,0,0,1,.1.156l-.209,1.027a.125.125,0,0,1-.022.046.129.129,0,0,1-.086.05.124.124,0,0,1-.051,0Zm-14.156-.988h-.026a.121.121,0,0,1-.047-.019.124.124,0,0,1-.036-.036.133.133,0,0,1-.019-.047.128.128,0,0,1,0-.051l.177-1.043a.127.127,0,0,1,.019-.047.13.13,0,0,1,.084-.055.129.129,0,0,1,.051,0,.138.138,0,0,1,.047.02.134.134,0,0,1,.036.036.131.131,0,0,1,.019.047.134.134,0,0,1,0,.051l-.209,1.025a.132.132,0,0,1-.044.078.129.129,0,0,1-.084.031Zm14.574-1.064h-.026a.125.125,0,0,1-.047-.02.132.132,0,0,1-.055-.083.131.131,0,0,1,0-.051l.206-1.027a.134.134,0,0,1,.02-.048.131.131,0,0,1,.037-.037.137.137,0,0,1,.048-.02.135.135,0,0,1,.052,0,.138.138,0,0,1,.048.02.136.136,0,0,1,.056.084.135.135,0,0,1,0,.052l-.206,1.025a.133.133,0,0,1-.023.047.131.131,0,0,1-.039.034.135.135,0,0,1-.049.016.127.127,0,0,1-.052,0Zm-14.159-.988h-.026a.129.129,0,0,1-.083-.056.128.128,0,0,1-.019-.047.131.131,0,0,1,0-.051l.209-1.027a.134.134,0,0,1,.019-.047.131.131,0,0,1,.036-.036.135.135,0,0,1,.047-.019.131.131,0,0,1,.051,0,.135.135,0,0,1,.082.057.133.133,0,0,1,.02.1l-.209,1.027a.125.125,0,0,1-.022.046.124.124,0,0,1-.038.033.127.127,0,0,1-.1.012Zm14.574-1.067h-.026a.127.127,0,0,1-.047-.019.13.13,0,0,1-.036-.036.131.131,0,0,1-.019-.1l.209-1.025a.132.132,0,0,1,.057-.084.133.133,0,0,1,.184.037.133.133,0,0,1,.02.1L872,642.628a.131.131,0,0,1-.023.047.122.122,0,0,1-.04.034.126.126,0,0,1-.049.016.128.128,0,0,1-.052-.005Zm-14.156-.986h-.026a.125.125,0,0,1-.047-.02.132.132,0,0,1-.055-.083.13.13,0,0,1,0-.051l.206-1.027a.133.133,0,0,1,.056-.082.134.134,0,0,1,.1-.02.126.126,0,0,1,.047.019.128.128,0,0,1,.036.036.129.129,0,0,1,.018.1l-.206,1.027a.134.134,0,0,1-.061.077.131.131,0,0,1-.1.014Zm14.574-1.066h-.026a.131.131,0,0,1-.1-.1.131.131,0,0,1,0-.051l.206-1.027a.133.133,0,0,1,.154-.1.134.134,0,0,1,.047.02.132.132,0,0,1,.055.083.135.135,0,0,1,0,.051l-.206,1.027a.13.13,0,0,1-.159.091Zm-14.159-.988H858.1a.129.129,0,0,1-.083-.056.125.125,0,0,1-.019-.047.129.129,0,0,1,0-.051l.209-1.025a.129.129,0,0,1,.019-.048.129.129,0,0,1,.084-.055.13.13,0,0,1,.051,0,.135.135,0,0,1,.047.02.131.131,0,0,1,.055.134l-.209,1.025a.13.13,0,0,1-.159.091Zm14.574-1.064h-.026a.129.129,0,0,1-.083-.056.123.123,0,0,1-.019-.047.131.131,0,0,1,0-.051l.209-1.027a.134.134,0,0,1,.02-.047.131.131,0,0,1,.036-.036.136.136,0,0,1,.047-.019.133.133,0,0,1,.051,0,.128.128,0,0,1,.047.02.13.13,0,0,1,.036.036.134.134,0,0,1,.019.047.136.136,0,0,1,0,.051l-.209,1.027a.133.133,0,0,1-.159.091Zm-14.156-.988h-.049a.12.12,0,0,1-.048-.019.124.124,0,0,1-.036-.036.131.131,0,0,1-.019-.047.127.127,0,0,1,0-.051l.206-1.027a.13.13,0,0,1,.2-.082.132.132,0,0,1,.036.036.13.13,0,0,1,.019.1l-.206,1.027a.13.13,0,0,1-.136.091Zm14.527-1.069a.124.124,0,0,1-.049-.013.128.128,0,0,1-.071-.125V636.3a1.74,1.74,0,0,0-.2-.814.132.132,0,0,1,.015-.145.135.135,0,0,1,.04-.032.138.138,0,0,1,.049-.015.129.129,0,0,1,.051.005.13.13,0,0,1,.077.064,2.025,2.025,0,0,1,.23.936,1.324,1.324,0,0,1,0,.146.135.135,0,0,1-.013.05.131.131,0,0,1-.032.04.127.127,0,0,1-.045.025.125.125,0,0,1-.051,0Zm-14.081-.965a.108.108,0,0,1-.057-.016.13.13,0,0,1-.066-.075.124.124,0,0,1-.007-.051.131.131,0,0,1,.013-.049,2,2,0,0,1,.741-.819.124.124,0,0,1,.048-.019.126.126,0,0,1,.051,0,.131.131,0,0,1,.047.021.127.127,0,0,1,.034.038.133.133,0,0,1-.042.18,1.763,1.763,0,0,0-.647.714.129.129,0,0,1-.117.063Zm13.158-.782a.115.115,0,0,1-.065-.018,1.749,1.749,0,0,0-.892-.243h-.042a.13.13,0,1,1,0-.261h.042a2.013,2.013,0,0,1,1.025.279.13.13,0,0,1,.044.177.13.13,0,0,1-.052.035.128.128,0,0,1-.062.007Zm-2.047-.261h-1.043a.13.13,0,1,1,0-.261H870.1a.13.13,0,1,1,0,.261Zm-2.086,0H866.97a.13.13,0,1,1,0-.261h1.043a.13.13,0,1,1,0,.261Zm-2.086,0h-1.043a.13.13,0,1,1,0-.261h1.043a.13.13,0,0,1,0,.261Zm-2.086,0H862.8a.13.13,0,1,1,0-.261h1.043a.13.13,0,1,1,0,.261Zm-2.086,0h-1.043a.125.125,0,0,1-.051-.009.13.13,0,0,1-.043-.028.132.132,0,0,1-.029-.043.128.128,0,0,1-.01-.051.136.136,0,0,1,.045-.1.136.136,0,0,1,.047-.027.141.141,0,0,1,.054-.007h1.027a.13.13,0,1,1,0,.261Z" transform="translate(-475.372 -354.3)" fill="#61656d"/><path d="M921.82,574.562a1.122,1.122,0,1,0-.853-.06,1.119,1.119,0,0,0,.853.06Z" transform="translate(-522.533 -308.529)" fill="#fff" opacity="0.8"/><path d="M875.115,621.986l1.937-20.6,1.61-4.64a15.608,15.608,0,0,0,.911-2.3.751.751,0,0,0-.36-.863h0a.753.753,0,0,0-1,.261l-.578.074c-.073.068-.284.008-.38.034s-.185-.183-.283-.205a.612.612,0,0,1-.433-.373l-1.643-5.085-.454.081a.9.9,0,0,0-.751.874l-.018.391a.63.63,0,0,1-.375.435l-.289.107a1.227,1.227,0,0,0-.613,1.129l.016.422a.483.483,0,0,1-.376.469h0a.832.832,0,0,0-.748.9l-.036.816-.031.034a1.286,1.286,0,0,0-.568,1.419l1.606,6.845-5.372,20.078a4.17,4.17,0,0,0,.3,2.947l9.671,19.317,9.883-7.669Z" transform="translate(-482.909 -320.287)" fill="#b2897b"/><path d="M921.572,777.018l8.446,10.018,6.949-7.674-8.707-14.709-12.4-3.46-8.25-2.076L896.785,745.25l-8.365,6.428,10.24,20.415L900,796.674l31.632,10.545-3.479-22.4Z" transform="translate(-498.932 -436.32)" fill="#ff6302"/><path d="M979.284,748.507l1.163,9.541a1.786,1.786,0,0,0,1.458,1.523l.827,2.957s-11.226-.522-11.711-.748l-1.9-.464a3.009,3.009,0,0,0,1.348-2.227l.185-11.489Z" transform="translate(-558.589 -438.057)" fill="#b2897b"/><path d="M960.655,737.536l.436.13a5.909,5.909,0,0,0,7.3-4.07l2.263-7.992a2.015,2.015,0,0,0,.063-.769,1.979,1.979,0,0,0-.24-.734,1.965,1.965,0,0,0-1.189-.935l-7.473-2.141a2.563,2.563,0,0,0-3.166,1.768l-2.1,7.429a5.972,5.972,0,0,0,4.1,7.3" transform="translate(-549.14 -418.34)" fill="#b2897b"/><path d="M955.261,749a11.184,11.184,0,0,0-1.377,1.476c-.428.623.806.941.806.941Z" transform="translate(-547.26 -439.092)" fill="#b2897b"/><g transform="translate(421.157 314.818)" opacity="0.15"><path d="M1010.777,767.83h-.907l.962,1.919Z" transform="translate(-1009.87 -767.83)" opacity="0.15"/></g><g transform="translate(411.879 319.298)" opacity="0.15"><path d="M976.462,785.245a5.828,5.828,0,0,1-2.154-.235l-.018,1.643Z" transform="translate(-974.29 -785.01)" opacity="0.15"/></g><path d="M956.443,762.4a2.852,2.852,0,0,0,2.034-.782.133.133,0,0,0-.185-.19,2.723,2.723,0,0,1-1.872.709Z" transform="translate(-549.2 -448.255)" opacity="0.2"/><path d="M968.831,714.723s1.979,5.432-1.15,8.9c-1.755,1.935-12.344,16.6,10.571,20.808a20.366,20.366,0,0,0,6.122.224c5.458-.668,8.167-3.272,8.284-5.791.4-6.274-8.1-8.54-8.589-14.214-.3-3.5,1.7-17.833-7.9-21.2-9.058-3.187-14.342,1.888-14.248,3.724S961.684,711.589,968.831,714.723Z" transform="translate(-553.27 -404.658)"/><path d="M985.711,750.11a2.927,2.927,0,0,0,3-2.417c.446-2.521-2.691-2.889-3.038-.334l-.169,2.787Z" transform="translate(-570.698 -436.588)" fill="#b2897b"/><path d="M967.136,743.713l.078-.362-6.876-2.2-.078.365Z" transform="translate(-552.039 -433.289)" fill="#fff"/><path d="M958.253,738.966a.188.188,0,0,0,.149-.133l.933-3.275a.182.182,0,0,0,.007-.072.176.176,0,0,0-.022-.069.178.178,0,0,0-.112-.086.188.188,0,0,0-.229.128l-.928,3.275a.183.183,0,0,0-.006.072.185.185,0,0,0,.069.124.189.189,0,0,0,.065.033.22.22,0,0,0,.081,0" transform="translate(-550.4 -428.982)" fill="#fff"/><path d="M984.537,746.828a5.4,5.4,0,0,0-.3,1.512.316.316,0,0,1-.339.287h0a.319.319,0,0,1-.287-.334l.162-2.232Z" transform="translate(-569.299 -436.919)"/><path d="M990.629,747.6a.782.782,0,0,0-1.244,0,1.742,1.742,0,0,0-.415.782l-.083.261a.146.146,0,0,0,.213.145.147.147,0,0,0,.068-.077l.083-.261a1.691,1.691,0,0,1,.342-.657.49.49,0,0,1,.821,0,.142.142,0,0,0,.047.031.144.144,0,0,0,.11,0,.14.14,0,0,0,.047-.031.136.136,0,0,0,.032-.046.139.139,0,0,0,0-.111.137.137,0,0,0-.032-.046" transform="translate(-573.201 -437.827)"/><path d="M988.867,757.747a.5.5,0,1,0-.1.371.5.5,0,0,0,.1-.371" transform="translate(-572.446 -445.231)" fill="#ff6302"/><g transform="translate(415.629 312.169)" opacity="0.15"><path d="M988.793,758.523a.551.551,0,0,0,.537-.574.6.6,0,0,0-.107-.279.557.557,0,0,1,.243.4.5.5,0,0,1-.136.367.5.5,0,0,1-.36.154.422.422,0,0,1-.3-.086.275.275,0,0,1,.123.016" transform="translate(-988.67 -757.67)" opacity="0.15"/></g><path d="M986.793,762.211s-.464.117-.62.141-.673.052-.673.052a3.259,3.259,0,0,0,1.3,1.061C986.793,763.46,986.83,762.56,986.793,762.211Z" transform="translate(-570.698 -448.858)" opacity="0.15"/><path d="M1080.833,822.93a.486.486,0,0,0,.144-.312.494.494,0,0,0-.1-.327.433.433,0,0,0-.6-.1l-2.67,2.109s1.992-2.013,2.868-2.868a.569.569,0,0,0,.164-.388.579.579,0,0,0-.146-.395.5.5,0,0,0-.657-.039l-3,2.477s1.51-1.838,2.167-2.631a.467.467,0,0,0,.109-.341.514.514,0,0,0-.052-.175.473.473,0,0,0-.754-.1l-3.812,3.948c-.1.136-.35.1-.193-.154a7.453,7.453,0,0,0,.6-1.181c.193-.561.135-1.064-.407-1.335a.16.16,0,0,0-.1.009.152.152,0,0,0-.073.069l-1.742,2.167a9.246,9.246,0,0,0-.949,1.781l-.678,1.685-.542,1.52-12.154,11.072-3.333-5.009-6.949,7.674,4.459,5.87a4.451,4.451,0,0,0,6.9.227l15.541-17.89,5.823-5.862a.41.41,0,0,0,.039-.485.358.358,0,0,0-.464-.1l-1.685,1.335S1080.051,823.626,1080.833,822.93Z" transform="translate(-616.878 -491.356)" fill="#b2897b"/><path d="M927.69,848.18l2.3,3.486,1.27,21.844-2.229-.746Z" transform="translate(-527.962 -512.41)" opacity="0.15"/><path d="M910.622,654.04l-3.059-.566L892.5,633.834l2.477-22.482s3.212-4.9,3.2-6.692l.138.115a.7.7,0,0,1,.222.748l-2.443,6.822-1.937,20.6Z" transform="translate(-501.948 -331.243)" opacity="0.15"/><path d="M1037.153,870.16l-1.283-9.471,4.269,10.448-1.119,1.236Z" transform="translate(-607.933 -521.658)" opacity="0.15"/><path d="M952.96,940.8a.3.3,0,0,1-.274.274H950.8a.268.268,0,0,1,0-.535h1.885C952.855,940.525,953.007,940.658,952.96,940.8Z" transform="translate(-544.854 -580.685)" opacity="0.6"/><path d="M964.323,850.507a.295.295,0,0,1-.274.261h-1.885a.261.261,0,0,1,0-.522h1.885A.236.236,0,0,1,964.323,850.507Z" transform="translate(-553.244 -513.937)" opacity="0.6"/><path d="M945.077,866.927a.294.294,0,0,1-.261.274h-1.885a.294.294,0,0,1-.261-.274h0a.295.295,0,0,1,.261-.261h1.885A.236.236,0,0,1,945.077,866.927Z" transform="translate(-539.036 -526.076)" opacity="0.6"/><path d="M1009.37,874.388a.3.3,0,0,1-.089.18.3.3,0,0,1-.185.081h-1.872a.3.3,0,0,1-.185-.081.3.3,0,0,1-.089-.18h0a.3.3,0,0,1,.089-.18.3.3,0,0,1,.185-.081h1.885A.233.233,0,0,1,1009.37,874.388Z" transform="translate(-586.554 -531.591)" opacity="0.6"/><path d="M1025.017,908.3a.292.292,0,0,1-.261.261h-1.885a.292.292,0,0,1-.261-.261h0a.3.3,0,0,1,.081-.184.294.294,0,0,1,.18-.09h1.885C1024.912,908.021,1025.058,908.167,1025.017,908.3Z" transform="translate(-598.131 -556.653)" opacity="0.6"/><path d="M995.76,952.954a.292.292,0,0,1-.261.261h-1.885a.295.295,0,0,1-.274-.261h0a.294.294,0,0,1,.274-.274H995.5C995.655,952.68,995.794,952.818,995.76,952.954Z" transform="translate(-576.493 -589.661)" opacity="0.6"/><path d="M952.96,810.529a.294.294,0,0,1-.274.274H950.8a.295.295,0,0,1-.261-.274h0a.294.294,0,0,1,.261-.261h1.885C952.855,810.255,953.007,810.391,952.96,810.529Z" transform="translate(-544.854 -484.384)" opacity="0.6"/><path d="M909.837,793.629a.3.3,0,0,1-.261.261h-1.885a.3.3,0,0,1-.261-.261h0a.295.295,0,0,1,.261-.261h1.885A.232.232,0,0,1,909.837,793.629Z" transform="translate(-512.985 -471.891)" opacity="0.6"/><path d="M927.26,817.835a.295.295,0,0,1-.261.261h-1.885a.294.294,0,0,1-.274-.261h0a.294.294,0,0,1,.274-.274H927C927.155,817.561,927.294,817.7,927.26,817.835Z" transform="translate(-525.855 -489.775)" opacity="0.6"/><path d="M920.378,773.4a.294.294,0,0,1-.261.274h-1.893a.295.295,0,0,1-.274-.274h0a.295.295,0,0,1,.274-.261h1.885A.235.235,0,0,1,920.378,773.4Z" transform="translate(-520.762 -456.935)" opacity="0.6"/><path d="M994.38,908.939a.3.3,0,0,1-.36-.146l-.733-1.737a.3.3,0,0,1,.146-.36h0a.3.3,0,0,1,.36.146l.733,1.737a.261.261,0,0,1,.026.105.26.26,0,0,1-.172.254Z" transform="translate(-576.443 -555.657)" opacity="0.6"/><path d="M986.564,860.532a.295.295,0,0,1,.112-.373l1.658-.894a.276.276,0,0,1,.261.485l-1.658.894a.26.26,0,0,1-.307-.025.259.259,0,0,1-.066-.087Z" transform="translate(-571.464 -520.585)" opacity="0.6"/><path d="M974.244,887.981a.295.295,0,0,1,.112-.373l1.658-.894a.275.275,0,0,1,.261.485l-1.658.894a.261.261,0,0,1-.373-.112Z" transform="translate(-562.357 -540.877)" opacity="0.6"/><path d="M902.071,771.875a.292.292,0,0,1-.261-.292l.12-1.883a.292.292,0,0,1,.292-.261h0a.293.293,0,0,1,.261.292l-.12,1.883C902.35,771.788,902.206,771.916,902.071,771.875Z" transform="translate(-508.83 -454.201)" opacity="0.6"/><path d="M943.054,833.712a.295.295,0,0,1,.112-.373l1.658-.894a.295.295,0,0,1,.373.112h0a.295.295,0,0,1-.112.373l-1.658.894a.261.261,0,0,1-.373-.112Z" transform="translate(-539.3 -500.758)" opacity="0.6"/><path d="M1021.347,958.071a.3.3,0,0,1-.013-.208.286.286,0,0,1,.125-.165l1.658-.894a.294.294,0,0,1,.373.112h0a.3.3,0,0,1,.013.208.285.285,0,0,1-.125.165l-1.658.894a.26.26,0,0,1-.1.036.269.269,0,0,1-.11-.009.264.264,0,0,1-.1-.053A.283.283,0,0,1,1021.347,958.071Z" transform="translate(-597.178 -592.69)" opacity="0.6"/><path d="M976.448,927.837a.294.294,0,0,1-.083.378l-1.588,1.017a.274.274,0,0,1-.295-.461l1.588-1.017a.263.263,0,0,1,.1-.043.259.259,0,0,1,.109,0,.259.259,0,0,1,.17.126Z" transform="translate(-562.464 -571.199)" opacity="0.6"/><path d="M950.518,909.106a.3.3,0,0,1-.381-.081l-1.043-1.58a.3.3,0,0,1,.081-.381h0a.3.3,0,0,1,.381.081l1.043,1.58a.267.267,0,0,1,.045.1.26.26,0,0,1,0,.109.268.268,0,0,1-.045.1.264.264,0,0,1-.081.072Z" transform="translate(-543.758 -555.913)" opacity="0.6"/><path d="M929.526,792.387a.3.3,0,0,1-.381-.081l-1.03-1.58a.3.3,0,0,1,.081-.381h0a.3.3,0,0,1,.381.081l1.043,1.58a.257.257,0,0,1,.042.1.259.259,0,0,1,0,.11.259.259,0,0,1-.133.169Z" transform="translate(-528.249 -469.629)" opacity="0.6"/><path d="M1053.05,873.106a.3.3,0,0,1-.381-.081l-1.043-1.58a.311.311,0,0,1-.031-.205.276.276,0,0,1,.493-.095l1.043,1.58a.277.277,0,0,1,.044.1.256.256,0,0,1,0,.109.279.279,0,0,1-.044.1.263.263,0,0,1-.081.072Z" transform="translate(-619.554 -529.3)" opacity="0.6"/><path d="M1016.247,934.446a.3.3,0,0,1-.381-.081l-1.03-1.58a.312.312,0,0,1-.031-.205.3.3,0,0,1,.112-.175h0a.3.3,0,0,1,.381.081l1.03,1.58a.28.28,0,0,1,.044.1.256.256,0,0,1,0,.109.279.279,0,0,1-.044.1.256.256,0,0,1-.081.073Z" transform="translate(-592.357 -574.645)" opacity="0.6"/><path d="M515.411,402.371A12.211,12.211,0,1,0,503.2,390.16,12.211,12.211,0,0,0,515.411,402.371Z" transform="translate(-225.271 -164.794)" fill="#fff"/><path d="M546.9,410.156a1.042,1.042,0,1,0-.738-.305A1.041,1.041,0,0,0,546.9,410.156Z" transform="translate(-245.696 -187.062)" fill="#84888f"/><g transform="translate(394.432 240.087)" opacity="0.15"><path d="M908.96,481.253a.141.141,0,0,0-.19.057l-1.069,2.01-.261.506a.475.475,0,0,0,.039.521l1.544-2.913a.149.149,0,0,0-.063-.182Z" transform="translate(-907.38 -481.236)" opacity="0.15"/></g><path d="M902.442,481.451a.141.141,0,0,0,.011-.056.138.138,0,0,0-.094-.131.134.134,0,0,0-.056-.007.14.14,0,0,0-.055.016.135.135,0,0,0-.043.037.139.139,0,0,0-.025.051l-.522,1.484.522-1.489-.61,1.724-.553,1.6a.563.563,0,0,0,.13.461.1.1,0,0,0,.016-.029Z" transform="translate(-508.24 -241.165)" opacity="0.15"/><path d="M942.99,469.889l7.523-2.86,1.63,4.96h-1.335l-1.215-3.742Z" transform="translate(-539.272 -230.646)" opacity="0.15"/><path d="M932.67,416.1l10.136-5.4-9.043-10.342.24-.19,10.253,11.025-10.172,5.017-.519.258-.511.25Z" transform="translate(-531.643 -181.221)" opacity="0.15"/><path d="M922.89,461.25l2.694,4.368L921.56,467.2a2.391,2.391,0,0,1-1.825-.029l-.295-.128,1.351-.117,3.893-1.622-2.417-3.862Z" transform="translate(-521.863 -226.374)" opacity="0.15"/><path d="M947.919,462.93a.386.386,0,0,0,.393-.17.386.386,0,1,0-.7-.278.38.38,0,0,0,0,.151.378.378,0,0,0,.31.3Z" transform="translate(-542.681 -227.05)" fill="#f3f3f3"/><path d="M950.879,439.049a.385.385,0,0,0,.393-.17.386.386,0,0,0-.6-.478.384.384,0,0,0-.1.2.378.378,0,0,0,.31.448Z" transform="translate(-544.869 -209.396)" fill="#f3f3f3"/><path d="M968.529,388.709a.386.386,0,1,0-.31-.448.371.371,0,0,0,0,.151.378.378,0,0,0,.31.3Z" transform="translate(-557.917 -172.183)" fill="#f3f3f3"/><path d="M968.529,416.209a.386.386,0,1,0-.31-.448.371.371,0,0,0,0,.151.378.378,0,0,0,.31.3Z" transform="translate(-557.917 -192.512)" fill="#f3f3f3"/><path d="M982,435.141a.386.386,0,0,0,.393-.17.386.386,0,1,0-.7-.278.377.377,0,0,0,.059.29.378.378,0,0,0,.251.158Z" transform="translate(-567.874 -206.507)" fill="#f3f3f3"/><path d="M980.519,455.24a.386.386,0,1,0-.31-.449.38.38,0,0,0,.06.29.379.379,0,0,0,.251.158Z" transform="translate(-566.781 -221.366)" fill="#f3f3f3"/><path d="M964.1,462.93a.386.386,0,1,0-.208-.648.388.388,0,0,0-.1.2.378.378,0,0,0,.31.449Z" transform="translate(-554.642 -227.05)" fill="#f3f3f3"/><path d="M982,414.73a.386.386,0,1,0-.208-.648.384.384,0,0,0-.1.2.378.378,0,0,0,.31.448Z" transform="translate(-567.874 -191.419)" fill="#f3f3f3"/><path d="M968.529,451.949a.386.386,0,1,0-.31-.448.378.378,0,0,0,.31.448Z" transform="translate(-557.917 -218.933)" fill="#f3f3f3"/><path d="M995.439,439.049a.386.386,0,1,0-.31-.448.376.376,0,0,0,0,.151.377.377,0,0,0,.31.3Z" transform="translate(-577.81 -209.396)" fill="#f3f3f3"/><path d="M947.919,399.449a.386.386,0,1,0-.31-.448.377.377,0,0,0,.059.291.378.378,0,0,0,.251.158Z" transform="translate(-542.681 -180.122)" fill="#f3f3f3"/><path d="M947.919,371.07a.386.386,0,1,0-.208-.648.4.4,0,0,0-.1.351.379.379,0,0,0,.31.3Z" transform="translate(-542.681 -159.143)" fill="#f3f3f3"/><path d="M955.2,479.01a.386.386,0,1,0-.31-.448.376.376,0,0,0,0,.151.378.378,0,0,0,.31.3Z" transform="translate(-548.063 -238.937)" fill="#f3f3f3"/><path d="M609.688,873.64h-7.943a.783.783,0,0,1-.8-.748v-8.2a.783.783,0,0,1,.8-.748h7.948a.782.782,0,0,1,.782.748v8.2a.782.782,0,0,1-.787.748Z" transform="translate(-286.421 -524.06)" fill="#ff6302"/><path d="M611.068,878.825l-1.632-1.6a.24.24,0,0,1,0-.321l.42-.428a.242.242,0,0,1,.321,0l1.043,1.027,2.472-2.54a.242.242,0,0,1,.321,0l.428.42a.24.24,0,0,1,0,.321l-3.053,3.129a.232.232,0,0,1-.163.068.231.231,0,0,1-.163-.068" transform="translate(-292.648 -532.169)" fill="#fff"/><path d="M1175.453,490.374h-20.921a1.226,1.226,0,0,1-.469-.093,1.256,1.256,0,0,1-.4-.265,1.213,1.213,0,0,1-.263-.4,1.2,1.2,0,0,1-.094-.468v-20.92a1.214,1.214,0,0,1,.091-.47,1.212,1.212,0,0,1,.662-.667,1.216,1.216,0,0,1,.469-.094h20.921a1.221,1.221,0,0,1,1.223,1.223v20.941a1.222,1.222,0,0,1-1.223,1.21Z" transform="translate(-694.75 -230.625)" fill="#fff"/><path d="M1188.654,498.907a2.278,2.278,0,0,1-2.274-2.274V487.87a3.06,3.06,0,0,1,3.059-3.059h0a3.058,3.058,0,0,1,3.059,3.061v6.983a.431.431,0,0,1-.031.162.47.47,0,0,1-.094.138.408.408,0,0,1-.138.092.417.417,0,0,1-.323,0,.409.409,0,0,1-.138-.092.472.472,0,0,1-.094-.138.431.431,0,0,1-.031-.162v-6.983a2.243,2.243,0,0,0-.167-.847,2.212,2.212,0,0,0-2.889-1.2,2.191,2.191,0,0,0-.717.479,2.216,2.216,0,0,0-.48.717,2.238,2.238,0,0,0-.167.846v8.764a1.426,1.426,0,0,0,2.85,0v-6.764a.723.723,0,0,0-.719-.722h0a.723.723,0,0,0-.722.722V494.7a.425.425,0,0,1-.85,0v-4.832a1.566,1.566,0,0,1,1.564-1.565h0a1.565,1.565,0,0,1,1.565,1.565v6.761a2.278,2.278,0,0,1-2.261,2.274Z" transform="translate(-719.197 -243.792)" fill="#868a91"/></g></svg>